<?xml version="1.0" encoding="utf-8" standalone="no"?>
<!DOCTYPE svg PUBLIC "-//W3C//DTD SVG 1.1//EN"
  "http://www.w3.org/Graphics/SVG/1.1/DTD/svg11.dtd">
<!-- Created with matplotlib (https://matplotlib.org/) -->
<svg height="263.63625pt" version="1.1" viewBox="0 0 380.482812 263.63625" width="380.482812pt" xmlns="http://www.w3.org/2000/svg" xmlns:xlink="http://www.w3.org/1999/xlink">
 <defs>
  <style type="text/css">
*{stroke-linecap:butt;stroke-linejoin:round;}
  </style>
 </defs>
 <g id="figure_1">
  <g id="patch_1">
   <path d="M -0 263.63625 
L 380.482812 263.63625 
L 380.482812 0 
L -0 0 
z
" style="fill:none;"/>
  </g>
  <g id="axes_1">
   <g id="patch_2">
    <path d="M 38.482813 239.758125 
L 373.282813 239.758125 
L 373.282813 22.318125 
L 38.482813 22.318125 
z
" style="fill:#ffffff;"/>
   </g>
   <g id="matplotlib.axis_1">
    <g id="xtick_1">
     <g id="line2d_1">
      <defs>
       <path d="M 0 0 
L 0 3.5 
" id="m0ba25dcd1d" style="stroke:#000000;stroke-width:0.8;"/>
      </defs>
      <g>
       <use style="stroke:#000000;stroke-width:0.8;" x="53.700994" xlink:href="#m0ba25dcd1d" y="239.758125"/>
      </g>
     </g>
     <g id="text_1">
      <!-- 0 -->
      <defs>
       <path d="M 31.78125 66.40625 
Q 24.171875 66.40625 20.328125 58.90625 
Q 16.5 51.421875 16.5 36.375 
Q 16.5 21.390625 20.328125 13.890625 
Q 24.171875 6.390625 31.78125 6.390625 
Q 39.453125 6.390625 43.28125 13.890625 
Q 47.125 21.390625 47.125 36.375 
Q 47.125 51.421875 43.28125 58.90625 
Q 39.453125 66.40625 31.78125 66.40625 
z
M 31.78125 74.21875 
Q 44.046875 74.21875 50.515625 64.515625 
Q 56.984375 54.828125 56.984375 36.375 
Q 56.984375 17.96875 50.515625 8.265625 
Q 44.046875 -1.421875 31.78125 -1.421875 
Q 19.53125 -1.421875 13.0625 8.265625 
Q 6.59375 17.96875 6.59375 36.375 
Q 6.59375 54.828125 13.0625 64.515625 
Q 19.53125 74.21875 31.78125 74.21875 
z
" id="DejaVuSans-48"/>
      </defs>
      <g transform="translate(50.519744 254.356563)scale(0.1 -0.1)">
       <use xlink:href="#DejaVuSans-48"/>
      </g>
     </g>
    </g>
    <g id="xtick_2">
     <g id="line2d_2">
      <g>
       <use style="stroke:#000000;stroke-width:0.8;" x="114.573722" xlink:href="#m0ba25dcd1d" y="239.758125"/>
      </g>
     </g>
     <g id="text_2">
      <!-- 10 -->
      <defs>
       <path d="M 12.40625 8.296875 
L 28.515625 8.296875 
L 28.515625 63.921875 
L 10.984375 60.40625 
L 10.984375 69.390625 
L 28.421875 72.90625 
L 38.28125 72.90625 
L 38.28125 8.296875 
L 54.390625 8.296875 
L 54.390625 0 
L 12.40625 0 
z
" id="DejaVuSans-49"/>
      </defs>
      <g transform="translate(108.211222 254.356563)scale(0.1 -0.1)">
       <use xlink:href="#DejaVuSans-49"/>
       <use x="63.623047" xlink:href="#DejaVuSans-48"/>
      </g>
     </g>
    </g>
    <g id="xtick_3">
     <g id="line2d_3">
      <g>
       <use style="stroke:#000000;stroke-width:0.8;" x="175.446449" xlink:href="#m0ba25dcd1d" y="239.758125"/>
      </g>
     </g>
     <g id="text_3">
      <!-- 20 -->
      <defs>
       <path d="M 19.1875 8.296875 
L 53.609375 8.296875 
L 53.609375 0 
L 7.328125 0 
L 7.328125 8.296875 
Q 12.9375 14.109375 22.625 23.890625 
Q 32.328125 33.6875 34.8125 36.53125 
Q 39.546875 41.84375 41.421875 45.53125 
Q 43.3125 49.21875 43.3125 52.78125 
Q 43.3125 58.59375 39.234375 62.25 
Q 35.15625 65.921875 28.609375 65.921875 
Q 23.96875 65.921875 18.8125 64.3125 
Q 13.671875 62.703125 7.8125 59.421875 
L 7.8125 69.390625 
Q 13.765625 71.78125 18.9375 73 
Q 24.125 74.21875 28.421875 74.21875 
Q 39.75 74.21875 46.484375 68.546875 
Q 53.21875 62.890625 53.21875 53.421875 
Q 53.21875 48.921875 51.53125 44.890625 
Q 49.859375 40.875 45.40625 35.40625 
Q 44.1875 33.984375 37.640625 27.21875 
Q 31.109375 20.453125 19.1875 8.296875 
z
" id="DejaVuSans-50"/>
      </defs>
      <g transform="translate(169.083949 254.356563)scale(0.1 -0.1)">
       <use xlink:href="#DejaVuSans-50"/>
       <use x="63.623047" xlink:href="#DejaVuSans-48"/>
      </g>
     </g>
    </g>
    <g id="xtick_4">
     <g id="line2d_4">
      <g>
       <use style="stroke:#000000;stroke-width:0.8;" x="236.319176" xlink:href="#m0ba25dcd1d" y="239.758125"/>
      </g>
     </g>
     <g id="text_4">
      <!-- 30 -->
      <defs>
       <path d="M 40.578125 39.3125 
Q 47.65625 37.796875 51.625 33 
Q 55.609375 28.21875 55.609375 21.1875 
Q 55.609375 10.40625 48.1875 4.484375 
Q 40.765625 -1.421875 27.09375 -1.421875 
Q 22.515625 -1.421875 17.65625 -0.515625 
Q 12.796875 0.390625 7.625 2.203125 
L 7.625 11.71875 
Q 11.71875 9.328125 16.59375 8.109375 
Q 21.484375 6.890625 26.8125 6.890625 
Q 36.078125 6.890625 40.9375 10.546875 
Q 45.796875 14.203125 45.796875 21.1875 
Q 45.796875 27.640625 41.28125 31.265625 
Q 36.765625 34.90625 28.71875 34.90625 
L 20.21875 34.90625 
L 20.21875 43.015625 
L 29.109375 43.015625 
Q 36.375 43.015625 40.234375 45.921875 
Q 44.09375 48.828125 44.09375 54.296875 
Q 44.09375 59.90625 40.109375 62.90625 
Q 36.140625 65.921875 28.71875 65.921875 
Q 24.65625 65.921875 20.015625 65.03125 
Q 15.375 64.15625 9.8125 62.3125 
L 9.8125 71.09375 
Q 15.4375 72.65625 20.34375 73.4375 
Q 25.25 74.21875 29.59375 74.21875 
Q 40.828125 74.21875 47.359375 69.109375 
Q 53.90625 64.015625 53.90625 55.328125 
Q 53.90625 49.265625 50.4375 45.09375 
Q 46.96875 40.921875 40.578125 39.3125 
z
" id="DejaVuSans-51"/>
      </defs>
      <g transform="translate(229.956676 254.356563)scale(0.1 -0.1)">
       <use xlink:href="#DejaVuSans-51"/>
       <use x="63.623047" xlink:href="#DejaVuSans-48"/>
      </g>
     </g>
    </g>
    <g id="xtick_5">
     <g id="line2d_5">
      <g>
       <use style="stroke:#000000;stroke-width:0.8;" x="297.191903" xlink:href="#m0ba25dcd1d" y="239.758125"/>
      </g>
     </g>
     <g id="text_5">
      <!-- 40 -->
      <defs>
       <path d="M 37.796875 64.3125 
L 12.890625 25.390625 
L 37.796875 25.390625 
z
M 35.203125 72.90625 
L 47.609375 72.90625 
L 47.609375 25.390625 
L 58.015625 25.390625 
L 58.015625 17.1875 
L 47.609375 17.1875 
L 47.609375 0 
L 37.796875 0 
L 37.796875 17.1875 
L 4.890625 17.1875 
L 4.890625 26.703125 
z
" id="DejaVuSans-52"/>
      </defs>
      <g transform="translate(290.829403 254.356563)scale(0.1 -0.1)">
       <use xlink:href="#DejaVuSans-52"/>
       <use x="63.623047" xlink:href="#DejaVuSans-48"/>
      </g>
     </g>
    </g>
    <g id="xtick_6">
     <g id="line2d_6">
      <g>
       <use style="stroke:#000000;stroke-width:0.8;" x="358.064631" xlink:href="#m0ba25dcd1d" y="239.758125"/>
      </g>
     </g>
     <g id="text_6">
      <!-- 50 -->
      <defs>
       <path d="M 10.796875 72.90625 
L 49.515625 72.90625 
L 49.515625 64.59375 
L 19.828125 64.59375 
L 19.828125 46.734375 
Q 21.96875 47.46875 24.109375 47.828125 
Q 26.265625 48.1875 28.421875 48.1875 
Q 40.625 48.1875 47.75 41.5 
Q 54.890625 34.8125 54.890625 23.390625 
Q 54.890625 11.625 47.5625 5.09375 
Q 40.234375 -1.421875 26.90625 -1.421875 
Q 22.3125 -1.421875 17.546875 -0.640625 
Q 12.796875 0.140625 7.71875 1.703125 
L 7.71875 11.625 
Q 12.109375 9.234375 16.796875 8.0625 
Q 21.484375 6.890625 26.703125 6.890625 
Q 35.15625 6.890625 40.078125 11.328125 
Q 45.015625 15.765625 45.015625 23.390625 
Q 45.015625 31 40.078125 35.4375 
Q 35.15625 39.890625 26.703125 39.890625 
Q 22.75 39.890625 18.8125 39.015625 
Q 14.890625 38.140625 10.796875 36.28125 
z
" id="DejaVuSans-53"/>
      </defs>
      <g transform="translate(351.702131 254.356563)scale(0.1 -0.1)">
       <use xlink:href="#DejaVuSans-53"/>
       <use x="63.623047" xlink:href="#DejaVuSans-48"/>
      </g>
     </g>
    </g>
   </g>
   <g id="matplotlib.axis_2">
    <g id="ytick_1">
     <g id="line2d_7">
      <defs>
       <path d="M 0 0 
L -3.5 0 
" id="m9a6970da1e" style="stroke:#000000;stroke-width:0.8;"/>
      </defs>
      <g>
       <use style="stroke:#000000;stroke-width:0.8;" x="38.482813" xlink:href="#m9a6970da1e" y="218.284991"/>
      </g>
     </g>
     <g id="text_7">
      <!-- −1.5 -->
      <defs>
       <path d="M 10.59375 35.5 
L 73.1875 35.5 
L 73.1875 27.203125 
L 10.59375 27.203125 
z
" id="DejaVuSans-8722"/>
       <path d="M 10.6875 12.40625 
L 21 12.40625 
L 21 0 
L 10.6875 0 
z
" id="DejaVuSans-46"/>
      </defs>
      <g transform="translate(7.2 222.08421)scale(0.1 -0.1)">
       <use xlink:href="#DejaVuSans-8722"/>
       <use x="83.789062" xlink:href="#DejaVuSans-49"/>
       <use x="147.412109" xlink:href="#DejaVuSans-46"/>
       <use x="179.199219" xlink:href="#DejaVuSans-53"/>
      </g>
     </g>
    </g>
    <g id="ytick_2">
     <g id="line2d_8">
      <g>
       <use style="stroke:#000000;stroke-width:0.8;" x="38.482813" xlink:href="#m9a6970da1e" y="192.195451"/>
      </g>
     </g>
     <g id="text_8">
      <!-- −1.0 -->
      <g transform="translate(7.2 195.994669)scale(0.1 -0.1)">
       <use xlink:href="#DejaVuSans-8722"/>
       <use x="83.789062" xlink:href="#DejaVuSans-49"/>
       <use x="147.412109" xlink:href="#DejaVuSans-46"/>
       <use x="179.199219" xlink:href="#DejaVuSans-48"/>
      </g>
     </g>
    </g>
    <g id="ytick_3">
     <g id="line2d_9">
      <g>
       <use style="stroke:#000000;stroke-width:0.8;" x="38.482813" xlink:href="#m9a6970da1e" y="166.10591"/>
      </g>
     </g>
     <g id="text_9">
      <!-- −0.5 -->
      <g transform="translate(7.2 169.905129)scale(0.1 -0.1)">
       <use xlink:href="#DejaVuSans-8722"/>
       <use x="83.789062" xlink:href="#DejaVuSans-48"/>
       <use x="147.412109" xlink:href="#DejaVuSans-46"/>
       <use x="179.199219" xlink:href="#DejaVuSans-53"/>
      </g>
     </g>
    </g>
    <g id="ytick_4">
     <g id="line2d_10">
      <g>
       <use style="stroke:#000000;stroke-width:0.8;" x="38.482813" xlink:href="#m9a6970da1e" y="140.016369"/>
      </g>
     </g>
     <g id="text_10">
      <!-- 0.0 -->
      <g transform="translate(15.579688 143.815588)scale(0.1 -0.1)">
       <use xlink:href="#DejaVuSans-48"/>
       <use x="63.623047" xlink:href="#DejaVuSans-46"/>
       <use x="95.410156" xlink:href="#DejaVuSans-48"/>
      </g>
     </g>
    </g>
    <g id="ytick_5">
     <g id="line2d_11">
      <g>
       <use style="stroke:#000000;stroke-width:0.8;" x="38.482813" xlink:href="#m9a6970da1e" y="113.926829"/>
      </g>
     </g>
     <g id="text_11">
      <!-- 0.5 -->
      <g transform="translate(15.579688 117.726048)scale(0.1 -0.1)">
       <use xlink:href="#DejaVuSans-48"/>
       <use x="63.623047" xlink:href="#DejaVuSans-46"/>
       <use x="95.410156" xlink:href="#DejaVuSans-53"/>
      </g>
     </g>
    </g>
    <g id="ytick_6">
     <g id="line2d_12">
      <g>
       <use style="stroke:#000000;stroke-width:0.8;" x="38.482813" xlink:href="#m9a6970da1e" y="87.837288"/>
      </g>
     </g>
     <g id="text_12">
      <!-- 1.0 -->
      <g transform="translate(15.579688 91.636507)scale(0.1 -0.1)">
       <use xlink:href="#DejaVuSans-49"/>
       <use x="63.623047" xlink:href="#DejaVuSans-46"/>
       <use x="95.410156" xlink:href="#DejaVuSans-48"/>
      </g>
     </g>
    </g>
    <g id="ytick_7">
     <g id="line2d_13">
      <g>
       <use style="stroke:#000000;stroke-width:0.8;" x="38.482813" xlink:href="#m9a6970da1e" y="61.747748"/>
      </g>
     </g>
     <g id="text_13">
      <!-- 1.5 -->
      <g transform="translate(15.579688 65.546966)scale(0.1 -0.1)">
       <use xlink:href="#DejaVuSans-49"/>
       <use x="63.623047" xlink:href="#DejaVuSans-46"/>
       <use x="95.410156" xlink:href="#DejaVuSans-53"/>
      </g>
     </g>
    </g>
    <g id="ytick_8">
     <g id="line2d_14">
      <g>
       <use style="stroke:#000000;stroke-width:0.8;" x="38.482813" xlink:href="#m9a6970da1e" y="35.658207"/>
      </g>
     </g>
     <g id="text_14">
      <!-- 2.0 -->
      <g transform="translate(15.579688 39.457426)scale(0.1 -0.1)">
       <use xlink:href="#DejaVuSans-50"/>
       <use x="63.623047" xlink:href="#DejaVuSans-46"/>
       <use x="95.410156" xlink:href="#DejaVuSans-48"/>
      </g>
     </g>
    </g>
   </g>
   <g id="line2d_15">
    <path clip-path="url(#p8751064d2e)" d="M 53.700994 111.001566 
L 59.788267 111.053797 
L 65.87554 111.065538 
L 71.962812 110.998801 
L 78.050085 110.901122 
L 84.137358 111.020037 
L 90.224631 111.232613 
L 96.311903 111.041951 
L 102.399176 110.951683 
L 108.486449 110.901277 
L 114.573722 110.453893 
L 120.660994 108.963346 
L 126.748267 104.092534 
L 132.83554 92.56101 
L 138.922812 79.640635 
L 145.010085 67.8826 
L 151.097358 58.268082 
L 157.184631 48.926041 
L 163.271903 39.750821 
L 169.359176 36.62159 
L 175.446449 34.000739 
L 181.533722 32.906016 
L 187.620994 32.201761 
L 193.708267 33.080767 
L 199.79554 32.874243 
L 205.882812 33.419409 
L 211.970085 33.054679 
L 218.057358 32.797747 
L 224.144631 33.408038 
L 230.231903 34.731878 
L 236.319176 37.947302 
L 242.406449 40.031073 
L 248.493722 44.27788 
L 254.580994 49.020489 
L 260.668267 56.889977 
L 266.75554 66.853052 
L 272.842812 77.315636 
L 278.930085 85.768806 
L 285.017358 93.019089 
L 291.104631 98.635958 
L 297.191903 103.543714 
L 303.279176 107.272379 
L 309.366449 109.238746 
L 315.453722 110.418777 
L 321.540994 110.58361 
L 327.628267 110.015277 
L 333.71554 109.505591 
L 339.802812 109.095358 
L 345.890085 108.984793 
L 351.977358 109.08362 
L 358.064631 109.484405 
" style="fill:none;stroke:#1f77b4;stroke-linecap:square;stroke-width:1.5;"/>
   </g>
   <g id="line2d_16">
    <path clip-path="url(#p8751064d2e)" d="M 53.700994 227.135708 
L 59.788267 227.129451 
L 65.87554 227.161591 
L 71.962812 227.097672 
L 78.050085 227.151887 
L 84.137358 227.018986 
L 90.224631 226.818669 
L 96.311903 226.716664 
L 102.399176 226.355946 
L 108.486449 226.08717 
L 114.573722 225.079959 
L 120.660994 224.258242 
L 126.748267 223.928315 
L 132.83554 222.608916 
L 138.922812 217.306375 
L 145.010085 210.679788 
L 151.097358 202.052079 
L 157.184631 186.489878 
L 163.271903 170.175201 
L 169.359176 160.311057 
L 175.446449 147.905377 
L 181.533722 142.526131 
L 187.620994 139.66056 
L 193.708267 136.96311 
L 199.79554 136.631721 
L 205.882812 136.052585 
L 211.970085 137.632881 
L 218.057358 139.197732 
L 224.144631 142.167765 
L 230.231903 148.208746 
L 236.319176 156.270258 
L 242.406449 166.356579 
L 248.493722 177.149716 
L 254.580994 188.722671 
L 260.668267 200.605937 
L 266.75554 210.366817 
L 272.842812 217.167993 
L 278.930085 222.741917 
L 285.017358 224.480055 
L 291.104631 225.567675 
L 297.191903 225.424131 
L 303.279176 227.007609 
L 309.366449 229.027206 
L 315.453722 228.996994 
L 321.540994 229.874489 
L 327.628267 227.156739 
L 333.71554 227.423686 
L 339.802812 226.642251 
L 345.890085 226.688225 
L 351.977358 226.486969 
L 358.064631 226.215431 
" style="fill:none;stroke:#ff7f0e;stroke-linecap:square;stroke-width:1.5;"/>
   </g>
   <g id="line2d_17">
    <path clip-path="url(#p8751064d2e)" d="M 53.700994 179.084205 
L 59.788267 179.031973 
L 65.87554 179.017676 
L 71.962812 178.86594 
L 78.050085 178.863539 
L 84.137358 179.04841 
L 90.224631 179.237142 
L 96.311903 179.09245 
L 102.399176 179.236516 
L 108.486449 178.827797 
L 114.573722 178.265464 
L 120.660994 177.201167 
L 126.748267 175.594624 
L 132.83554 173.647091 
L 138.922812 170.753135 
L 145.010085 168.329677 
L 151.097358 165.94452 
L 157.184631 160.262531 
L 163.271903 156.855342 
L 169.359176 155.211282 
L 175.446449 153.324122 
L 181.533722 152.251112 
L 187.620994 151.559948 
L 193.708267 153.090882 
L 199.79554 153.528873 
L 205.882812 154.98493 
L 211.970085 154.409238 
L 218.057358 154.443625 
L 224.144631 155.281933 
L 230.231903 157.939154 
L 236.319176 160.059397 
L 242.406449 162.134456 
L 248.493722 164.533701 
L 254.580994 167.06924 
L 260.668267 170.326831 
L 266.75554 173.238061 
L 272.842812 174.717388 
L 278.930085 175.287236 
L 285.017358 175.178599 
L 291.104631 175.336179 
L 297.191903 174.375095 
L 303.279176 174.923601 
L 309.366449 174.723913 
L 315.453722 174.483678 
L 321.540994 174.453728 
L 327.628267 174.845646 
L 333.71554 174.870586 
L 339.802812 174.336585 
L 345.890085 174.411464 
L 351.977358 174.531841 
L 358.064631 174.671315 
" style="fill:none;stroke:#2ca02c;stroke-linecap:square;stroke-width:1.5;"/>
   </g>
   <g id="line2d_18">
    <path clip-path="url(#p8751064d2e)" d="M 53.700994 107.54178 
L 59.788267 107.549083 
L 65.87554 107.560774 
L 71.962812 107.565728 
L 78.050085 107.564111 
L 84.137358 107.55237 
L 90.224631 107.552162 
L 96.311903 107.551222 
L 102.399176 107.546526 
L 108.486449 107.515795 
L 114.573722 107.452293 
L 120.660994 106.956487 
L 126.748267 105.24115 
L 132.83554 100.337048 
L 138.922812 96.167052 
L 145.010085 91.195638 
L 151.097358 87.776342 
L 157.184631 85.103521 
L 163.271903 84.656399 
L 169.359176 84.391747 
L 175.446449 83.201959 
L 181.533722 83.00629 
L 187.620994 82.664513 
L 193.708267 82.348886 
L 199.79554 82.275835 
L 205.882812 82.264614 
L 211.970085 82.239516 
L 218.057358 82.245829 
L 224.144631 82.211705 
L 230.231903 82.389218 
L 236.319176 83.542324 
L 242.406449 83.298597 
L 248.493722 84.333046 
L 254.580994 83.429041 
L 260.668267 85.990147 
L 266.75554 91.195429 
L 272.842812 96.368671 
L 278.930085 99.449953 
L 285.017358 102.165874 
L 291.104631 104.372942 
L 297.191903 105.794303 
L 303.279176 106.445446 
L 309.366449 106.957738 
L 315.453722 107.403399 
L 321.540994 107.600325 
L 327.628267 107.659389 
L 333.71554 107.516106 
L 339.802812 107.328523 
L 345.890085 107.19244 
L 351.977358 107.147461 
L 358.064631 107.141253 
" style="fill:none;stroke:#d62728;stroke-linecap:square;stroke-width:1.5;"/>
   </g>
   <g id="line2d_19">
    <path clip-path="url(#p8751064d2e)" d="M 53.700994 177.468686 
L 59.788267 177.466027 
L 65.87554 177.475731 
L 71.962812 177.48554 
L 78.050085 177.495352 
L 84.137358 177.500882 
L 90.224631 177.499526 
L 96.311903 177.493993 
L 102.399176 177.48935 
L 108.486449 177.464565 
L 114.573722 177.397881 
L 120.660994 177.136778 
L 126.748267 176.371832 
L 132.83554 173.226059 
L 138.922812 171.611794 
L 145.010085 168.418853 
L 151.097358 163.729205 
L 157.184631 154.512814 
L 163.271903 147.056997 
L 169.359176 143.261908 
L 175.446449 138.707562 
L 181.533722 136.301897 
L 187.620994 134.861754 
L 193.708267 133.645982 
L 199.79554 133.371207 
L 205.882812 133.327376 
L 211.970085 133.444831 
L 218.057358 133.7374 
L 224.144631 134.669057 
L 230.231903 136.62379 
L 236.319176 140.584182 
L 242.406449 144.416997 
L 248.493722 151.313193 
L 254.580994 158.284162 
L 260.668267 165.712897 
L 266.75554 169.74227 
L 272.842812 174.514882 
L 278.930085 177.151333 
L 285.017358 178.176079 
L 291.104631 178.69735 
L 297.191903 178.577023 
L 303.279176 179.275545 
L 309.366449 179.469128 
L 315.453722 179.293338 
L 321.540994 179.346717 
L 327.628267 178.746605 
L 333.71554 178.566433 
L 339.802812 178.011246 
L 345.890085 177.742939 
L 351.977358 177.583848 
L 358.064631 177.470201 
" style="fill:none;stroke:#9467bd;stroke-linecap:square;stroke-width:1.5;"/>
   </g>
   <g id="line2d_20">
    <path clip-path="url(#p8751064d2e)" d="M 53.700994 145.023944 
L 59.788267 145.00782 
L 65.87554 145.002863 
L 71.962812 145.004168 
L 78.050085 145.010273 
L 84.137358 144.974426 
L 90.224631 144.98794 
L 96.311903 145.010899 
L 102.399176 144.990392 
L 108.486449 145.008133 
L 114.573722 144.967277 
L 120.660994 144.879721 
L 126.748267 144.370818 
L 132.83554 142.733647 
L 138.922812 142.244521 
L 145.010085 141.41096 
L 151.097358 139.924534 
L 157.184631 137.770008 
L 163.271903 136.451182 
L 169.359176 135.822163 
L 175.446449 135.562206 
L 181.533722 135.448717 
L 187.620994 135.486651 
L 193.708267 135.728188 
L 199.79554 135.906901 
L 205.882812 136.022948 
L 211.970085 136.163936 
L 218.057358 136.246639 
L 224.144631 136.330126 
L 230.231903 136.287339 
L 236.319176 136.389506 
L 242.406449 137.036631 
L 248.493722 137.517931 
L 254.580994 137.925188 
L 260.668267 138.786822 
L 266.75554 139.509919 
L 272.842812 140.447473 
L 278.930085 141.017321 
L 285.017358 141.54339 
L 291.104631 141.610701 
L 297.191903 141.51991 
L 303.279176 141.788371 
L 309.366449 142.05892 
L 315.453722 142.197351 
L 321.540994 142.376586 
L 327.628267 142.308231 
L 333.71554 142.447862 
L 339.802812 142.423808 
L 345.890085 142.46242 
L 351.977358 142.462681 
L 358.064631 142.489554 
" style="fill:none;stroke:#8c564b;stroke-linecap:square;stroke-width:1.5;"/>
   </g>
   <g id="line2d_21">
    <path clip-path="url(#p8751064d2e)" d="M 53.700994 107.683707 
L 59.788267 107.678072 
L 65.87554 107.672019 
L 71.962812 107.665861 
L 78.050085 107.655424 
L 84.137358 107.62756 
L 90.224631 107.610915 
L 96.311903 107.603192 
L 102.399176 107.576268 
L 108.486449 107.527533 
L 114.573722 107.383572 
L 120.660994 106.430573 
L 126.748267 102.79844 
L 132.83554 91.487422 
L 138.922812 83.113097 
L 145.010085 75.648826 
L 151.097358 67.435633 
L 157.184631 62.319262 
L 163.271903 58.232023 
L 169.359176 56.460284 
L 175.446449 47.933336 
L 181.533722 47.605859 
L 187.620994 47.470302 
L 193.708267 48.192769 
L 199.79554 48.491129 
L 205.882812 48.590061 
L 211.970085 48.541848 
L 218.057358 48.353898 
L 224.144631 48.610986 
L 230.231903 53.219288 
L 236.319176 57.371647 
L 242.406449 58.668764 
L 248.493722 61.028826 
L 254.580994 61.946235 
L 260.668267 68.237781 
L 266.75554 76.028067 
L 272.842812 82.100406 
L 278.930085 87.954745 
L 285.017358 94.392442 
L 291.104631 98.158101 
L 297.191903 102.041581 
L 303.279176 103.948468 
L 309.366449 106.389768 
L 315.453722 106.680928 
L 321.540994 106.844458 
L 327.628267 106.615339 
L 333.71554 106.52987 
L 339.802812 106.383614 
L 345.890085 106.251443 
L 351.977358 106.19728 
L 358.064631 106.23824 
" style="fill:none;stroke:#e377c2;stroke-linecap:square;stroke-width:1.5;"/>
   </g>
   <g id="line2d_22">
    <path clip-path="url(#p8751064d2e)" d="M 53.700994 206.353412 
L 59.788267 206.362593 
L 65.87554 206.376838 
L 71.962812 206.382629 
L 78.050085 206.388158 
L 84.137358 206.392021 
L 90.224631 206.384507 
L 96.311903 206.365616 
L 102.399176 206.344642 
L 108.486449 206.308116 
L 114.573722 206.225624 
L 120.660994 206.0634 
L 126.748267 205.251386 
L 132.83554 203.432323 
L 138.922812 200.756162 
L 145.010085 194.479588 
L 151.097358 187.891303 
L 157.184631 171.585393 
L 163.271903 160.409051 
L 169.359176 152.269792 
L 175.446449 141.271328 
L 181.533722 138.009823 
L 187.620994 135.271047 
L 193.708267 132.873001 
L 199.79554 132.581528 
L 205.882812 132.545786 
L 211.970085 133.089231 
L 218.057358 133.90719 
L 224.144631 136.393315 
L 230.231903 140.368996 
L 236.319176 145.298092 
L 242.406449 153.73545 
L 248.493722 163.869672 
L 254.580994 173.700001 
L 260.668267 184.9986 
L 266.75554 191.408955 
L 272.842812 197.636946 
L 278.930085 202.045659 
L 285.017358 203.398298 
L 291.104631 204.362515 
L 297.191903 204.604681 
L 303.279176 205.674505 
L 309.366449 211.953735 
L 315.453722 211.825063 
L 321.540994 212.141947 
L 327.628267 204.624667 
L 333.71554 204.783239 
L 339.802812 204.300269 
L 345.890085 204.237339 
L 351.977358 204.186775 
L 358.064631 204.138979 
" style="fill:none;stroke:#7f7f7f;stroke-linecap:square;stroke-width:1.5;"/>
   </g>
   <g id="line2d_23">
    <path clip-path="url(#p8751064d2e)" d="M 53.700994 165.87199 
L 59.788267 165.882322 
L 65.87554 165.890255 
L 71.962812 165.891872 
L 78.050085 165.889367 
L 84.137358 165.86787 
L 90.224631 165.884409 
L 96.311903 165.891558 
L 102.399176 165.895002 
L 108.486449 165.862859 
L 114.573722 165.802227 
L 120.660994 165.744413 
L 126.748267 164.513405 
L 132.83554 162.47508 
L 138.922812 161.42889 
L 145.010085 158.545631 
L 151.097358 156.080952 
L 157.184631 149.605528 
L 163.271903 147.119195 
L 169.359176 145.611793 
L 175.446449 146.418586 
L 181.533722 146.218584 
L 187.620994 146.107599 
L 193.708267 146.283651 
L 199.79554 146.610971 
L 205.882812 146.956761 
L 211.970085 147.389743 
L 218.057358 147.674015 
L 224.144631 147.98088 
L 230.231903 147.304691 
L 236.319176 147.262739 
L 242.406449 148.922399 
L 248.493722 149.594257 
L 254.580994 151.787866 
L 260.668267 154.041062 
L 266.75554 154.927898 
L 272.842812 156.971127 
L 278.930085 158.465379 
L 285.017358 157.945415 
L 291.104631 157.970617 
L 297.191903 157.807349 
L 303.279176 158.700238 
L 309.366449 163.845043 
L 315.453722 163.855791 
L 321.540994 164.142777 
L 327.628267 160.177218 
L 333.71554 160.356088 
L 339.802812 160.275941 
L 345.890085 160.334851 
L 351.977358 160.392144 
L 358.064631 160.462168 
" style="fill:none;stroke:#bcbd22;stroke-linecap:square;stroke-width:1.5;"/>
   </g>
   <g id="line2d_24">
    <path clip-path="url(#p8751064d2e)" d="M 53.700994 107.721744 
L 59.788267 106.169625 
L 65.87554 107.722058 
L 71.962812 107.92973 
L 78.050085 107.444779 
L 84.137358 107.41128 
L 90.224631 107.781595 
L 96.311903 107.765261 
L 102.399176 106.00975 
L 108.486449 107.041279 
L 114.573722 106.356167 
L 120.660994 102.14855 
L 126.748267 97.476644 
L 132.83554 84.483794 
L 138.922812 75.871423 
L 145.010085 79.286131 
L 151.097358 68.223431 
L 157.184631 56.613432 
L 163.271903 46.70869 
L 169.359176 41.97897 
L 175.446449 38.444622 
L 181.533722 35.045415 
L 187.620994 35.308132 
L 193.708267 34.979518 
L 199.79554 37.123917 
L 205.882812 38.84327 
L 211.970085 38.873849 
L 218.057358 38.808207 
L 224.144631 39.92327 
L 230.231903 40.734295 
L 236.319176 43.569284 
L 242.406449 46.343494 
L 248.493722 48.915187 
L 254.580994 55.32414 
L 260.668267 58.160068 
L 266.75554 69.005177 
L 272.842812 78.864312 
L 278.930085 87.786624 
L 285.017358 95.300409 
L 291.104631 98.755865 
L 297.191903 104.776234 
L 303.279176 109.182708 
L 309.366449 113.25951 
L 315.453722 116.589997 
L 321.540994 117.171325 
L 327.628267 116.810766 
L 333.71554 116.815828 
L 339.802812 113.471253 
L 345.890085 116.254225 
L 351.977358 116.170424 
L 358.064631 116.18681 
" style="fill:none;stroke:#17becf;stroke-linecap:square;stroke-width:1.5;"/>
   </g>
   <g id="line2d_25">
    <path clip-path="url(#p8751064d2e)" d="M 53.700994 218.162478 
L 59.788267 216.506677 
L 65.87554 218.453528 
L 71.962812 218.548916 
L 78.050085 218.263494 
L 84.137358 217.430244 
L 90.224631 218.303098 
L 96.311903 218.310401 
L 102.399176 217.107414 
L 108.486449 218.279772 
L 114.573722 218.530964 
L 120.660994 217.778751 
L 126.748267 214.177717 
L 132.83554 215.762862 
L 138.922812 207.247234 
L 145.010085 210.575842 
L 151.097358 203.697915 
L 157.184631 188.656354 
L 163.271903 174.517961 
L 169.359176 165.741596 
L 175.446449 153.045538 
L 181.533722 148.808284 
L 187.620994 144.12495 
L 193.708267 142.198029 
L 199.79554 141.545112 
L 205.882812 141.170779 
L 211.970085 141.607779 
L 218.057358 144.280861 
L 224.144631 144.521772 
L 230.231903 149.5833 
L 236.319176 155.895977 
L 242.406449 164.500621 
L 248.493722 174.338569 
L 254.580994 182.385001 
L 260.668267 201.027961 
L 266.75554 207.966785 
L 272.842812 217.908207 
L 278.930085 221.271878 
L 285.017358 224.444787 
L 291.104631 224.379823 
L 297.191903 225.233002 
L 303.279176 219.528994 
L 309.366449 222.736126 
L 315.453722 216.83337 
L 321.540994 217.30872 
L 327.628267 213.459833 
L 333.71554 213.723758 
L 339.802812 218.925283 
L 345.890085 214.925127 
L 351.977358 214.243041 
L 358.064631 214.205471 
" style="fill:none;stroke:#1f77b4;stroke-linecap:square;stroke-width:1.5;"/>
   </g>
   <g id="line2d_26">
    <path clip-path="url(#p8751064d2e)" d="M 53.700994 179.407766 
L 59.788267 176.898058 
L 65.87554 179.617111 
L 71.962812 179.613195 
L 78.050085 179.047732 
L 84.137358 178.712272 
L 90.224631 179.463651 
L 96.311903 179.481286 
L 102.399176 177.611711 
L 108.486449 179.255665 
L 114.573722 179.524386 
L 120.660994 175.859799 
L 126.748267 173.511061 
L 132.83554 172.74643 
L 138.922812 169.426692 
L 145.010085 172.128733 
L 151.097358 165.740134 
L 157.184631 158.851401 
L 163.271903 154.269659 
L 169.359176 153.281806 
L 175.446449 152.388238 
L 181.533722 152.951459 
L 187.620994 151.076613 
L 193.708267 152.879766 
L 199.79554 152.840944 
L 205.882812 151.302131 
L 211.970085 149.72507 
L 218.057358 153.009274 
L 224.144631 148.855976 
L 230.231903 151.937828 
L 236.319176 154.390714 
L 242.406449 155.875732 
L 248.493722 156.263214 
L 254.580994 156.376181 
L 260.668267 166.796396 
L 266.75554 165.516444 
L 272.842812 168.115116 
L 278.930085 168.704794 
L 285.017358 169.118259 
L 291.104631 169.825027 
L 297.191903 171.006152 
L 303.279176 162.650351 
L 309.366449 167.078997 
L 315.453722 169.60958 
L 321.540994 170.523705 
L 327.628267 168.317311 
L 333.71554 168.354253 
L 339.802812 165.330424 
L 345.890085 168.104682 
L 351.977358 167.680362 
L 358.064631 167.639141 
" style="fill:none;stroke:#ff7f0e;stroke-linecap:square;stroke-width:1.5;"/>
   </g>
   <g id="patch_3">
    <path d="M 38.482813 239.758125 
L 38.482813 22.318125 
" style="fill:none;stroke:#000000;stroke-linecap:square;stroke-linejoin:miter;stroke-width:0.8;"/>
   </g>
   <g id="patch_4">
    <path d="M 373.282813 239.758125 
L 373.282813 22.318125 
" style="fill:none;stroke:#000000;stroke-linecap:square;stroke-linejoin:miter;stroke-width:0.8;"/>
   </g>
   <g id="patch_5">
    <path d="M 38.482813 239.758125 
L 373.282812 239.758125 
" style="fill:none;stroke:#000000;stroke-linecap:square;stroke-linejoin:miter;stroke-width:0.8;"/>
   </g>
   <g id="patch_6">
    <path d="M 38.482813 22.318125 
L 373.282812 22.318125 
" style="fill:none;stroke:#000000;stroke-linecap:square;stroke-linejoin:miter;stroke-width:0.8;"/>
   </g>
   <g id="text_15">
    <!-- 3.0 -->
    <g transform="translate(196.340937 16.318125)scale(0.12 -0.12)">
     <use xlink:href="#DejaVuSans-51"/>
     <use x="63.623047" xlink:href="#DejaVuSans-46"/>
     <use x="95.410156" xlink:href="#DejaVuSans-48"/>
    </g>
   </g>
   <g id="legend_1">
    <g id="patch_7">
     <path d="M 237.160938 118.386875 
L 366.282812 118.386875 
Q 368.282812 118.386875 368.282812 116.386875 
L 368.282812 29.318125 
Q 368.282812 27.318125 366.282812 27.318125 
L 237.160938 27.318125 
Q 235.160938 27.318125 235.160938 29.318125 
L 235.160938 116.386875 
Q 235.160938 118.386875 237.160938 118.386875 
z
" style="fill:#ffffff;opacity:0.5;stroke:#cccccc;stroke-linejoin:miter;"/>
    </g>
    <g id="line2d_27">
     <path d="M 239.160938 35.416562 
L 259.160938 35.416562 
" style="fill:none;stroke:#1f77b4;stroke-linecap:square;stroke-width:1.5;"/>
    </g>
    <g id="line2d_28"/>
    <g id="text_16">
     <!-- ch3 -->
     <defs>
      <path d="M 48.78125 52.59375 
L 48.78125 44.1875 
Q 44.96875 46.296875 41.140625 47.34375 
Q 37.3125 48.390625 33.40625 48.390625 
Q 24.65625 48.390625 19.8125 42.84375 
Q 14.984375 37.3125 14.984375 27.296875 
Q 14.984375 17.28125 19.8125 11.734375 
Q 24.65625 6.203125 33.40625 6.203125 
Q 37.3125 6.203125 41.140625 7.25 
Q 44.96875 8.296875 48.78125 10.40625 
L 48.78125 2.09375 
Q 45.015625 0.34375 40.984375 -0.53125 
Q 36.96875 -1.421875 32.421875 -1.421875 
Q 20.0625 -1.421875 12.78125 6.34375 
Q 5.515625 14.109375 5.515625 27.296875 
Q 5.515625 40.671875 12.859375 48.328125 
Q 20.21875 56 33.015625 56 
Q 37.15625 56 41.109375 55.140625 
Q 45.0625 54.296875 48.78125 52.59375 
z
" id="DejaVuSans-99"/>
      <path d="M 54.890625 33.015625 
L 54.890625 0 
L 45.90625 0 
L 45.90625 32.71875 
Q 45.90625 40.484375 42.875 44.328125 
Q 39.84375 48.1875 33.796875 48.1875 
Q 26.515625 48.1875 22.3125 43.546875 
Q 18.109375 38.921875 18.109375 30.90625 
L 18.109375 0 
L 9.078125 0 
L 9.078125 75.984375 
L 18.109375 75.984375 
L 18.109375 46.1875 
Q 21.34375 51.125 25.703125 53.5625 
Q 30.078125 56 35.796875 56 
Q 45.21875 56 50.046875 50.171875 
Q 54.890625 44.34375 54.890625 33.015625 
z
" id="DejaVuSans-104"/>
     </defs>
     <g transform="translate(267.160938 38.916562)scale(0.1 -0.1)">
      <use xlink:href="#DejaVuSans-99"/>
      <use x="54.980469" xlink:href="#DejaVuSans-104"/>
      <use x="118.359375" xlink:href="#DejaVuSans-51"/>
     </g>
    </g>
    <g id="line2d_29">
     <path d="M 239.160938 50.094687 
L 259.160938 50.094687 
" style="fill:none;stroke:#ff7f0e;stroke-linecap:square;stroke-width:1.5;"/>
    </g>
    <g id="line2d_30"/>
    <g id="text_17">
     <!-- ch4 -->
     <g transform="translate(267.160938 53.594687)scale(0.1 -0.1)">
      <use xlink:href="#DejaVuSans-99"/>
      <use x="54.980469" xlink:href="#DejaVuSans-104"/>
      <use x="118.359375" xlink:href="#DejaVuSans-52"/>
     </g>
    </g>
    <g id="line2d_31">
     <path d="M 239.160938 64.772812 
L 259.160938 64.772812 
" style="fill:none;stroke:#2ca02c;stroke-linecap:square;stroke-width:1.5;"/>
    </g>
    <g id="line2d_32"/>
    <g id="text_18">
     <!-- ch5 -->
     <g transform="translate(267.160938 68.272812)scale(0.1 -0.1)">
      <use xlink:href="#DejaVuSans-99"/>
      <use x="54.980469" xlink:href="#DejaVuSans-104"/>
      <use x="118.359375" xlink:href="#DejaVuSans-53"/>
     </g>
    </g>
    <g id="line2d_33">
     <path d="M 239.160938 79.450938 
L 259.160938 79.450938 
" style="fill:none;stroke:#d62728;stroke-linecap:square;stroke-width:1.5;"/>
    </g>
    <g id="line2d_34"/>
    <g id="text_19">
     <!-- ch9 -->
     <defs>
      <path d="M 10.984375 1.515625 
L 10.984375 10.5 
Q 14.703125 8.734375 18.5 7.8125 
Q 22.3125 6.890625 25.984375 6.890625 
Q 35.75 6.890625 40.890625 13.453125 
Q 46.046875 20.015625 46.78125 33.40625 
Q 43.953125 29.203125 39.59375 26.953125 
Q 35.25 24.703125 29.984375 24.703125 
Q 19.046875 24.703125 12.671875 31.3125 
Q 6.296875 37.9375 6.296875 49.421875 
Q 6.296875 60.640625 12.9375 67.421875 
Q 19.578125 74.21875 30.609375 74.21875 
Q 43.265625 74.21875 49.921875 64.515625 
Q 56.59375 54.828125 56.59375 36.375 
Q 56.59375 19.140625 48.40625 8.859375 
Q 40.234375 -1.421875 26.421875 -1.421875 
Q 22.703125 -1.421875 18.890625 -0.6875 
Q 15.09375 0.046875 10.984375 1.515625 
z
M 30.609375 32.421875 
Q 37.25 32.421875 41.125 36.953125 
Q 45.015625 41.5 45.015625 49.421875 
Q 45.015625 57.28125 41.125 61.84375 
Q 37.25 66.40625 30.609375 66.40625 
Q 23.96875 66.40625 20.09375 61.84375 
Q 16.21875 57.28125 16.21875 49.421875 
Q 16.21875 41.5 20.09375 36.953125 
Q 23.96875 32.421875 30.609375 32.421875 
z
" id="DejaVuSans-57"/>
     </defs>
     <g transform="translate(267.160938 82.950938)scale(0.1 -0.1)">
      <use xlink:href="#DejaVuSans-99"/>
      <use x="54.980469" xlink:href="#DejaVuSans-104"/>
      <use x="118.359375" xlink:href="#DejaVuSans-57"/>
     </g>
    </g>
    <g id="line2d_35">
     <path d="M 239.160938 94.129063 
L 259.160938 94.129063 
" style="fill:none;stroke:#9467bd;stroke-linecap:square;stroke-width:1.5;"/>
    </g>
    <g id="line2d_36"/>
    <g id="text_20">
     <!-- ch10 -->
     <g transform="translate(267.160938 97.629063)scale(0.1 -0.1)">
      <use xlink:href="#DejaVuSans-99"/>
      <use x="54.980469" xlink:href="#DejaVuSans-104"/>
      <use x="118.359375" xlink:href="#DejaVuSans-49"/>
      <use x="181.982422" xlink:href="#DejaVuSans-48"/>
     </g>
    </g>
    <g id="line2d_37">
     <path d="M 239.160938 108.807187 
L 259.160938 108.807187 
" style="fill:none;stroke:#8c564b;stroke-linecap:square;stroke-width:1.5;"/>
    </g>
    <g id="line2d_38"/>
    <g id="text_21">
     <!-- ch11 -->
     <g transform="translate(267.160938 112.307187)scale(0.1 -0.1)">
      <use xlink:href="#DejaVuSans-99"/>
      <use x="54.980469" xlink:href="#DejaVuSans-104"/>
      <use x="118.359375" xlink:href="#DejaVuSans-49"/>
      <use x="181.982422" xlink:href="#DejaVuSans-49"/>
     </g>
    </g>
    <g id="line2d_39">
     <path d="M 311.721875 35.416562 
L 331.721875 35.416562 
" style="fill:none;stroke:#e377c2;stroke-linecap:square;stroke-width:1.5;"/>
    </g>
    <g id="line2d_40"/>
    <g id="text_22">
     <!-- ch15 -->
     <g transform="translate(339.721875 38.916562)scale(0.1 -0.1)">
      <use xlink:href="#DejaVuSans-99"/>
      <use x="54.980469" xlink:href="#DejaVuSans-104"/>
      <use x="118.359375" xlink:href="#DejaVuSans-49"/>
      <use x="181.982422" xlink:href="#DejaVuSans-53"/>
     </g>
    </g>
    <g id="line2d_41">
     <path d="M 311.721875 50.094687 
L 331.721875 50.094687 
" style="fill:none;stroke:#7f7f7f;stroke-linecap:square;stroke-width:1.5;"/>
    </g>
    <g id="line2d_42"/>
    <g id="text_23">
     <!-- ch16 -->
     <defs>
      <path d="M 33.015625 40.375 
Q 26.375 40.375 22.484375 35.828125 
Q 18.609375 31.296875 18.609375 23.390625 
Q 18.609375 15.53125 22.484375 10.953125 
Q 26.375 6.390625 33.015625 6.390625 
Q 39.65625 6.390625 43.53125 10.953125 
Q 47.40625 15.53125 47.40625 23.390625 
Q 47.40625 31.296875 43.53125 35.828125 
Q 39.65625 40.375 33.015625 40.375 
z
M 52.59375 71.296875 
L 52.59375 62.3125 
Q 48.875 64.0625 45.09375 64.984375 
Q 41.3125 65.921875 37.59375 65.921875 
Q 27.828125 65.921875 22.671875 59.328125 
Q 17.53125 52.734375 16.796875 39.40625 
Q 19.671875 43.65625 24.015625 45.921875 
Q 28.375 48.1875 33.59375 48.1875 
Q 44.578125 48.1875 50.953125 41.515625 
Q 57.328125 34.859375 57.328125 23.390625 
Q 57.328125 12.15625 50.6875 5.359375 
Q 44.046875 -1.421875 33.015625 -1.421875 
Q 20.359375 -1.421875 13.671875 8.265625 
Q 6.984375 17.96875 6.984375 36.375 
Q 6.984375 53.65625 15.1875 63.9375 
Q 23.390625 74.21875 37.203125 74.21875 
Q 40.921875 74.21875 44.703125 73.484375 
Q 48.484375 72.75 52.59375 71.296875 
z
" id="DejaVuSans-54"/>
     </defs>
     <g transform="translate(339.721875 53.594687)scale(0.1 -0.1)">
      <use xlink:href="#DejaVuSans-99"/>
      <use x="54.980469" xlink:href="#DejaVuSans-104"/>
      <use x="118.359375" xlink:href="#DejaVuSans-49"/>
      <use x="181.982422" xlink:href="#DejaVuSans-54"/>
     </g>
    </g>
    <g id="line2d_43">
     <path d="M 311.721875 64.772812 
L 331.721875 64.772812 
" style="fill:none;stroke:#bcbd22;stroke-linecap:square;stroke-width:1.5;"/>
    </g>
    <g id="line2d_44"/>
    <g id="text_24">
     <!-- ch17 -->
     <defs>
      <path d="M 8.203125 72.90625 
L 55.078125 72.90625 
L 55.078125 68.703125 
L 28.609375 0 
L 18.3125 0 
L 43.21875 64.59375 
L 8.203125 64.59375 
z
" id="DejaVuSans-55"/>
     </defs>
     <g transform="translate(339.721875 68.272812)scale(0.1 -0.1)">
      <use xlink:href="#DejaVuSans-99"/>
      <use x="54.980469" xlink:href="#DejaVuSans-104"/>
      <use x="118.359375" xlink:href="#DejaVuSans-49"/>
      <use x="181.982422" xlink:href="#DejaVuSans-55"/>
     </g>
    </g>
    <g id="line2d_45">
     <path d="M 311.721875 79.450938 
L 331.721875 79.450938 
" style="fill:none;stroke:#17becf;stroke-linecap:square;stroke-width:1.5;"/>
    </g>
    <g id="line2d_46"/>
    <g id="text_25">
     <!-- ch21 -->
     <g transform="translate(339.721875 82.950938)scale(0.1 -0.1)">
      <use xlink:href="#DejaVuSans-99"/>
      <use x="54.980469" xlink:href="#DejaVuSans-104"/>
      <use x="118.359375" xlink:href="#DejaVuSans-50"/>
      <use x="181.982422" xlink:href="#DejaVuSans-49"/>
     </g>
    </g>
    <g id="line2d_47">
     <path d="M 311.721875 94.129063 
L 331.721875 94.129063 
" style="fill:none;stroke:#1f77b4;stroke-linecap:square;stroke-width:1.5;"/>
    </g>
    <g id="line2d_48"/>
    <g id="text_26">
     <!-- ch22 -->
     <g transform="translate(339.721875 97.629063)scale(0.1 -0.1)">
      <use xlink:href="#DejaVuSans-99"/>
      <use x="54.980469" xlink:href="#DejaVuSans-104"/>
      <use x="118.359375" xlink:href="#DejaVuSans-50"/>
      <use x="181.982422" xlink:href="#DejaVuSans-50"/>
     </g>
    </g>
    <g id="line2d_49">
     <path d="M 311.721875 108.807187 
L 331.721875 108.807187 
" style="fill:none;stroke:#ff7f0e;stroke-linecap:square;stroke-width:1.5;"/>
    </g>
    <g id="line2d_50"/>
    <g id="text_27">
     <!-- ch23 -->
     <g transform="translate(339.721875 112.307187)scale(0.1 -0.1)">
      <use xlink:href="#DejaVuSans-99"/>
      <use x="54.980469" xlink:href="#DejaVuSans-104"/>
      <use x="118.359375" xlink:href="#DejaVuSans-50"/>
      <use x="181.982422" xlink:href="#DejaVuSans-51"/>
     </g>
    </g>
   </g>
  </g>
 </g>
 <defs>
  <clipPath id="p8751064d2e">
   <rect height="217.44" width="334.8" x="38.482813" y="22.318125"/>
  </clipPath>
 </defs>
</svg>
