<?xml version="1.0" encoding="utf-8" standalone="no"?>
<!DOCTYPE svg PUBLIC "-//W3C//DTD SVG 1.1//EN"
  "http://www.w3.org/Graphics/SVG/1.1/DTD/svg11.dtd">
<!-- Created with matplotlib (https://matplotlib.org/) -->
<svg height="263.63625pt" version="1.1" viewBox="0 0 380.482812 263.63625" width="380.482812pt" xmlns="http://www.w3.org/2000/svg" xmlns:xlink="http://www.w3.org/1999/xlink">
 <defs>
  <style type="text/css">
*{stroke-linecap:butt;stroke-linejoin:round;}
  </style>
 </defs>
 <g id="figure_1">
  <g id="patch_1">
   <path d="M -0 263.63625 
L 380.482812 263.63625 
L 380.482812 0 
L -0 0 
z
" style="fill:none;"/>
  </g>
  <g id="axes_1">
   <g id="patch_2">
    <path d="M 38.482813 239.758125 
L 373.282813 239.758125 
L 373.282813 22.318125 
L 38.482813 22.318125 
z
" style="fill:#ffffff;"/>
   </g>
   <g id="matplotlib.axis_1">
    <g id="xtick_1">
     <g id="line2d_1">
      <defs>
       <path d="M 0 0 
L 0 3.5 
" id="m0473a46e26" style="stroke:#000000;stroke-width:0.8;"/>
      </defs>
      <g>
       <use style="stroke:#000000;stroke-width:0.8;" x="53.700994" xlink:href="#m0473a46e26" y="239.758125"/>
      </g>
     </g>
     <g id="text_1">
      <!-- 0 -->
      <defs>
       <path d="M 31.78125 66.40625 
Q 24.171875 66.40625 20.328125 58.90625 
Q 16.5 51.421875 16.5 36.375 
Q 16.5 21.390625 20.328125 13.890625 
Q 24.171875 6.390625 31.78125 6.390625 
Q 39.453125 6.390625 43.28125 13.890625 
Q 47.125 21.390625 47.125 36.375 
Q 47.125 51.421875 43.28125 58.90625 
Q 39.453125 66.40625 31.78125 66.40625 
z
M 31.78125 74.21875 
Q 44.046875 74.21875 50.515625 64.515625 
Q 56.984375 54.828125 56.984375 36.375 
Q 56.984375 17.96875 50.515625 8.265625 
Q 44.046875 -1.421875 31.78125 -1.421875 
Q 19.53125 -1.421875 13.0625 8.265625 
Q 6.59375 17.96875 6.59375 36.375 
Q 6.59375 54.828125 13.0625 64.515625 
Q 19.53125 74.21875 31.78125 74.21875 
z
" id="DejaVuSans-48"/>
      </defs>
      <g transform="translate(50.519744 254.356563)scale(0.1 -0.1)">
       <use xlink:href="#DejaVuSans-48"/>
      </g>
     </g>
    </g>
    <g id="xtick_2">
     <g id="line2d_2">
      <g>
       <use style="stroke:#000000;stroke-width:0.8;" x="114.573722" xlink:href="#m0473a46e26" y="239.758125"/>
      </g>
     </g>
     <g id="text_2">
      <!-- 10 -->
      <defs>
       <path d="M 12.40625 8.296875 
L 28.515625 8.296875 
L 28.515625 63.921875 
L 10.984375 60.40625 
L 10.984375 69.390625 
L 28.421875 72.90625 
L 38.28125 72.90625 
L 38.28125 8.296875 
L 54.390625 8.296875 
L 54.390625 0 
L 12.40625 0 
z
" id="DejaVuSans-49"/>
      </defs>
      <g transform="translate(108.211222 254.356563)scale(0.1 -0.1)">
       <use xlink:href="#DejaVuSans-49"/>
       <use x="63.623047" xlink:href="#DejaVuSans-48"/>
      </g>
     </g>
    </g>
    <g id="xtick_3">
     <g id="line2d_3">
      <g>
       <use style="stroke:#000000;stroke-width:0.8;" x="175.446449" xlink:href="#m0473a46e26" y="239.758125"/>
      </g>
     </g>
     <g id="text_3">
      <!-- 20 -->
      <defs>
       <path d="M 19.1875 8.296875 
L 53.609375 8.296875 
L 53.609375 0 
L 7.328125 0 
L 7.328125 8.296875 
Q 12.9375 14.109375 22.625 23.890625 
Q 32.328125 33.6875 34.8125 36.53125 
Q 39.546875 41.84375 41.421875 45.53125 
Q 43.3125 49.21875 43.3125 52.78125 
Q 43.3125 58.59375 39.234375 62.25 
Q 35.15625 65.921875 28.609375 65.921875 
Q 23.96875 65.921875 18.8125 64.3125 
Q 13.671875 62.703125 7.8125 59.421875 
L 7.8125 69.390625 
Q 13.765625 71.78125 18.9375 73 
Q 24.125 74.21875 28.421875 74.21875 
Q 39.75 74.21875 46.484375 68.546875 
Q 53.21875 62.890625 53.21875 53.421875 
Q 53.21875 48.921875 51.53125 44.890625 
Q 49.859375 40.875 45.40625 35.40625 
Q 44.1875 33.984375 37.640625 27.21875 
Q 31.109375 20.453125 19.1875 8.296875 
z
" id="DejaVuSans-50"/>
      </defs>
      <g transform="translate(169.083949 254.356563)scale(0.1 -0.1)">
       <use xlink:href="#DejaVuSans-50"/>
       <use x="63.623047" xlink:href="#DejaVuSans-48"/>
      </g>
     </g>
    </g>
    <g id="xtick_4">
     <g id="line2d_4">
      <g>
       <use style="stroke:#000000;stroke-width:0.8;" x="236.319176" xlink:href="#m0473a46e26" y="239.758125"/>
      </g>
     </g>
     <g id="text_4">
      <!-- 30 -->
      <defs>
       <path d="M 40.578125 39.3125 
Q 47.65625 37.796875 51.625 33 
Q 55.609375 28.21875 55.609375 21.1875 
Q 55.609375 10.40625 48.1875 4.484375 
Q 40.765625 -1.421875 27.09375 -1.421875 
Q 22.515625 -1.421875 17.65625 -0.515625 
Q 12.796875 0.390625 7.625 2.203125 
L 7.625 11.71875 
Q 11.71875 9.328125 16.59375 8.109375 
Q 21.484375 6.890625 26.8125 6.890625 
Q 36.078125 6.890625 40.9375 10.546875 
Q 45.796875 14.203125 45.796875 21.1875 
Q 45.796875 27.640625 41.28125 31.265625 
Q 36.765625 34.90625 28.71875 34.90625 
L 20.21875 34.90625 
L 20.21875 43.015625 
L 29.109375 43.015625 
Q 36.375 43.015625 40.234375 45.921875 
Q 44.09375 48.828125 44.09375 54.296875 
Q 44.09375 59.90625 40.109375 62.90625 
Q 36.140625 65.921875 28.71875 65.921875 
Q 24.65625 65.921875 20.015625 65.03125 
Q 15.375 64.15625 9.8125 62.3125 
L 9.8125 71.09375 
Q 15.4375 72.65625 20.34375 73.4375 
Q 25.25 74.21875 29.59375 74.21875 
Q 40.828125 74.21875 47.359375 69.109375 
Q 53.90625 64.015625 53.90625 55.328125 
Q 53.90625 49.265625 50.4375 45.09375 
Q 46.96875 40.921875 40.578125 39.3125 
z
" id="DejaVuSans-51"/>
      </defs>
      <g transform="translate(229.956676 254.356563)scale(0.1 -0.1)">
       <use xlink:href="#DejaVuSans-51"/>
       <use x="63.623047" xlink:href="#DejaVuSans-48"/>
      </g>
     </g>
    </g>
    <g id="xtick_5">
     <g id="line2d_5">
      <g>
       <use style="stroke:#000000;stroke-width:0.8;" x="297.191903" xlink:href="#m0473a46e26" y="239.758125"/>
      </g>
     </g>
     <g id="text_5">
      <!-- 40 -->
      <defs>
       <path d="M 37.796875 64.3125 
L 12.890625 25.390625 
L 37.796875 25.390625 
z
M 35.203125 72.90625 
L 47.609375 72.90625 
L 47.609375 25.390625 
L 58.015625 25.390625 
L 58.015625 17.1875 
L 47.609375 17.1875 
L 47.609375 0 
L 37.796875 0 
L 37.796875 17.1875 
L 4.890625 17.1875 
L 4.890625 26.703125 
z
" id="DejaVuSans-52"/>
      </defs>
      <g transform="translate(290.829403 254.356563)scale(0.1 -0.1)">
       <use xlink:href="#DejaVuSans-52"/>
       <use x="63.623047" xlink:href="#DejaVuSans-48"/>
      </g>
     </g>
    </g>
    <g id="xtick_6">
     <g id="line2d_6">
      <g>
       <use style="stroke:#000000;stroke-width:0.8;" x="358.064631" xlink:href="#m0473a46e26" y="239.758125"/>
      </g>
     </g>
     <g id="text_6">
      <!-- 50 -->
      <defs>
       <path d="M 10.796875 72.90625 
L 49.515625 72.90625 
L 49.515625 64.59375 
L 19.828125 64.59375 
L 19.828125 46.734375 
Q 21.96875 47.46875 24.109375 47.828125 
Q 26.265625 48.1875 28.421875 48.1875 
Q 40.625 48.1875 47.75 41.5 
Q 54.890625 34.8125 54.890625 23.390625 
Q 54.890625 11.625 47.5625 5.09375 
Q 40.234375 -1.421875 26.90625 -1.421875 
Q 22.3125 -1.421875 17.546875 -0.640625 
Q 12.796875 0.140625 7.71875 1.703125 
L 7.71875 11.625 
Q 12.109375 9.234375 16.796875 8.0625 
Q 21.484375 6.890625 26.703125 6.890625 
Q 35.15625 6.890625 40.078125 11.328125 
Q 45.015625 15.765625 45.015625 23.390625 
Q 45.015625 31 40.078125 35.4375 
Q 35.15625 39.890625 26.703125 39.890625 
Q 22.75 39.890625 18.8125 39.015625 
Q 14.890625 38.140625 10.796875 36.28125 
z
" id="DejaVuSans-53"/>
      </defs>
      <g transform="translate(351.702131 254.356563)scale(0.1 -0.1)">
       <use xlink:href="#DejaVuSans-53"/>
       <use x="63.623047" xlink:href="#DejaVuSans-48"/>
      </g>
     </g>
    </g>
   </g>
   <g id="matplotlib.axis_2">
    <g id="ytick_1">
     <g id="line2d_7">
      <defs>
       <path d="M 0 0 
L -3.5 0 
" id="m15ac976a56" style="stroke:#000000;stroke-width:0.8;"/>
      </defs>
      <g>
       <use style="stroke:#000000;stroke-width:0.8;" x="38.482813" xlink:href="#m15ac976a56" y="215.678076"/>
      </g>
     </g>
     <g id="text_7">
      <!-- −0.5 -->
      <defs>
       <path d="M 10.59375 35.5 
L 73.1875 35.5 
L 73.1875 27.203125 
L 10.59375 27.203125 
z
" id="DejaVuSans-8722"/>
       <path d="M 10.6875 12.40625 
L 21 12.40625 
L 21 0 
L 10.6875 0 
z
" id="DejaVuSans-46"/>
      </defs>
      <g transform="translate(7.2 219.477295)scale(0.1 -0.1)">
       <use xlink:href="#DejaVuSans-8722"/>
       <use x="83.789062" xlink:href="#DejaVuSans-48"/>
       <use x="147.412109" xlink:href="#DejaVuSans-46"/>
       <use x="179.199219" xlink:href="#DejaVuSans-53"/>
      </g>
     </g>
    </g>
    <g id="ytick_2">
     <g id="line2d_8">
      <g>
       <use style="stroke:#000000;stroke-width:0.8;" x="38.482813" xlink:href="#m15ac976a56" y="179.930022"/>
      </g>
     </g>
     <g id="text_8">
      <!-- 0.0 -->
      <g transform="translate(15.579688 183.729241)scale(0.1 -0.1)">
       <use xlink:href="#DejaVuSans-48"/>
       <use x="63.623047" xlink:href="#DejaVuSans-46"/>
       <use x="95.410156" xlink:href="#DejaVuSans-48"/>
      </g>
     </g>
    </g>
    <g id="ytick_3">
     <g id="line2d_9">
      <g>
       <use style="stroke:#000000;stroke-width:0.8;" x="38.482813" xlink:href="#m15ac976a56" y="144.181968"/>
      </g>
     </g>
     <g id="text_9">
      <!-- 0.5 -->
      <g transform="translate(15.579688 147.981187)scale(0.1 -0.1)">
       <use xlink:href="#DejaVuSans-48"/>
       <use x="63.623047" xlink:href="#DejaVuSans-46"/>
       <use x="95.410156" xlink:href="#DejaVuSans-53"/>
      </g>
     </g>
    </g>
    <g id="ytick_4">
     <g id="line2d_10">
      <g>
       <use style="stroke:#000000;stroke-width:0.8;" x="38.482813" xlink:href="#m15ac976a56" y="108.433914"/>
      </g>
     </g>
     <g id="text_10">
      <!-- 1.0 -->
      <g transform="translate(15.579688 112.233132)scale(0.1 -0.1)">
       <use xlink:href="#DejaVuSans-49"/>
       <use x="63.623047" xlink:href="#DejaVuSans-46"/>
       <use x="95.410156" xlink:href="#DejaVuSans-48"/>
      </g>
     </g>
    </g>
    <g id="ytick_5">
     <g id="line2d_11">
      <g>
       <use style="stroke:#000000;stroke-width:0.8;" x="38.482813" xlink:href="#m15ac976a56" y="72.685859"/>
      </g>
     </g>
     <g id="text_11">
      <!-- 1.5 -->
      <g transform="translate(15.579688 76.485078)scale(0.1 -0.1)">
       <use xlink:href="#DejaVuSans-49"/>
       <use x="63.623047" xlink:href="#DejaVuSans-46"/>
       <use x="95.410156" xlink:href="#DejaVuSans-53"/>
      </g>
     </g>
    </g>
    <g id="ytick_6">
     <g id="line2d_12">
      <g>
       <use style="stroke:#000000;stroke-width:0.8;" x="38.482813" xlink:href="#m15ac976a56" y="36.937805"/>
      </g>
     </g>
     <g id="text_12">
      <!-- 2.0 -->
      <g transform="translate(15.579688 40.737024)scale(0.1 -0.1)">
       <use xlink:href="#DejaVuSans-50"/>
       <use x="63.623047" xlink:href="#DejaVuSans-46"/>
       <use x="95.410156" xlink:href="#DejaVuSans-48"/>
      </g>
     </g>
    </g>
   </g>
   <g id="line2d_13">
    <path clip-path="url(#pc6b4e34169)" d="M 53.700994 219.064848 
L 59.788267 218.990779 
L 65.87554 219.234865 
L 71.962812 219.030599 
L 78.050085 219.270969 
L 84.137358 219.140562 
L 90.224631 219.188466 
L 96.311903 219.687151 
L 102.399176 219.660909 
L 108.486449 219.821848 
L 114.573722 219.484099 
L 120.660994 219.244445 
L 126.748267 219.043686 
L 132.83554 219.07214 
L 138.922812 219.107459 
L 145.010085 219.318373 
L 151.097358 218.687561 
L 157.184631 217.196654 
L 163.271903 216.022832 
L 169.359176 215.387444 
L 175.446449 215.790827 
L 181.533722 214.794171 
L 187.620994 215.128628 
L 193.708267 214.503897 
L 199.79554 214.581326 
L 205.882812 214.346532 
L 211.970085 215.365781 
L 218.057358 215.381583 
L 224.144631 216.467822 
L 230.231903 217.54198 
L 236.319176 216.891223 
L 242.406449 215.46609 
L 248.493722 215.443425 
L 254.580994 214.970194 
L 260.668267 215.717044 
L 266.75554 216.659717 
L 272.842812 217.424299 
L 278.930085 218.162067 
L 285.017358 218.014998 
L 291.104631 217.760757 
L 297.191903 217.702847 
L 303.279176 218.407226 
L 309.366449 217.858136 
L 315.453722 218.325721 
L 321.540994 217.74839 
L 327.628267 217.134666 
L 333.71554 217.833969 
L 339.802812 217.693336 
L 345.890085 218.089353 
L 351.977358 217.704134 
L 358.064631 217.00919 
" style="fill:none;stroke:#1f77b4;stroke-linecap:square;stroke-width:1.5;"/>
   </g>
   <g id="line2d_14">
    <path clip-path="url(#pc6b4e34169)" d="M 53.700994 140.173754 
L 59.788267 140.245322 
L 65.87554 140.261409 
L 71.962812 140.169966 
L 78.050085 140.036125 
L 84.137358 140.199063 
L 90.224631 140.490337 
L 96.311903 140.22909 
L 102.399176 140.105404 
L 108.486449 140.036338 
L 114.573722 139.42333 
L 120.660994 137.380972 
L 126.748267 130.706955 
L 132.83554 114.906387 
L 138.922812 97.202807 
L 145.010085 81.091873 
L 151.097358 67.917999 
L 157.184631 55.117476 
L 163.271903 42.54553 
L 169.359176 38.257839 
L 175.446449 34.666732 
L 181.533722 33.166735 
L 187.620994 32.201761 
L 193.708267 33.406181 
L 199.79554 33.1232 
L 205.882812 33.87019 
L 211.970085 33.370435 
L 218.057358 33.018384 
L 224.144631 33.85461 
L 230.231903 35.668543 
L 236.319176 40.074337 
L 242.406449 42.929534 
L 248.493722 48.748536 
L 254.580994 55.246889 
L 260.668267 66.029712 
L 266.75554 79.68118 
L 272.842812 94.01708 
L 278.930085 105.599667 
L 285.017358 115.53405 
L 291.104631 123.230319 
L 297.191903 129.954958 
L 303.279176 135.063998 
L 309.366449 137.758327 
L 315.453722 139.375213 
L 321.540994 139.601068 
L 327.628267 138.822335 
L 333.71554 138.12396 
L 339.802812 137.561855 
L 345.890085 137.410359 
L 351.977358 137.545772 
L 358.064631 138.094931 
" style="fill:none;stroke:#ff7f0e;stroke-linecap:square;stroke-width:1.5;"/>
   </g>
   <g id="line2d_15">
    <path clip-path="url(#pc6b4e34169)" d="M 53.700994 227.760205 
L 59.788267 227.755556 
L 65.87554 227.74719 
L 71.962812 227.726599 
L 78.050085 227.736183 
L 84.137358 227.749692 
L 90.224631 227.773718 
L 96.311903 227.803817 
L 102.399176 227.793449 
L 108.486449 227.789375 
L 114.573722 227.809464 
L 120.660994 227.889682 
L 126.748267 228.299715 
L 132.83554 228.738343 
L 138.922812 228.781452 
L 145.010085 228.974349 
L 151.097358 229.0096 
L 157.184631 228.134774 
L 163.271903 227.517474 
L 169.359176 227.002847 
L 175.446449 226.605901 
L 181.533722 226.505018 
L 187.620994 226.417649 
L 193.708267 226.358879 
L 199.79554 226.318557 
L 205.882812 226.286885 
L 211.970085 226.33071 
L 218.057358 226.448323 
L 224.144631 226.545558 
L 230.231903 226.603971 
L 236.319176 226.692265 
L 242.406449 226.773629 
L 248.493722 226.885877 
L 254.580994 227.247721 
L 260.668267 227.275033 
L 266.75554 227.595975 
L 272.842812 227.725529 
L 278.930085 228.520065 
L 285.017358 228.023451 
L 291.104631 227.010066 
L 297.191903 226.15047 
L 303.279176 226.838762 
L 309.366449 226.599321 
L 315.453722 226.544054 
L 321.540994 226.969816 
L 327.628267 226.036931 
L 333.71554 226.067605 
L 339.802812 225.181627 
L 345.890085 224.917661 
L 351.977358 224.874837 
L 358.064631 224.737847 
" style="fill:none;stroke:#2ca02c;stroke-linecap:square;stroke-width:1.5;"/>
   </g>
   <g id="line2d_16">
    <path clip-path="url(#pc6b4e34169)" d="M 53.700994 135.433134 
L 59.788267 135.44314 
L 65.87554 135.459159 
L 71.962812 135.465947 
L 78.050085 135.463731 
L 84.137358 135.447644 
L 90.224631 135.447359 
L 96.311903 135.446072 
L 102.399176 135.439637 
L 108.486449 135.397529 
L 114.573722 135.310518 
L 120.660994 134.631162 
L 126.748267 132.280795 
L 132.83554 125.561164 
L 138.922812 119.847409 
L 145.010085 113.035545 
L 151.097358 108.350405 
L 157.184631 104.688089 
L 163.271903 104.075439 
L 169.359176 103.712811 
L 175.446449 102.082557 
L 181.533722 101.814449 
L 187.620994 101.346144 
L 193.708267 100.91367 
L 199.79554 100.813576 
L 205.882812 100.7982 
L 211.970085 100.76381 
L 218.057358 100.772461 
L 224.144631 100.725704 
L 230.231903 100.968933 
L 236.319176 102.548927 
L 242.406449 102.21497 
L 248.493722 103.632379 
L 254.580994 102.393706 
L 260.668267 105.902949 
L 266.75554 113.03526 
L 272.842812 120.123669 
L 278.930085 124.345661 
L 285.017358 128.067033 
L 291.104631 131.091172 
L 297.191903 133.038729 
L 303.279176 133.930929 
L 309.366449 134.632875 
L 315.453722 135.243523 
L 321.540994 135.513352 
L 327.628267 135.594282 
L 333.71554 135.397955 
L 339.802812 135.140927 
L 345.890085 134.954465 
L 351.977358 134.892835 
L 358.064631 134.884329 
" style="fill:none;stroke:#d62728;stroke-linecap:square;stroke-width:1.5;"/>
   </g>
   <g id="line2d_17">
    <path clip-path="url(#pc6b4e34169)" d="M 53.700994 226.359024 
L 59.788267 226.357809 
L 65.87554 226.366315 
L 71.962812 226.37468 
L 78.050085 226.385765 
L 84.137358 226.390337 
L 90.224631 226.405423 
L 96.311903 226.427873 
L 102.399176 226.452828 
L 108.486449 226.463051 
L 114.573722 226.430804 
L 120.660994 226.409071 
L 126.748267 226.397416 
L 132.83554 226.252708 
L 138.922812 226.014771 
L 145.010085 225.843821 
L 151.097358 225.439371 
L 157.184631 224.301009 
L 163.271903 223.507756 
L 169.359176 222.935718 
L 175.446449 222.377619 
L 181.533722 222.209673 
L 187.620994 222.086273 
L 193.708267 221.865851 
L 199.79554 221.763038 
L 205.882812 221.706557 
L 211.970085 221.679317 
L 218.057358 221.877502 
L 224.144631 222.256576 
L 230.231903 222.551424 
L 236.319176 222.700709 
L 242.406449 222.806667 
L 248.493722 222.886813 
L 254.580994 223.248444 
L 260.668267 223.558737 
L 266.75554 224.122196 
L 272.842812 224.590855 
L 278.930085 225.554764 
L 285.017358 225.408483 
L 291.104631 225.231243 
L 297.191903 224.843447 
L 303.279176 225.670016 
L 309.366449 225.286651 
L 315.453722 224.956628 
L 321.540994 225.173547 
L 327.628267 224.232659 
L 333.71554 224.44636 
L 339.802812 223.912927 
L 345.890085 223.873461 
L 351.977358 223.815194 
L 358.064631 223.722459 
" style="fill:none;stroke:#9467bd;stroke-linecap:square;stroke-width:1.5;"/>
   </g>
   <g id="line2d_18">
    <path clip-path="url(#pc6b4e34169)" d="M 53.700994 135.627603 
L 59.788267 135.619881 
L 65.87554 135.611588 
L 71.962812 135.603151 
L 78.050085 135.588849 
L 84.137358 135.55067 
L 90.224631 135.527863 
L 96.311903 135.517281 
L 102.399176 135.480389 
L 108.486449 135.413612 
L 114.573722 135.216355 
L 120.660994 133.910551 
L 126.748267 128.933779 
L 132.83554 113.435351 
L 138.922812 101.960797 
L 145.010085 91.733205 
L 151.097358 80.479436 
L 157.184631 73.468953 
L 163.271903 67.868591 
L 169.359176 65.440943 
L 175.446449 53.757264 
L 181.533722 53.308554 
L 187.620994 53.122812 
L 193.708267 54.112742 
L 199.79554 54.521556 
L 205.882812 54.657114 
L 211.970085 54.591052 
L 218.057358 54.333521 
L 224.144631 54.685786 
L 230.231903 61.00011 
L 236.319176 66.689699 
L 242.406449 68.467017 
L 248.493722 71.700788 
L 254.580994 72.957828 
L 260.668267 81.578545 
L 266.75554 92.252844 
L 272.842812 100.573202 
L 278.930085 108.594853 
L 285.017358 117.415826 
L 291.104631 122.575557 
L 297.191903 127.896726 
L 303.279176 130.509554 
L 309.366449 133.85464 
L 315.453722 134.253589 
L 321.540994 134.477658 
L 327.628267 134.163718 
L 333.71554 134.046608 
L 339.802812 133.846206 
L 345.890085 133.665105 
L 351.977358 133.590891 
L 358.064631 133.647015 
" style="fill:none;stroke:#8c564b;stroke-linecap:square;stroke-width:1.5;"/>
   </g>
   <g id="line2d_19">
    <path clip-path="url(#pc6b4e34169)" d="M 53.700994 219.807334 
L 59.788267 220.257118 
L 65.87554 220.740858 
L 71.962812 220.517649 
L 78.050085 220.366575 
L 84.137358 220.68173 
L 90.224631 220.138576 
L 96.311903 220.697962 
L 102.399176 220.630468 
L 108.486449 220.364717 
L 114.573722 224.716974 
L 120.660994 224.547098 
L 126.748267 220.235738 
L 132.83554 220.721195 
L 138.922812 220.308022 
L 145.010085 220.004807 
L 151.097358 219.445136 
L 157.184631 214.81326 
L 163.271903 213.517249 
L 169.359176 226.350514 
L 175.446449 224.066788 
L 181.533722 223.417101 
L 187.620994 223.639884 
L 193.708267 223.506184 
L 199.79554 223.617507 
L 205.882812 223.511975 
L 211.970085 224.041905 
L 218.057358 224.195908 
L 224.144631 225.028409 
L 230.231903 225.347996 
L 236.319176 225.01504 
L 242.406449 224.531156 
L 248.493722 224.20599 
L 254.580994 224.573694 
L 260.668267 225.825446 
L 266.75554 227.598481 
L 272.842812 228.719537 
L 278.930085 229.733284 
L 285.017358 228.813269 
L 291.104631 228.528788 
L 297.191903 228.126766 
L 303.279176 228.222927 
L 309.366449 227.990778 
L 315.453722 227.863231 
L 321.540994 228.503619 
L 327.628267 228.926948 
L 333.71554 229.874489 
L 339.802812 214.657684 
L 345.890085 229.468819 
L 351.977358 214.189027 
L 358.064631 228.673496 
" style="fill:none;stroke:#e377c2;stroke-linecap:square;stroke-width:1.5;"/>
   </g>
   <g id="line2d_20">
    <path clip-path="url(#pc6b4e34169)" d="M 53.700994 135.679721 
L 59.788267 133.552998 
L 65.87554 135.680152 
L 71.962812 135.964705 
L 78.050085 135.300222 
L 84.137358 135.254321 
L 90.224631 135.761729 
L 96.311903 135.739348 
L 102.399176 133.333936 
L 108.486449 134.747343 
L 114.573722 133.808599 
L 120.660994 128.043296 
L 126.748267 121.64182 
L 132.83554 103.838934 
L 138.922812 92.038209 
L 145.010085 96.717064 
L 151.097358 81.558882 
L 157.184631 65.650787 
L 163.271903 52.079248 
L 169.359176 45.598554 
L 175.446449 40.755768 
L 181.533722 36.098153 
L 187.620994 36.458131 
L 193.708267 36.007861 
L 199.79554 38.946131 
L 205.882812 41.301999 
L 211.970085 41.343898 
L 218.057358 41.253955 
L 224.144631 42.781822 
L 230.231903 43.893093 
L 236.319176 47.777613 
L 242.406449 51.578854 
L 248.493722 55.102603 
L 254.580994 63.884191 
L 260.668267 67.769997 
L 266.75554 82.630036 
L 272.842812 96.139085 
L 278.930085 108.364494 
L 285.017358 118.659929 
L 291.104631 123.394617 
L 297.191903 131.643765 
L 303.279176 137.681544 
L 309.366449 143.267603 
L 315.453722 147.831059 
L 321.540994 148.627597 
L 327.628267 148.133557 
L 333.71554 148.140492 
L 339.802812 143.557735 
L 345.890085 147.370981 
L 351.977358 147.256157 
L 358.064631 147.278608 
" style="fill:none;stroke:#7f7f7f;stroke-linecap:square;stroke-width:1.5;"/>
   </g>
   <g id="patch_3">
    <path d="M 38.482813 239.758125 
L 38.482813 22.318125 
" style="fill:none;stroke:#000000;stroke-linecap:square;stroke-linejoin:miter;stroke-width:0.8;"/>
   </g>
   <g id="patch_4">
    <path d="M 373.282813 239.758125 
L 373.282813 22.318125 
" style="fill:none;stroke:#000000;stroke-linecap:square;stroke-linejoin:miter;stroke-width:0.8;"/>
   </g>
   <g id="patch_5">
    <path d="M 38.482813 239.758125 
L 373.282812 239.758125 
" style="fill:none;stroke:#000000;stroke-linecap:square;stroke-linejoin:miter;stroke-width:0.8;"/>
   </g>
   <g id="patch_6">
    <path d="M 38.482813 22.318125 
L 373.282812 22.318125 
" style="fill:none;stroke:#000000;stroke-linecap:square;stroke-linejoin:miter;stroke-width:0.8;"/>
   </g>
   <g id="text_13">
    <!-- 3.0 -->
    <g transform="translate(196.340937 16.318125)scale(0.12 -0.12)">
     <use xlink:href="#DejaVuSans-51"/>
     <use x="63.623047" xlink:href="#DejaVuSans-46"/>
     <use x="95.410156" xlink:href="#DejaVuSans-48"/>
    </g>
   </g>
   <g id="legend_1">
    <g id="patch_7">
     <path d="M 243.523438 89.030625 
L 366.282812 89.030625 
Q 368.282812 89.030625 368.282812 87.030625 
L 368.282812 29.318125 
Q 368.282812 27.318125 366.282812 27.318125 
L 243.523438 27.318125 
Q 241.523438 27.318125 241.523438 29.318125 
L 241.523438 87.030625 
Q 241.523438 89.030625 243.523438 89.030625 
z
" style="fill:#ffffff;opacity:0.5;stroke:#cccccc;stroke-linejoin:miter;"/>
    </g>
    <g id="line2d_21">
     <path d="M 245.523438 35.416562 
L 265.523438 35.416562 
" style="fill:none;stroke:#1f77b4;stroke-linecap:square;stroke-width:1.5;"/>
    </g>
    <g id="line2d_22"/>
    <g id="text_14">
     <!-- ch0 -->
     <defs>
      <path d="M 48.78125 52.59375 
L 48.78125 44.1875 
Q 44.96875 46.296875 41.140625 47.34375 
Q 37.3125 48.390625 33.40625 48.390625 
Q 24.65625 48.390625 19.8125 42.84375 
Q 14.984375 37.3125 14.984375 27.296875 
Q 14.984375 17.28125 19.8125 11.734375 
Q 24.65625 6.203125 33.40625 6.203125 
Q 37.3125 6.203125 41.140625 7.25 
Q 44.96875 8.296875 48.78125 10.40625 
L 48.78125 2.09375 
Q 45.015625 0.34375 40.984375 -0.53125 
Q 36.96875 -1.421875 32.421875 -1.421875 
Q 20.0625 -1.421875 12.78125 6.34375 
Q 5.515625 14.109375 5.515625 27.296875 
Q 5.515625 40.671875 12.859375 48.328125 
Q 20.21875 56 33.015625 56 
Q 37.15625 56 41.109375 55.140625 
Q 45.0625 54.296875 48.78125 52.59375 
z
" id="DejaVuSans-99"/>
      <path d="M 54.890625 33.015625 
L 54.890625 0 
L 45.90625 0 
L 45.90625 32.71875 
Q 45.90625 40.484375 42.875 44.328125 
Q 39.84375 48.1875 33.796875 48.1875 
Q 26.515625 48.1875 22.3125 43.546875 
Q 18.109375 38.921875 18.109375 30.90625 
L 18.109375 0 
L 9.078125 0 
L 9.078125 75.984375 
L 18.109375 75.984375 
L 18.109375 46.1875 
Q 21.34375 51.125 25.703125 53.5625 
Q 30.078125 56 35.796875 56 
Q 45.21875 56 50.046875 50.171875 
Q 54.890625 44.34375 54.890625 33.015625 
z
" id="DejaVuSans-104"/>
     </defs>
     <g transform="translate(273.523438 38.916562)scale(0.1 -0.1)">
      <use xlink:href="#DejaVuSans-99"/>
      <use x="54.980469" xlink:href="#DejaVuSans-104"/>
      <use x="118.359375" xlink:href="#DejaVuSans-48"/>
     </g>
    </g>
    <g id="line2d_23">
     <path d="M 245.523438 50.094687 
L 265.523438 50.094687 
" style="fill:none;stroke:#ff7f0e;stroke-linecap:square;stroke-width:1.5;"/>
    </g>
    <g id="line2d_24"/>
    <g id="text_15">
     <!-- ch3 -->
     <g transform="translate(273.523438 53.594687)scale(0.1 -0.1)">
      <use xlink:href="#DejaVuSans-99"/>
      <use x="54.980469" xlink:href="#DejaVuSans-104"/>
      <use x="118.359375" xlink:href="#DejaVuSans-51"/>
     </g>
    </g>
    <g id="line2d_25">
     <path d="M 245.523438 64.772812 
L 265.523438 64.772812 
" style="fill:none;stroke:#2ca02c;stroke-linecap:square;stroke-width:1.5;"/>
    </g>
    <g id="line2d_26"/>
    <g id="text_16">
     <!-- ch6 -->
     <defs>
      <path d="M 33.015625 40.375 
Q 26.375 40.375 22.484375 35.828125 
Q 18.609375 31.296875 18.609375 23.390625 
Q 18.609375 15.53125 22.484375 10.953125 
Q 26.375 6.390625 33.015625 6.390625 
Q 39.65625 6.390625 43.53125 10.953125 
Q 47.40625 15.53125 47.40625 23.390625 
Q 47.40625 31.296875 43.53125 35.828125 
Q 39.65625 40.375 33.015625 40.375 
z
M 52.59375 71.296875 
L 52.59375 62.3125 
Q 48.875 64.0625 45.09375 64.984375 
Q 41.3125 65.921875 37.59375 65.921875 
Q 27.828125 65.921875 22.671875 59.328125 
Q 17.53125 52.734375 16.796875 39.40625 
Q 19.671875 43.65625 24.015625 45.921875 
Q 28.375 48.1875 33.59375 48.1875 
Q 44.578125 48.1875 50.953125 41.515625 
Q 57.328125 34.859375 57.328125 23.390625 
Q 57.328125 12.15625 50.6875 5.359375 
Q 44.046875 -1.421875 33.015625 -1.421875 
Q 20.359375 -1.421875 13.671875 8.265625 
Q 6.984375 17.96875 6.984375 36.375 
Q 6.984375 53.65625 15.1875 63.9375 
Q 23.390625 74.21875 37.203125 74.21875 
Q 40.921875 74.21875 44.703125 73.484375 
Q 48.484375 72.75 52.59375 71.296875 
z
" id="DejaVuSans-54"/>
     </defs>
     <g transform="translate(273.523438 68.272812)scale(0.1 -0.1)">
      <use xlink:href="#DejaVuSans-99"/>
      <use x="54.980469" xlink:href="#DejaVuSans-104"/>
      <use x="118.359375" xlink:href="#DejaVuSans-54"/>
     </g>
    </g>
    <g id="line2d_27">
     <path d="M 245.523438 79.450938 
L 265.523438 79.450938 
" style="fill:none;stroke:#d62728;stroke-linecap:square;stroke-width:1.5;"/>
    </g>
    <g id="line2d_28"/>
    <g id="text_17">
     <!-- ch9 -->
     <defs>
      <path d="M 10.984375 1.515625 
L 10.984375 10.5 
Q 14.703125 8.734375 18.5 7.8125 
Q 22.3125 6.890625 25.984375 6.890625 
Q 35.75 6.890625 40.890625 13.453125 
Q 46.046875 20.015625 46.78125 33.40625 
Q 43.953125 29.203125 39.59375 26.953125 
Q 35.25 24.703125 29.984375 24.703125 
Q 19.046875 24.703125 12.671875 31.3125 
Q 6.296875 37.9375 6.296875 49.421875 
Q 6.296875 60.640625 12.9375 67.421875 
Q 19.578125 74.21875 30.609375 74.21875 
Q 43.265625 74.21875 49.921875 64.515625 
Q 56.59375 54.828125 56.59375 36.375 
Q 56.59375 19.140625 48.40625 8.859375 
Q 40.234375 -1.421875 26.421875 -1.421875 
Q 22.703125 -1.421875 18.890625 -0.6875 
Q 15.09375 0.046875 10.984375 1.515625 
z
M 30.609375 32.421875 
Q 37.25 32.421875 41.125 36.953125 
Q 45.015625 41.5 45.015625 49.421875 
Q 45.015625 57.28125 41.125 61.84375 
Q 37.25 66.40625 30.609375 66.40625 
Q 23.96875 66.40625 20.09375 61.84375 
Q 16.21875 57.28125 16.21875 49.421875 
Q 16.21875 41.5 20.09375 36.953125 
Q 23.96875 32.421875 30.609375 32.421875 
z
" id="DejaVuSans-57"/>
     </defs>
     <g transform="translate(273.523438 82.950938)scale(0.1 -0.1)">
      <use xlink:href="#DejaVuSans-99"/>
      <use x="54.980469" xlink:href="#DejaVuSans-104"/>
      <use x="118.359375" xlink:href="#DejaVuSans-57"/>
     </g>
    </g>
    <g id="line2d_29">
     <path d="M 311.721875 35.416562 
L 331.721875 35.416562 
" style="fill:none;stroke:#9467bd;stroke-linecap:square;stroke-width:1.5;"/>
    </g>
    <g id="line2d_30"/>
    <g id="text_18">
     <!-- ch12 -->
     <g transform="translate(339.721875 38.916562)scale(0.1 -0.1)">
      <use xlink:href="#DejaVuSans-99"/>
      <use x="54.980469" xlink:href="#DejaVuSans-104"/>
      <use x="118.359375" xlink:href="#DejaVuSans-49"/>
      <use x="181.982422" xlink:href="#DejaVuSans-50"/>
     </g>
    </g>
    <g id="line2d_31">
     <path d="M 311.721875 50.094687 
L 331.721875 50.094687 
" style="fill:none;stroke:#8c564b;stroke-linecap:square;stroke-width:1.5;"/>
    </g>
    <g id="line2d_32"/>
    <g id="text_19">
     <!-- ch15 -->
     <g transform="translate(339.721875 53.594687)scale(0.1 -0.1)">
      <use xlink:href="#DejaVuSans-99"/>
      <use x="54.980469" xlink:href="#DejaVuSans-104"/>
      <use x="118.359375" xlink:href="#DejaVuSans-49"/>
      <use x="181.982422" xlink:href="#DejaVuSans-53"/>
     </g>
    </g>
    <g id="line2d_33">
     <path d="M 311.721875 64.772812 
L 331.721875 64.772812 
" style="fill:none;stroke:#e377c2;stroke-linecap:square;stroke-width:1.5;"/>
    </g>
    <g id="line2d_34"/>
    <g id="text_20">
     <!-- ch18 -->
     <defs>
      <path d="M 31.78125 34.625 
Q 24.75 34.625 20.71875 30.859375 
Q 16.703125 27.09375 16.703125 20.515625 
Q 16.703125 13.921875 20.71875 10.15625 
Q 24.75 6.390625 31.78125 6.390625 
Q 38.8125 6.390625 42.859375 10.171875 
Q 46.921875 13.96875 46.921875 20.515625 
Q 46.921875 27.09375 42.890625 30.859375 
Q 38.875 34.625 31.78125 34.625 
z
M 21.921875 38.8125 
Q 15.578125 40.375 12.03125 44.71875 
Q 8.5 49.078125 8.5 55.328125 
Q 8.5 64.0625 14.71875 69.140625 
Q 20.953125 74.21875 31.78125 74.21875 
Q 42.671875 74.21875 48.875 69.140625 
Q 55.078125 64.0625 55.078125 55.328125 
Q 55.078125 49.078125 51.53125 44.71875 
Q 48 40.375 41.703125 38.8125 
Q 48.828125 37.15625 52.796875 32.3125 
Q 56.78125 27.484375 56.78125 20.515625 
Q 56.78125 9.90625 50.3125 4.234375 
Q 43.84375 -1.421875 31.78125 -1.421875 
Q 19.734375 -1.421875 13.25 4.234375 
Q 6.78125 9.90625 6.78125 20.515625 
Q 6.78125 27.484375 10.78125 32.3125 
Q 14.796875 37.15625 21.921875 38.8125 
z
M 18.3125 54.390625 
Q 18.3125 48.734375 21.84375 45.5625 
Q 25.390625 42.390625 31.78125 42.390625 
Q 38.140625 42.390625 41.71875 45.5625 
Q 45.3125 48.734375 45.3125 54.390625 
Q 45.3125 60.0625 41.71875 63.234375 
Q 38.140625 66.40625 31.78125 66.40625 
Q 25.390625 66.40625 21.84375 63.234375 
Q 18.3125 60.0625 18.3125 54.390625 
z
" id="DejaVuSans-56"/>
     </defs>
     <g transform="translate(339.721875 68.272812)scale(0.1 -0.1)">
      <use xlink:href="#DejaVuSans-99"/>
      <use x="54.980469" xlink:href="#DejaVuSans-104"/>
      <use x="118.359375" xlink:href="#DejaVuSans-49"/>
      <use x="181.982422" xlink:href="#DejaVuSans-56"/>
     </g>
    </g>
    <g id="line2d_35">
     <path d="M 311.721875 79.450938 
L 331.721875 79.450938 
" style="fill:none;stroke:#7f7f7f;stroke-linecap:square;stroke-width:1.5;"/>
    </g>
    <g id="line2d_36"/>
    <g id="text_21">
     <!-- ch21 -->
     <g transform="translate(339.721875 82.950938)scale(0.1 -0.1)">
      <use xlink:href="#DejaVuSans-99"/>
      <use x="54.980469" xlink:href="#DejaVuSans-104"/>
      <use x="118.359375" xlink:href="#DejaVuSans-50"/>
      <use x="181.982422" xlink:href="#DejaVuSans-49"/>
     </g>
    </g>
   </g>
  </g>
 </g>
 <defs>
  <clipPath id="pc6b4e34169">
   <rect height="217.44" width="334.8" x="38.482813" y="22.318125"/>
  </clipPath>
 </defs>
</svg>
