<?xml version="1.0" encoding="utf-8" standalone="no"?>
<!DOCTYPE svg PUBLIC "-//W3C//DTD SVG 1.1//EN"
  "http://www.w3.org/Graphics/SVG/1.1/DTD/svg11.dtd">
<!-- Created with matplotlib (https://matplotlib.org/) -->
<svg height="248.518125pt" version="1.1" viewBox="0 0 380.482812 248.518125" width="380.482812pt" xmlns="http://www.w3.org/2000/svg" xmlns:xlink="http://www.w3.org/1999/xlink">
 <defs>
  <style type="text/css">
*{stroke-linecap:butt;stroke-linejoin:round;}
  </style>
 </defs>
 <g id="figure_1">
  <g id="patch_1">
   <path d="M -0 248.518125 
L 380.482812 248.518125 
L 380.482812 0 
L -0 0 
z
" style="fill:none;"/>
  </g>
  <g id="axes_1">
   <g id="patch_2">
    <path d="M 38.482813 224.64 
L 373.282813 224.64 
L 373.282813 7.2 
L 38.482813 7.2 
z
" style="fill:#ffffff;"/>
   </g>
   <g id="matplotlib.axis_1">
    <g id="xtick_1">
     <g id="line2d_1">
      <defs>
       <path d="M 0 0 
L 0 3.5 
" id="m8b862e0f90" style="stroke:#000000;stroke-width:0.8;"/>
      </defs>
      <g>
       <use style="stroke:#000000;stroke-width:0.8;" x="53.700994" xlink:href="#m8b862e0f90" y="224.64"/>
      </g>
     </g>
     <g id="text_1">
      <!-- 0 -->
      <defs>
       <path d="M 31.78125 66.40625 
Q 24.171875 66.40625 20.328125 58.90625 
Q 16.5 51.421875 16.5 36.375 
Q 16.5 21.390625 20.328125 13.890625 
Q 24.171875 6.390625 31.78125 6.390625 
Q 39.453125 6.390625 43.28125 13.890625 
Q 47.125 21.390625 47.125 36.375 
Q 47.125 51.421875 43.28125 58.90625 
Q 39.453125 66.40625 31.78125 66.40625 
z
M 31.78125 74.21875 
Q 44.046875 74.21875 50.515625 64.515625 
Q 56.984375 54.828125 56.984375 36.375 
Q 56.984375 17.96875 50.515625 8.265625 
Q 44.046875 -1.421875 31.78125 -1.421875 
Q 19.53125 -1.421875 13.0625 8.265625 
Q 6.59375 17.96875 6.59375 36.375 
Q 6.59375 54.828125 13.0625 64.515625 
Q 19.53125 74.21875 31.78125 74.21875 
z
" id="DejaVuSans-48"/>
      </defs>
      <g transform="translate(50.519744 239.238437)scale(0.1 -0.1)">
       <use xlink:href="#DejaVuSans-48"/>
      </g>
     </g>
    </g>
    <g id="xtick_2">
     <g id="line2d_2">
      <g>
       <use style="stroke:#000000;stroke-width:0.8;" x="114.573722" xlink:href="#m8b862e0f90" y="224.64"/>
      </g>
     </g>
     <g id="text_2">
      <!-- 10 -->
      <defs>
       <path d="M 12.40625 8.296875 
L 28.515625 8.296875 
L 28.515625 63.921875 
L 10.984375 60.40625 
L 10.984375 69.390625 
L 28.421875 72.90625 
L 38.28125 72.90625 
L 38.28125 8.296875 
L 54.390625 8.296875 
L 54.390625 0 
L 12.40625 0 
z
" id="DejaVuSans-49"/>
      </defs>
      <g transform="translate(108.211222 239.238437)scale(0.1 -0.1)">
       <use xlink:href="#DejaVuSans-49"/>
       <use x="63.623047" xlink:href="#DejaVuSans-48"/>
      </g>
     </g>
    </g>
    <g id="xtick_3">
     <g id="line2d_3">
      <g>
       <use style="stroke:#000000;stroke-width:0.8;" x="175.446449" xlink:href="#m8b862e0f90" y="224.64"/>
      </g>
     </g>
     <g id="text_3">
      <!-- 20 -->
      <defs>
       <path d="M 19.1875 8.296875 
L 53.609375 8.296875 
L 53.609375 0 
L 7.328125 0 
L 7.328125 8.296875 
Q 12.9375 14.109375 22.625 23.890625 
Q 32.328125 33.6875 34.8125 36.53125 
Q 39.546875 41.84375 41.421875 45.53125 
Q 43.3125 49.21875 43.3125 52.78125 
Q 43.3125 58.59375 39.234375 62.25 
Q 35.15625 65.921875 28.609375 65.921875 
Q 23.96875 65.921875 18.8125 64.3125 
Q 13.671875 62.703125 7.8125 59.421875 
L 7.8125 69.390625 
Q 13.765625 71.78125 18.9375 73 
Q 24.125 74.21875 28.421875 74.21875 
Q 39.75 74.21875 46.484375 68.546875 
Q 53.21875 62.890625 53.21875 53.421875 
Q 53.21875 48.921875 51.53125 44.890625 
Q 49.859375 40.875 45.40625 35.40625 
Q 44.1875 33.984375 37.640625 27.21875 
Q 31.109375 20.453125 19.1875 8.296875 
z
" id="DejaVuSans-50"/>
      </defs>
      <g transform="translate(169.083949 239.238437)scale(0.1 -0.1)">
       <use xlink:href="#DejaVuSans-50"/>
       <use x="63.623047" xlink:href="#DejaVuSans-48"/>
      </g>
     </g>
    </g>
    <g id="xtick_4">
     <g id="line2d_4">
      <g>
       <use style="stroke:#000000;stroke-width:0.8;" x="236.319176" xlink:href="#m8b862e0f90" y="224.64"/>
      </g>
     </g>
     <g id="text_4">
      <!-- 30 -->
      <defs>
       <path d="M 40.578125 39.3125 
Q 47.65625 37.796875 51.625 33 
Q 55.609375 28.21875 55.609375 21.1875 
Q 55.609375 10.40625 48.1875 4.484375 
Q 40.765625 -1.421875 27.09375 -1.421875 
Q 22.515625 -1.421875 17.65625 -0.515625 
Q 12.796875 0.390625 7.625 2.203125 
L 7.625 11.71875 
Q 11.71875 9.328125 16.59375 8.109375 
Q 21.484375 6.890625 26.8125 6.890625 
Q 36.078125 6.890625 40.9375 10.546875 
Q 45.796875 14.203125 45.796875 21.1875 
Q 45.796875 27.640625 41.28125 31.265625 
Q 36.765625 34.90625 28.71875 34.90625 
L 20.21875 34.90625 
L 20.21875 43.015625 
L 29.109375 43.015625 
Q 36.375 43.015625 40.234375 45.921875 
Q 44.09375 48.828125 44.09375 54.296875 
Q 44.09375 59.90625 40.109375 62.90625 
Q 36.140625 65.921875 28.71875 65.921875 
Q 24.65625 65.921875 20.015625 65.03125 
Q 15.375 64.15625 9.8125 62.3125 
L 9.8125 71.09375 
Q 15.4375 72.65625 20.34375 73.4375 
Q 25.25 74.21875 29.59375 74.21875 
Q 40.828125 74.21875 47.359375 69.109375 
Q 53.90625 64.015625 53.90625 55.328125 
Q 53.90625 49.265625 50.4375 45.09375 
Q 46.96875 40.921875 40.578125 39.3125 
z
" id="DejaVuSans-51"/>
      </defs>
      <g transform="translate(229.956676 239.238437)scale(0.1 -0.1)">
       <use xlink:href="#DejaVuSans-51"/>
       <use x="63.623047" xlink:href="#DejaVuSans-48"/>
      </g>
     </g>
    </g>
    <g id="xtick_5">
     <g id="line2d_5">
      <g>
       <use style="stroke:#000000;stroke-width:0.8;" x="297.191903" xlink:href="#m8b862e0f90" y="224.64"/>
      </g>
     </g>
     <g id="text_5">
      <!-- 40 -->
      <defs>
       <path d="M 37.796875 64.3125 
L 12.890625 25.390625 
L 37.796875 25.390625 
z
M 35.203125 72.90625 
L 47.609375 72.90625 
L 47.609375 25.390625 
L 58.015625 25.390625 
L 58.015625 17.1875 
L 47.609375 17.1875 
L 47.609375 0 
L 37.796875 0 
L 37.796875 17.1875 
L 4.890625 17.1875 
L 4.890625 26.703125 
z
" id="DejaVuSans-52"/>
      </defs>
      <g transform="translate(290.829403 239.238437)scale(0.1 -0.1)">
       <use xlink:href="#DejaVuSans-52"/>
       <use x="63.623047" xlink:href="#DejaVuSans-48"/>
      </g>
     </g>
    </g>
    <g id="xtick_6">
     <g id="line2d_6">
      <g>
       <use style="stroke:#000000;stroke-width:0.8;" x="358.064631" xlink:href="#m8b862e0f90" y="224.64"/>
      </g>
     </g>
     <g id="text_6">
      <!-- 50 -->
      <defs>
       <path d="M 10.796875 72.90625 
L 49.515625 72.90625 
L 49.515625 64.59375 
L 19.828125 64.59375 
L 19.828125 46.734375 
Q 21.96875 47.46875 24.109375 47.828125 
Q 26.265625 48.1875 28.421875 48.1875 
Q 40.625 48.1875 47.75 41.5 
Q 54.890625 34.8125 54.890625 23.390625 
Q 54.890625 11.625 47.5625 5.09375 
Q 40.234375 -1.421875 26.90625 -1.421875 
Q 22.3125 -1.421875 17.546875 -0.640625 
Q 12.796875 0.140625 7.71875 1.703125 
L 7.71875 11.625 
Q 12.109375 9.234375 16.796875 8.0625 
Q 21.484375 6.890625 26.703125 6.890625 
Q 35.15625 6.890625 40.078125 11.328125 
Q 45.015625 15.765625 45.015625 23.390625 
Q 45.015625 31 40.078125 35.4375 
Q 35.15625 39.890625 26.703125 39.890625 
Q 22.75 39.890625 18.8125 39.015625 
Q 14.890625 38.140625 10.796875 36.28125 
z
" id="DejaVuSans-53"/>
      </defs>
      <g transform="translate(351.702131 239.238437)scale(0.1 -0.1)">
       <use xlink:href="#DejaVuSans-53"/>
       <use x="63.623047" xlink:href="#DejaVuSans-48"/>
      </g>
     </g>
    </g>
   </g>
   <g id="matplotlib.axis_2">
    <g id="ytick_1">
     <g id="line2d_7">
      <defs>
       <path d="M 0 0 
L -3.5 0 
" id="m613ed9e378" style="stroke:#000000;stroke-width:0.8;"/>
      </defs>
      <g>
       <use style="stroke:#000000;stroke-width:0.8;" x="38.482813" xlink:href="#m613ed9e378" y="218.402873"/>
      </g>
     </g>
     <g id="text_7">
      <!-- −2.0 -->
      <defs>
       <path d="M 10.59375 35.5 
L 73.1875 35.5 
L 73.1875 27.203125 
L 10.59375 27.203125 
z
" id="DejaVuSans-8722"/>
       <path d="M 10.6875 12.40625 
L 21 12.40625 
L 21 0 
L 10.6875 0 
z
" id="DejaVuSans-46"/>
      </defs>
      <g transform="translate(7.2 222.202092)scale(0.1 -0.1)">
       <use xlink:href="#DejaVuSans-8722"/>
       <use x="83.789062" xlink:href="#DejaVuSans-50"/>
       <use x="147.412109" xlink:href="#DejaVuSans-46"/>
       <use x="179.199219" xlink:href="#DejaVuSans-48"/>
      </g>
     </g>
    </g>
    <g id="ytick_2">
     <g id="line2d_8">
      <g>
       <use style="stroke:#000000;stroke-width:0.8;" x="38.482813" xlink:href="#m613ed9e378" y="193.98111"/>
      </g>
     </g>
     <g id="text_8">
      <!-- −1.5 -->
      <g transform="translate(7.2 197.780329)scale(0.1 -0.1)">
       <use xlink:href="#DejaVuSans-8722"/>
       <use x="83.789062" xlink:href="#DejaVuSans-49"/>
       <use x="147.412109" xlink:href="#DejaVuSans-46"/>
       <use x="179.199219" xlink:href="#DejaVuSans-53"/>
      </g>
     </g>
    </g>
    <g id="ytick_3">
     <g id="line2d_9">
      <g>
       <use style="stroke:#000000;stroke-width:0.8;" x="38.482813" xlink:href="#m613ed9e378" y="169.559347"/>
      </g>
     </g>
     <g id="text_9">
      <!-- −1.0 -->
      <g transform="translate(7.2 173.358566)scale(0.1 -0.1)">
       <use xlink:href="#DejaVuSans-8722"/>
       <use x="83.789062" xlink:href="#DejaVuSans-49"/>
       <use x="147.412109" xlink:href="#DejaVuSans-46"/>
       <use x="179.199219" xlink:href="#DejaVuSans-48"/>
      </g>
     </g>
    </g>
    <g id="ytick_4">
     <g id="line2d_10">
      <g>
       <use style="stroke:#000000;stroke-width:0.8;" x="38.482813" xlink:href="#m613ed9e378" y="145.137584"/>
      </g>
     </g>
     <g id="text_10">
      <!-- −0.5 -->
      <g transform="translate(7.2 148.936803)scale(0.1 -0.1)">
       <use xlink:href="#DejaVuSans-8722"/>
       <use x="83.789062" xlink:href="#DejaVuSans-48"/>
       <use x="147.412109" xlink:href="#DejaVuSans-46"/>
       <use x="179.199219" xlink:href="#DejaVuSans-53"/>
      </g>
     </g>
    </g>
    <g id="ytick_5">
     <g id="line2d_11">
      <g>
       <use style="stroke:#000000;stroke-width:0.8;" x="38.482813" xlink:href="#m613ed9e378" y="120.715821"/>
      </g>
     </g>
     <g id="text_11">
      <!-- 0.0 -->
      <g transform="translate(15.579688 124.51504)scale(0.1 -0.1)">
       <use xlink:href="#DejaVuSans-48"/>
       <use x="63.623047" xlink:href="#DejaVuSans-46"/>
       <use x="95.410156" xlink:href="#DejaVuSans-48"/>
      </g>
     </g>
    </g>
    <g id="ytick_6">
     <g id="line2d_12">
      <g>
       <use style="stroke:#000000;stroke-width:0.8;" x="38.482813" xlink:href="#m613ed9e378" y="96.294058"/>
      </g>
     </g>
     <g id="text_12">
      <!-- 0.5 -->
      <g transform="translate(15.579688 100.093277)scale(0.1 -0.1)">
       <use xlink:href="#DejaVuSans-48"/>
       <use x="63.623047" xlink:href="#DejaVuSans-46"/>
       <use x="95.410156" xlink:href="#DejaVuSans-53"/>
      </g>
     </g>
    </g>
    <g id="ytick_7">
     <g id="line2d_13">
      <g>
       <use style="stroke:#000000;stroke-width:0.8;" x="38.482813" xlink:href="#m613ed9e378" y="71.872295"/>
      </g>
     </g>
     <g id="text_13">
      <!-- 1.0 -->
      <g transform="translate(15.579688 75.671514)scale(0.1 -0.1)">
       <use xlink:href="#DejaVuSans-49"/>
       <use x="63.623047" xlink:href="#DejaVuSans-46"/>
       <use x="95.410156" xlink:href="#DejaVuSans-48"/>
      </g>
     </g>
    </g>
    <g id="ytick_8">
     <g id="line2d_14">
      <g>
       <use style="stroke:#000000;stroke-width:0.8;" x="38.482813" xlink:href="#m613ed9e378" y="47.450532"/>
      </g>
     </g>
     <g id="text_14">
      <!-- 1.5 -->
      <g transform="translate(15.579688 51.249751)scale(0.1 -0.1)">
       <use xlink:href="#DejaVuSans-49"/>
       <use x="63.623047" xlink:href="#DejaVuSans-46"/>
       <use x="95.410156" xlink:href="#DejaVuSans-53"/>
      </g>
     </g>
    </g>
    <g id="ytick_9">
     <g id="line2d_15">
      <g>
       <use style="stroke:#000000;stroke-width:0.8;" x="38.482813" xlink:href="#m613ed9e378" y="23.028769"/>
      </g>
     </g>
     <g id="text_15">
      <!-- 2.0 -->
      <g transform="translate(15.579688 26.827988)scale(0.1 -0.1)">
       <use xlink:href="#DejaVuSans-50"/>
       <use x="63.623047" xlink:href="#DejaVuSans-46"/>
       <use x="95.410156" xlink:href="#DejaVuSans-48"/>
      </g>
     </g>
    </g>
   </g>
   <g id="line2d_16">
    <path clip-path="url(#p9bcdac9180)" d="M 53.700994 149.389999 
L 59.788267 149.402698 
L 65.87554 149.358496 
L 71.962812 149.272383 
L 78.050085 149.306916 
L 84.137358 149.223249 
L 90.224631 149.188325 
L 96.311903 149.213478 
L 102.399176 149.323622 
L 108.486449 149.805512 
L 114.573722 150.060865 
L 120.660994 149.948722 
L 126.748267 149.837845 
L 132.83554 149.772736 
L 138.922812 149.351168 
L 145.010085 149.071931 
L 151.097358 148.810959 
L 157.184631 148.470421 
L 163.271903 148.288869 
L 169.359176 148.244862 
L 175.446449 148.260248 
L 181.533722 148.343331 
L 187.620994 148.295073 
L 193.708267 146.587406 
L 199.79554 147.891285 
L 205.882812 148.383822 
L 211.970085 148.463341 
L 218.057358 148.746241 
L 224.144631 148.872306 
L 230.231903 149.233555 
L 236.319176 150.740523 
L 242.406449 150.775493 
L 248.493722 150.907323 
L 254.580994 150.740278 
L 260.668267 150.990015 
L 266.75554 151.485388 
L 272.842812 151.037539 
L 278.930085 151.137671 
L 285.017358 151.307644 
L 291.104631 151.087899 
L 297.191903 150.827367 
L 303.279176 150.423039 
L 309.366449 149.965572 
L 315.453722 149.832325 
L 321.540994 149.733125 
L 327.628267 149.93558 
L 333.71554 150.242367 
L 339.802812 150.386407 
L 345.890085 150.326524 
L 351.977358 150.133936 
L 358.064631 150.065162 
" style="fill:none;stroke:#1f77b4;stroke-linecap:square;stroke-width:1.5;"/>
   </g>
   <g id="line2d_17">
    <path clip-path="url(#p9bcdac9180)" d="M 53.700994 206.437868 
L 59.788267 206.322697 
L 65.87554 206.254707 
L 71.962812 206.213774 
L 78.050085 206.224866 
L 84.137358 206.191403 
L 90.224631 206.419946 
L 96.311903 206.654294 
L 102.399176 206.665969 
L 108.486449 205.485518 
L 114.573722 205.171796 
L 120.660994 204.842935 
L 126.748267 204.412034 
L 132.83554 203.539691 
L 138.922812 202.312695 
L 145.010085 201.997406 
L 151.097358 201.981045 
L 157.184631 203.298991 
L 163.271903 202.776366 
L 169.359176 202.280455 
L 175.446449 202.240745 
L 181.533722 202.257648 
L 187.620994 201.945731 
L 193.708267 205.63361 
L 199.79554 203.390813 
L 205.882812 202.970858 
L 211.970085 204.181639 
L 218.057358 204.871751 
L 224.144631 203.680214 
L 230.231903 204.066468 
L 236.319176 206.560661 
L 242.406449 207.821458 
L 248.493722 207.827322 
L 254.580994 208.74929 
L 260.668267 208.658149 
L 266.75554 208.988628 
L 272.842812 208.830614 
L 278.930085 209.470809 
L 285.017358 209.721036 
L 291.104631 209.341472 
L 297.191903 209.234796 
L 303.279176 208.995021 
L 309.366449 208.649019 
L 315.453722 208.560999 
L 321.540994 208.592307 
L 327.628267 208.443871 
L 333.71554 209.023698 
L 339.802812 209.164901 
L 345.890085 209.145611 
L 351.977358 208.952138 
L 358.064631 208.761599 
" style="fill:none;stroke:#ff7f0e;stroke-linecap:square;stroke-width:1.5;"/>
   </g>
   <g id="line2d_18">
    <path clip-path="url(#p9bcdac9180)" d="M 53.700994 152.404817 
L 59.788267 152.583437 
L 65.87554 152.582264 
L 71.962812 152.774317 
L 78.050085 152.500014 
L 84.137358 152.626763 
L 90.224631 152.584707 
L 96.311903 152.74008 
L 102.399176 153.063718 
L 108.486449 153.081788 
L 114.573722 153.172929 
L 120.660994 153.787039 
L 126.748267 154.303073 
L 132.83554 154.133926 
L 138.922812 154.008644 
L 145.010085 154.269124 
L 151.097358 154.247342 
L 157.184631 154.049426 
L 163.271903 154.524966 
L 169.359176 154.808454 
L 175.446449 154.776121 
L 181.533722 154.409845 
L 187.620994 154.434559 
L 193.708267 153.80775 
L 199.79554 154.842354 
L 205.882812 154.843183 
L 211.970085 155.190755 
L 218.057358 154.919966 
L 224.144631 154.378828 
L 230.231903 153.823427 
L 236.319176 154.169631 
L 242.406449 154.527802 
L 248.493722 154.618358 
L 254.580994 154.587635 
L 260.668267 154.569221 
L 266.75554 153.883115 
L 272.842812 154.134415 
L 278.930085 154.232296 
L 285.017358 154.444766 
L 291.104631 154.640484 
L 297.191903 154.826234 
L 303.279176 154.726839 
L 309.366449 154.878791 
L 315.453722 154.742176 
L 321.540994 154.594229 
L 327.628267 154.652449 
L 333.71554 154.458344 
L 339.802812 154.594375 
L 345.890085 154.513685 
L 351.977358 154.456341 
L 358.064631 154.720245 
" style="fill:none;stroke:#2ca02c;stroke-linecap:square;stroke-width:1.5;"/>
   </g>
   <g id="line2d_19">
    <path clip-path="url(#p9bcdac9180)" d="M 53.700994 94.210393 
L 59.788267 94.105869 
L 65.87554 94.269592 
L 71.962812 94.307884 
L 78.050085 94.292742 
L 84.137358 94.413046 
L 90.224631 93.655092 
L 96.311903 89.002207 
L 102.399176 78.101358 
L 108.486449 63.51473 
L 114.573722 48.371965 
L 120.660994 34.760107 
L 126.748267 24.5649 
L 132.83554 19.646944 
L 138.922812 17.083636 
L 145.010085 19.325653 
L 151.097358 19.845634 
L 157.184631 20.38936 
L 163.271903 20.590601 
L 169.359176 21.082157 
L 175.446449 21.001712 
L 181.533722 21.226977 
L 187.620994 21.164162 
L 193.708267 20.221192 
L 199.79554 18.883903 
L 205.882812 21.853349 
L 211.970085 24.555566 
L 218.057358 38.974128 
L 224.144631 52.09404 
L 230.231903 65.734714 
L 236.319176 76.562349 
L 242.406449 90.763556 
L 248.493722 94.186803 
L 254.580994 93.120644 
L 260.668267 92.937677 
L 266.75554 93.801769 
L 272.842812 97.134411 
L 278.930085 97.137293 
L 285.017358 97.131481 
L 291.104631 93.046746 
L 297.191903 93.432951 
L 303.279176 93.694753 
L 309.366449 93.248272 
L 315.453722 93.191566 
L 321.540994 93.236601 
L 327.628267 93.270838 
L 333.71554 93.373997 
L 339.802812 93.386256 
L 345.890085 93.562533 
L 351.977358 93.29614 
L 358.064631 93.429874 
" style="fill:none;stroke:#d62728;stroke-linecap:square;stroke-width:1.5;"/>
   </g>
   <g id="line2d_20">
    <path clip-path="url(#p9bcdac9180)" d="M 53.700994 206.656984 
L 59.788267 206.565546 
L 65.87554 206.511035 
L 71.962812 206.623376 
L 78.050085 206.665579 
L 84.137358 206.788517 
L 90.224631 206.624454 
L 96.311903 206.191112 
L 102.399176 204.182716 
L 108.486449 197.023868 
L 114.573722 186.347941 
L 120.660994 172.192258 
L 126.748267 155.923847 
L 132.83554 140.238677 
L 138.922812 122.680747 
L 145.010085 112.024604 
L 151.097358 105.172638 
L 157.184631 100.338839 
L 163.271903 101.775475 
L 169.359176 104.352117 
L 175.446449 104.634921 
L 181.533722 104.95504 
L 187.620994 108.592565 
L 193.708267 116.105187 
L 199.79554 126.306011 
L 205.882812 138.271161 
L 211.970085 152.272842 
L 218.057358 175.158815 
L 224.144631 188.202579 
L 230.231903 197.779182 
L 236.319176 206.347606 
L 242.406449 211.251885 
L 248.493722 211.861552 
L 254.580994 212.806287 
L 260.668267 211.588519 
L 266.75554 211.176768 
L 272.842812 214.716846 
L 278.930085 214.715675 
L 285.017358 214.756364 
L 291.104631 211.2768 
L 297.191903 212.447038 
L 303.279176 212.291959 
L 309.366449 211.748087 
L 315.453722 210.413879 
L 321.540994 210.466975 
L 327.628267 210.333387 
L 333.71554 211.109703 
L 339.802812 211.265073 
L 345.890085 211.125139 
L 351.977358 211.056269 
L 358.064631 210.914378 
" style="fill:none;stroke:#9467bd;stroke-linecap:square;stroke-width:1.5;"/>
   </g>
   <g id="line2d_21">
    <path clip-path="url(#p9bcdac9180)" d="M 53.700994 148.710097 
L 59.788267 148.462607 
L 65.87554 148.842657 
L 71.962812 148.799823 
L 78.050085 148.48747 
L 84.137358 148.488445 
L 90.224631 147.402067 
L 96.311903 146.244379 
L 102.399176 146.503689 
L 108.486449 146.920666 
L 114.573722 145.924404 
L 120.660994 143.763811 
L 126.748267 140.714217 
L 132.83554 137.326722 
L 138.922812 133.355744 
L 145.010085 132.554124 
L 151.097358 130.592617 
L 157.184631 128.46045 
L 163.271903 128.942927 
L 169.359176 130.362027 
L 175.446449 130.771384 
L 181.533722 132.101491 
L 187.620994 134.336522 
L 193.708267 136.214898 
L 199.79554 137.762749 
L 205.882812 141.360123 
L 211.970085 143.340045 
L 218.057358 147.864224 
L 224.144631 148.771004 
L 230.231903 149.655609 
L 236.319176 149.169521 
L 242.406449 148.668189 
L 248.493722 149.391513 
L 254.580994 148.895899 
L 260.668267 149.414568 
L 266.75554 149.466342 
L 272.842812 149.555629 
L 278.930085 149.598658 
L 285.017358 149.555189 
L 291.104631 149.694149 
L 297.191903 149.603202 
L 303.279176 149.567495 
L 309.366449 149.952873 
L 315.453722 149.63539 
L 321.540994 149.681301 
L 327.628267 149.559387 
L 333.71554 149.426926 
L 339.802812 149.552991 
L 345.890085 149.730487 
L 351.977358 149.450077 
L 358.064631 149.533989 
" style="fill:none;stroke:#8c564b;stroke-linecap:square;stroke-width:1.5;"/>
   </g>
   <g id="line2d_22">
    <path clip-path="url(#p9bcdac9180)" d="M 53.700994 154.120933 
L 59.788267 154.077805 
L 65.87554 154.028083 
L 71.962812 154.018511 
L 78.050085 154.001902 
L 84.137358 153.994478 
L 90.224631 153.996481 
L 96.311903 154.020071 
L 102.399176 153.984076 
L 108.486449 153.957065 
L 114.573722 153.729113 
L 120.660994 153.473268 
L 126.748267 153.284732 
L 132.83554 152.975115 
L 138.922812 152.538012 
L 145.010085 152.199431 
L 151.097358 151.994874 
L 157.184631 151.906662 
L 163.271903 151.775906 
L 169.359176 151.700297 
L 175.446449 151.661125 
L 181.533722 151.662345 
L 187.620994 151.728237 
L 193.708267 151.686474 
L 199.79554 151.783089 
L 205.882812 151.784064 
L 211.970085 151.921119 
L 218.057358 152.158597 
L 224.144631 152.259264 
L 230.231903 152.475297 
L 236.319176 153.927122 
L 242.406449 154.374871 
L 248.493722 154.270003 
L 254.580994 154.586511 
L 260.668267 154.769868 
L 266.75554 154.581137 
L 272.842812 154.492095 
L 278.930085 154.794192 
L 285.017358 154.918353 
L 291.104631 154.747547 
L 297.191903 154.634915 
L 303.279176 154.512026 
L 309.366449 154.391626 
L 315.453722 154.292228 
L 321.540994 154.223504 
L 327.628267 154.160792 
L 333.71554 154.527118 
L 339.802812 154.646394 
L 345.890085 154.585143 
L 351.977358 154.487259 
L 358.064631 154.410919 
" style="fill:none;stroke:#e377c2;stroke-linecap:square;stroke-width:1.5;"/>
   </g>
   <g id="line2d_23">
    <path clip-path="url(#p9bcdac9180)" d="M 53.700994 157.348466 
L 59.788267 157.329466 
L 65.87554 157.31452 
L 71.962812 157.316083 
L 78.050085 157.335423 
L 84.137358 157.33264 
L 90.224631 157.415967 
L 96.311903 157.528355 
L 102.399176 157.524107 
L 108.486449 157.468132 
L 114.573722 157.557759 
L 120.660994 157.712739 
L 126.748267 157.751864 
L 132.83554 157.575099 
L 138.922812 157.54301 
L 145.010085 157.636839 
L 151.097358 157.81292 
L 157.184631 157.906309 
L 163.271903 158.090105 
L 169.359176 158.099287 
L 175.446449 158.093377 
L 181.533722 158.087811 
L 187.620994 158.188085 
L 193.708267 158.24367 
L 199.79554 158.394548 
L 205.882812 158.537074 
L 211.970085 158.630413 
L 218.057358 158.549284 
L 224.144631 157.707857 
L 230.231903 157.231973 
L 236.319176 158.385561 
L 242.406449 158.781143 
L 248.493722 158.645896 
L 254.580994 158.912483 
L 260.668267 158.826422 
L 266.75554 158.546987 
L 272.842812 158.49038 
L 278.930085 158.700602 
L 285.017358 158.852994 
L 291.104631 158.779728 
L 297.191903 158.744268 
L 303.279176 158.584304 
L 309.366449 158.443292 
L 315.453722 158.369002 
L 321.540994 158.411154 
L 327.628267 158.361432 
L 333.71554 158.644041 
L 339.802812 158.717353 
L 345.890085 158.690735 
L 351.977358 158.61659 
L 358.064631 158.595099 
" style="fill:none;stroke:#7f7f7f;stroke-linecap:square;stroke-width:1.5;"/>
   </g>
   <g id="line2d_24">
    <path clip-path="url(#p9bcdac9180)" d="M 53.700994 127.850199 
L 59.788267 127.855328 
L 65.87554 127.873742 
L 71.962812 127.876917 
L 78.050085 127.887174 
L 84.137358 127.895526 
L 90.224631 127.895819 
L 96.311903 127.919509 
L 102.399176 128.019589 
L 108.486449 128.203631 
L 114.573722 128.598922 
L 120.660994 129.169707 
L 126.748267 129.544582 
L 132.83554 129.684762 
L 138.922812 129.887903 
L 145.010085 129.978654 
L 151.097358 130.080444 
L 157.184631 130.157177 
L 163.271903 130.270494 
L 169.359176 130.293402 
L 175.446449 130.274646 
L 181.533722 130.24407 
L 187.620994 130.091629 
L 193.708267 129.984369 
L 199.79554 129.877841 
L 205.882812 129.848974 
L 211.970085 129.792511 
L 218.057358 129.51928 
L 224.144631 128.724401 
L 230.231903 127.84639 
L 236.319176 127.575015 
L 242.406449 127.55919 
L 248.493722 127.611648 
L 254.580994 127.691214 
L 260.668267 127.746065 
L 266.75554 127.941928 
L 272.842812 127.967277 
L 278.930085 127.954041 
L 285.017358 127.988134 
L 291.104631 128.112001 
L 297.191903 128.252329 
L 303.279176 128.352653 
L 309.366449 128.424501 
L 315.453722 128.502553 
L 321.540994 128.55975 
L 327.628267 128.611523 
L 333.71554 128.709602 
L 339.802812 128.702617 
L 345.890085 128.714241 
L 351.977358 128.740715 
L 358.064631 128.77681 
" style="fill:none;stroke:#bcbd22;stroke-linecap:square;stroke-width:1.5;"/>
   </g>
   <g id="line2d_25">
    <path clip-path="url(#p9bcdac9180)" d="M 53.700994 91.970185 
L 59.788267 91.976829 
L 65.87554 91.987819 
L 71.962812 91.994168 
L 78.050085 91.997732 
L 84.137358 92.000958 
L 90.224631 91.829124 
L 96.311903 91.12734 
L 102.399176 87.515266 
L 108.486449 81.892789 
L 114.573722 76.57246 
L 120.660994 71.250907 
L 126.748267 68.682767 
L 132.83554 66.082626 
L 138.922812 65.994023 
L 145.010085 65.584083 
L 151.097358 65.82713 
L 157.184631 66.775422 
L 163.271903 67.233772 
L 169.359176 67.266058 
L 175.446449 67.258535 
L 181.533722 67.232159 
L 187.620994 66.85001 
L 193.708267 66.470056 
L 199.79554 66.024015 
L 205.882812 65.999054 
L 211.970085 67.927011 
L 218.057358 71.573077 
L 224.144631 76.275833 
L 230.231903 81.482747 
L 236.319176 85.215664 
L 242.406449 89.237096 
L 248.493722 89.990949 
L 254.580994 90.186125 
L 260.668267 90.25402 
L 266.75554 90.259586 
L 272.842812 90.25905 
L 278.930085 90.147492 
L 285.017358 90.027142 
L 291.104631 89.897511 
L 297.191903 89.874261 
L 303.279176 89.92628 
L 309.366449 89.995147 
L 315.453722 90.004233 
L 321.540994 89.972337 
L 327.628267 89.965696 
L 333.71554 89.929599 
L 339.802812 89.935119 
L 345.890085 89.925986 
L 351.977358 89.961495 
L 358.064631 89.948747 
" style="fill:none;stroke:#17becf;stroke-linecap:square;stroke-width:1.5;"/>
   </g>
   <g id="line2d_26">
    <path clip-path="url(#p9bcdac9180)" d="M 53.700994 160.444218 
L 59.788267 160.417501 
L 65.87554 160.367336 
L 71.962812 160.352588 
L 78.050085 160.347263 
L 84.137358 160.345894 
L 90.224631 160.41794 
L 96.311903 160.319422 
L 102.399176 157.876709 
L 108.486449 154.167141 
L 114.573722 148.631899 
L 120.660994 143.005662 
L 126.748267 135.289557 
L 132.83554 129.782254 
L 138.922812 121.925187 
L 145.010085 117.590031 
L 151.097358 114.762039 
L 157.184631 113.049048 
L 163.271903 112.317177 
L 169.359176 112.303842 
L 175.446449 112.359231 
L 181.533722 112.460141 
L 187.620994 113.202612 
L 193.708267 115.370825 
L 199.79554 120.079097 
L 205.882812 125.299835 
L 211.970085 131.516932 
L 218.057358 143.08513 
L 224.144631 148.241689 
L 230.231903 154.013037 
L 236.319176 157.768031 
L 242.406449 161.996122 
L 248.493722 162.363522 
L 254.580994 162.763404 
L 260.668267 162.747287 
L 266.75554 162.496376 
L 272.842812 162.458134 
L 278.930085 162.630355 
L 285.017358 162.779914 
L 291.104631 162.617216 
L 297.191903 162.551816 
L 303.279176 162.398641 
L 309.366449 162.243565 
L 315.453722 162.180946 
L 321.540994 162.189592 
L 327.628267 162.158965 
L 333.71554 162.403526 
L 339.802812 162.485584 
L 345.890085 162.464189 
L 351.977358 162.377395 
L 358.064631 162.370166 
" style="fill:none;stroke:#1f77b4;stroke-linecap:square;stroke-width:1.5;"/>
   </g>
   <g id="line2d_27">
    <path clip-path="url(#p9bcdac9180)" d="M 53.700994 124.321304 
L 59.788267 124.327409 
L 65.87554 124.344846 
L 71.962812 124.343186 
L 78.050085 124.346556 
L 84.137358 124.349291 
L 90.224631 124.294879 
L 96.311903 123.770007 
L 102.399176 122.673567 
L 108.486449 122.898541 
L 114.573722 122.678501 
L 120.660994 122.912363 
L 126.748267 122.274516 
L 132.83554 122.218053 
L 138.922812 120.995743 
L 145.010085 120.433945 
L 151.097358 120.091064 
L 157.184631 119.780809 
L 163.271903 119.739292 
L 169.359176 119.823694 
L 175.446449 119.983559 
L 181.533722 120.2289 
L 187.620994 120.868164 
L 193.708267 121.856415 
L 199.79554 123.065634 
L 205.882812 124.611092 
L 211.970085 125.894261 
L 218.057358 127.314532 
L 224.144631 127.660638 
L 230.231903 127.645057 
L 236.319176 127.389117 
L 242.406449 128.20075 
L 248.493722 128.322223 
L 254.580994 128.037075 
L 260.668267 127.549177 
L 266.75554 127.17313 
L 272.842812 127.080133 
L 278.930085 126.799966 
L 285.017358 126.599024 
L 291.104631 126.32931 
L 297.191903 126.269183 
L 303.279176 126.228497 
L 309.366449 126.190057 
L 315.453722 126.156208 
L 321.540994 126.138381 
L 327.628267 126.128514 
L 333.71554 125.849569 
L 339.802812 125.81997 
L 345.890085 125.811178 
L 351.977358 125.826759 
L 358.064631 125.837309 
" style="fill:none;stroke:#ff7f0e;stroke-linecap:square;stroke-width:1.5;"/>
   </g>
   <g id="line2d_28">
    <path clip-path="url(#p9bcdac9180)" d="M 53.700994 153.95809 
L 59.788267 153.911151 
L 65.87554 153.859426 
L 71.962812 153.840671 
L 78.050085 153.818056 
L 84.137358 153.805698 
L 90.224631 153.807995 
L 96.311903 153.830851 
L 102.399176 153.753972 
L 108.486449 153.999363 
L 114.573722 154.051478 
L 120.660994 153.838228 
L 126.748267 153.409822 
L 132.83554 153.000563 
L 138.922812 152.551835 
L 145.010085 152.162847 
L 151.097358 151.884096 
L 157.184631 151.668255 
L 163.271903 151.546147 
L 169.359176 151.600707 
L 175.446449 151.547174 
L 181.533722 151.508879 
L 187.620994 151.639634 
L 193.708267 150.444775 
L 199.79554 151.209079 
L 205.882812 151.567737 
L 211.970085 151.68496 
L 218.057358 151.950718 
L 224.144631 152.161968 
L 230.231903 152.401641 
L 236.319176 154.032869 
L 242.406449 154.385521 
L 248.493722 154.345371 
L 254.580994 154.678971 
L 260.668267 154.906338 
L 266.75554 154.787062 
L 272.842812 154.736362 
L 278.930085 155.052037 
L 285.017358 155.203599 
L 291.104631 155.108598 
L 297.191903 154.901992 
L 303.279176 154.729133 
L 309.366449 154.574738 
L 315.453722 154.493757 
L 321.540994 154.431578 
L 327.628267 154.396168 
L 333.71554 154.697484 
L 339.802812 154.800544 
L 345.890085 154.728353 
L 351.977358 154.603068 
L 358.064631 154.522722 
" style="fill:none;stroke:#2ca02c;stroke-linecap:square;stroke-width:1.5;"/>
   </g>
   <g id="line2d_29">
    <path clip-path="url(#p9bcdac9180)" d="M 53.700994 186.620293 
L 59.788267 186.579803 
L 65.87554 186.536675 
L 71.962812 186.508586 
L 78.050085 186.488854 
L 84.137358 186.478355 
L 90.224631 186.618389 
L 96.311903 186.807268 
L 102.399176 186.811123 
L 108.486449 185.734809 
L 114.573722 185.576801 
L 120.660994 185.432808 
L 126.748267 185.201098 
L 132.83554 184.570283 
L 138.922812 184.01674 
L 145.010085 183.927549 
L 151.097358 183.933215 
L 157.184631 185.175304 
L 163.271903 184.836772 
L 169.359176 184.297733 
L 175.446449 184.211721 
L 181.533722 184.188029 
L 187.620994 184.036176 
L 193.708267 187.454002 
L 199.79554 185.411369 
L 205.882812 184.645645 
L 211.970085 185.118597 
L 218.057358 185.468221 
L 224.144631 184.731074 
L 230.231903 184.570865 
L 236.319176 186.497745 
L 242.406449 187.843191 
L 248.493722 187.849101 
L 254.580994 188.42838 
L 260.668267 188.422767 
L 266.75554 188.437323 
L 272.842812 188.345495 
L 278.930085 188.773072 
L 285.017358 189.064959 
L 291.104631 188.778347 
L 297.191903 188.875445 
L 303.279176 188.708889 
L 309.366449 188.450902 
L 315.453722 188.320097 
L 321.540994 188.299776 
L 327.628267 188.216204 
L 333.71554 188.619897 
L 339.802812 188.739906 
L 345.890085 188.69194 
L 351.977358 188.57897 
L 358.064631 188.514688 
" style="fill:none;stroke:#d62728;stroke-linecap:square;stroke-width:1.5;"/>
   </g>
   <g id="line2d_30">
    <path clip-path="url(#p9bcdac9180)" d="M 53.700994 144.320089 
L 59.788267 144.32434 
L 65.87554 144.333327 
L 71.962812 144.345147 
L 78.050085 144.360631 
L 84.137358 144.375967 
L 90.224631 144.423638 
L 96.311903 144.484204 
L 102.399176 144.582185 
L 108.486449 144.504328 
L 114.573722 144.853169 
L 120.660994 145.316009 
L 126.748267 145.452724 
L 132.83554 145.318402 
L 138.922812 145.276447 
L 145.010085 145.283088 
L 151.097358 145.312297 
L 157.184631 145.624994 
L 163.271903 145.630514 
L 169.359176 145.372081 
L 175.446449 145.386148 
L 181.533722 145.41062 
L 187.620994 145.378334 
L 193.708267 146.596297 
L 199.79554 145.853825 
L 205.882812 145.816901 
L 211.970085 145.940131 
L 218.057358 145.855633 
L 224.144631 145.269364 
L 230.231903 144.596105 
L 236.319176 144.933272 
L 242.406449 144.834461 
L 248.493722 144.898153 
L 254.580994 145.100512 
L 260.668267 145.148036 
L 266.75554 145.331151 
L 272.842812 145.325386 
L 278.930085 145.406955 
L 285.017358 145.474605 
L 291.104631 145.474017 
L 297.191903 145.727175 
L 303.279176 145.816852 
L 309.366449 145.902377 
L 315.453722 145.91776 
L 321.540994 145.981844 
L 327.628267 145.997181 
L 333.71554 146.171358 
L 339.802812 146.195242 
L 345.890085 146.191676 
L 351.977358 146.217662 
L 358.064631 146.222399 
" style="fill:none;stroke:#9467bd;stroke-linecap:square;stroke-width:1.5;"/>
   </g>
   <g id="line2d_31">
    <path clip-path="url(#p9bcdac9180)" d="M 53.700994 90.536873 
L 59.788267 90.546591 
L 65.87554 90.551817 
L 71.962812 90.55377 
L 78.050085 90.55812 
L 84.137358 90.566423 
L 90.224631 90.35908 
L 96.311903 87.985776 
L 102.399176 79.557239 
L 108.486449 67.568938 
L 114.573722 56.916115 
L 120.660994 47.254817 
L 126.748267 41.467838 
L 132.83554 37.507263 
L 138.922812 37.36019 
L 145.010085 37.345441 
L 151.097358 38.42303 
L 157.184631 39.953932 
L 163.271903 40.540489 
L 169.359176 40.57893 
L 175.446449 40.487352 
L 181.533722 40.315912 
L 187.620994 39.553512 
L 193.708267 38.680727 
L 199.79554 38.056602 
L 205.882812 38.820172 
L 211.970085 42.023966 
L 218.057358 50.661162 
L 224.144631 59.473856 
L 230.231903 69.241731 
L 236.319176 78.168324 
L 242.406449 88.279276 
L 248.493722 91.479162 
L 254.580994 91.462213 
L 260.668267 91.327844 
L 266.75554 91.22493 
L 272.842812 91.190154 
L 278.930085 91.071123 
L 285.017358 90.852793 
L 291.104631 90.669628 
L 297.191903 90.64428 
L 303.279176 90.667136 
L 309.366449 90.701621 
L 315.453722 90.710803 
L 321.540994 90.670068 
L 327.628267 90.638905 
L 333.71554 90.569695 
L 339.802812 90.577853 
L 345.890085 90.565348 
L 351.977358 90.597975 
L 358.064631 90.574091 
" style="fill:none;stroke:#8c564b;stroke-linecap:square;stroke-width:1.5;"/>
   </g>
   <g id="line2d_32">
    <path clip-path="url(#p9bcdac9180)" d="M 53.700994 189.412091 
L 59.788267 189.3567 
L 65.87554 189.281094 
L 71.962812 189.262631 
L 78.050085 189.247783 
L 84.137358 189.244458 
L 90.224631 189.375117 
L 96.311903 189.192491 
L 102.399176 185.704479 
L 108.486449 179.757046 
L 114.573722 169.964163 
L 120.660994 159.120068 
L 126.748267 145.705439 
L 132.83554 134.683751 
L 138.922812 120.32561 
L 145.010085 113.830251 
L 151.097358 107.29997 
L 157.184631 104.127778 
L 163.271903 103.307011 
L 169.359176 103.437766 
L 175.446449 103.901975 
L 181.533722 104.65055 
L 187.620994 107.104352 
L 193.708267 112.920639 
L 199.79554 121.451649 
L 205.882812 131.914225 
L 211.970085 142.586682 
L 218.057358 161.908107 
L 224.144631 173.033344 
L 230.231903 180.731569 
L 236.319176 186.805656 
L 242.406449 192.306314 
L 248.493722 195.533794 
L 254.580994 195.860366 
L 260.668267 195.461314 
L 266.75554 194.935906 
L 272.842812 194.751079 
L 278.930085 195.078525 
L 285.017358 195.112378 
L 291.104631 194.827082 
L 297.191903 194.718647 
L 303.279176 194.399359 
L 309.366449 194.153529 
L 315.453722 193.97134 
L 321.540994 193.924503 
L 327.628267 193.790373 
L 333.71554 194.182787 
L 339.802812 194.30958 
L 345.890085 194.256146 
L 351.977358 194.089003 
L 358.064631 194.025216 
" style="fill:none;stroke:#e377c2;stroke-linecap:square;stroke-width:1.5;"/>
   </g>
   <g id="line2d_33">
    <path clip-path="url(#p9bcdac9180)" d="M 53.700994 138.905004 
L 59.788267 138.916434 
L 65.87554 138.919509 
L 71.962812 138.909253 
L 78.050085 138.906567 
L 84.137358 138.899436 
L 90.224631 138.890789 
L 96.311903 138.451492 
L 102.399176 137.883149 
L 108.486449 137.873331 
L 114.573722 136.46566 
L 120.660994 135.295419 
L 126.748267 132.496049 
L 132.83554 130.511342 
L 138.922812 127.503752 
L 145.010085 126.706577 
L 151.097358 125.369828 
L 157.184631 124.699401 
L 163.271903 124.758746 
L 169.359176 125.082774 
L 175.446449 125.605888 
L 181.533722 126.213502 
L 187.620994 127.774834 
L 193.708267 129.82465 
L 199.79554 132.014501 
L 205.882812 134.644431 
L 211.970085 136.959761 
L 218.057358 140.248299 
L 224.144631 141.221603 
L 230.231903 141.185752 
L 236.319176 140.749042 
L 242.406449 141.571616 
L 248.493722 143.18184 
L 254.580994 143.131092 
L 260.668267 142.891856 
L 266.75554 142.693845 
L 272.842812 142.652914 
L 278.930085 142.669862 
L 285.017358 142.584241 
L 291.104631 142.439614 
L 297.191903 142.410063 
L 303.279176 142.332842 
L 309.366449 142.278577 
L 315.453722 142.233055 
L 321.540994 142.207657 
L 327.628267 142.180255 
L 333.71554 142.067476 
L 339.802812 142.064544 
L 345.890085 142.040562 
L 351.977358 142.012477 
L 358.064631 142.001879 
" style="fill:none;stroke:#7f7f7f;stroke-linecap:square;stroke-width:1.5;"/>
   </g>
   <g id="line2d_34">
    <path clip-path="url(#p9bcdac9180)" d="M 53.700994 156.337551 
L 59.788267 156.238302 
L 65.87554 156.238107 
L 71.962812 156.257496 
L 78.050085 156.165915 
L 84.137358 156.183596 
L 90.224631 156.180178 
L 96.311903 156.210607 
L 102.399176 156.199716 
L 108.486449 156.282065 
L 114.573722 155.916813 
L 120.660994 155.64578 
L 126.748267 155.441857 
L 132.83554 154.792777 
L 138.922812 153.937332 
L 145.010085 153.564851 
L 151.097358 153.33763 
L 157.184631 153.366056 
L 163.271903 153.023175 
L 169.359176 152.680148 
L 175.446449 152.799913 
L 181.533722 152.89545 
L 187.620994 153.074169 
L 193.708267 152.887636 
L 199.79554 153.134637 
L 205.882812 153.103524 
L 211.970085 153.122328 
L 218.057358 153.367133 
L 224.144631 153.536621 
L 230.231903 154.000583 
L 236.319176 155.639724 
L 242.406449 156.353377 
L 248.493722 156.304141 
L 254.580994 156.770744 
L 260.668267 157.577346 
L 266.75554 157.298109 
L 272.842812 156.985217 
L 278.930085 157.113381 
L 285.017358 157.395501 
L 291.104631 157.409911 
L 297.191903 157.338844 
L 303.279176 156.900865 
L 309.366449 156.800928 
L 315.453722 156.692497 
L 321.540994 156.82706 
L 327.628267 156.820615 
L 333.71554 157.354035 
L 339.802812 157.491576 
L 345.890085 157.330052 
L 351.977358 157.233097 
L 358.064631 157.168378 
" style="fill:none;stroke:#bcbd22;stroke-linecap:square;stroke-width:1.5;"/>
   </g>
   <g id="line2d_35">
    <path clip-path="url(#p9bcdac9180)" d="M 53.700994 194.766858 
L 59.788267 194.686262 
L 65.87554 194.753426 
L 71.962812 194.59986 
L 78.050085 194.762946 
L 84.137358 194.791913 
L 90.224631 194.965846 
L 96.311903 195.122043 
L 102.399176 195.085902 
L 108.486449 195.256021 
L 114.573722 195.150178 
L 120.660994 194.975954 
L 126.748267 194.532749 
L 132.83554 194.548575 
L 138.922812 193.72141 
L 145.010085 193.736794 
L 151.097358 193.361044 
L 157.184631 193.979352 
L 163.271903 193.981745 
L 169.359176 194.678984 
L 175.446449 194.19519 
L 181.533722 193.758186 
L 187.620994 193.734109 
L 193.708267 194.079972 
L 199.79554 194.062434 
L 205.882812 194.435698 
L 211.970085 195.317665 
L 218.057358 195.815329 
L 224.144631 194.981229 
L 230.231903 194.471647 
L 236.319176 196.578218 
L 242.406449 197.092831 
L 248.493722 197.24752 
L 254.580994 197.378761 
L 260.668267 196.580023 
L 266.75554 197.407385 
L 272.842812 197.13777 
L 278.930085 197.874329 
L 285.017358 198.18893 
L 291.104631 197.708944 
L 297.191903 197.415589 
L 303.279176 197.427071 
L 309.366449 196.739643 
L 315.453722 196.757717 
L 321.540994 196.717424 
L 327.628267 196.44888 
L 333.71554 196.892527 
L 339.802812 196.895555 
L 345.890085 197.094741 
L 351.977358 196.912796 
L 358.064631 196.911771 
" style="fill:none;stroke:#17becf;stroke-linecap:square;stroke-width:1.5;"/>
   </g>
   <g id="line2d_36">
    <path clip-path="url(#p9bcdac9180)" d="M 53.700994 143.37995 
L 59.788267 143.514074 
L 65.87554 143.315524 
L 71.962812 143.357824 
L 78.050085 143.401245 
L 84.137358 143.30517 
L 90.224631 143.419024 
L 96.311903 143.534638 
L 102.399176 143.885969 
L 108.486449 143.913613 
L 114.573722 144.403954 
L 120.660994 144.889605 
L 126.748267 145.372474 
L 132.83554 145.868332 
L 138.922812 145.538444 
L 145.010085 145.693814 
L 151.097358 145.463711 
L 157.184631 145.431719 
L 163.271903 145.659575 
L 169.359176 145.927042 
L 175.446449 145.683264 
L 181.533722 145.902278 
L 187.620994 145.818366 
L 193.708267 145.69279 
L 199.79554 145.892997 
L 205.882812 146.108983 
L 211.970085 146.383874 
L 218.057358 146.341771 
L 224.144631 145.888065 
L 230.231903 145.111452 
L 236.319176 145.421413 
L 242.406449 145.249142 
L 248.493722 145.367638 
L 254.580994 145.398556 
L 260.668267 144.415286 
L 266.75554 144.129992 
L 272.842812 144.791528 
L 278.930085 144.930879 
L 285.017358 144.812922 
L 291.104631 144.933272 
L 297.191903 144.936349 
L 303.279176 144.842032 
L 309.366449 145.241619 
L 315.453722 145.399921 
L 321.540994 145.3438 
L 327.628267 145.346147 
L 333.71554 145.048152 
L 339.802812 145.063097 
L 345.890085 145.215441 
L 351.977358 145.123614 
L 358.064631 145.157611 
" style="fill:none;stroke:#1f77b4;stroke-linecap:square;stroke-width:1.5;"/>
   </g>
   <g id="line2d_37">
    <path clip-path="url(#p9bcdac9180)" d="M 53.700994 100.316811 
L 59.788267 100.321549 
L 65.87554 100.345384 
L 71.962812 100.406585 
L 78.050085 100.336641 
L 84.137358 100.438333 
L 90.224631 100.224204 
L 96.311903 98.00832 
L 102.399176 85.935958 
L 108.486449 72.414312 
L 114.573722 59.310666 
L 120.660994 42.783775 
L 126.748267 31.602958 
L 132.83554 24.349056 
L 138.922812 22.918722 
L 145.010085 21.85824 
L 151.097358 21.570499 
L 157.184631 22.480548 
L 163.271903 24.785378 
L 169.359176 25.461912 
L 175.446449 25.551441 
L 181.533722 25.068572 
L 187.620994 25.3714 
L 193.708267 25.009764 
L 199.79554 30.460651 
L 205.882812 31.885273 
L 211.970085 34.777051 
L 218.057358 46.32762 
L 224.144631 57.515278 
L 230.231903 70.666102 
L 236.319176 81.934354 
L 242.406449 97.576249 
L 248.493722 100.136383 
L 254.580994 100.179365 
L 260.668267 100.204079 
L 266.75554 100.426953 
L 272.842812 100.355153 
L 278.930085 100.385339 
L 285.017358 100.23998 
L 291.104631 100.346263 
L 297.191903 100.18044 
L 303.279176 100.330097 
L 309.366449 100.227134 
L 315.453722 100.021112 
L 321.540994 100.072202 
L 327.628267 100.128812 
L 333.71554 100.200857 
L 339.802812 100.229674 
L 345.890085 100.223764 
L 351.977358 100.22313 
L 358.064631 100.223959 
" style="fill:none;stroke:#ff7f0e;stroke-linecap:square;stroke-width:1.5;"/>
   </g>
   <g id="line2d_38">
    <path clip-path="url(#p9bcdac9180)" d="M 53.700994 196.384797 
L 59.788267 196.362869 
L 65.87554 196.279396 
L 71.962812 196.288089 
L 78.050085 196.328288 
L 84.137358 196.530938 
L 90.224631 196.72309 
L 96.311903 199.298165 
L 102.399176 199.16028 
L 108.486449 192.529529 
L 114.573722 181.786008 
L 120.660994 172.082508 
L 126.748267 158.25671 
L 132.83554 144.723489 
L 138.922812 127.237897 
L 145.010085 118.815466 
L 151.097358 111.999108 
L 157.184631 108.035651 
L 163.271903 107.916668 
L 169.359176 109.321897 
L 175.446449 110.734305 
L 181.533722 111.877439 
L 187.620994 114.922881 
L 193.708267 120.565676 
L 199.79554 126.98518 
L 205.882812 137.700424 
L 211.970085 150.396177 
L 218.057358 171.096112 
L 224.144631 189.258036 
L 230.231903 189.366127 
L 236.319176 195.762972 
L 242.406449 199.826799 
L 248.493722 198.6315 
L 254.580994 200.128945 
L 260.668267 199.945492 
L 266.75554 197.643981 
L 272.842812 196.607622 
L 278.930085 198.809538 
L 285.017358 195.857385 
L 291.104631 199.284348 
L 297.191903 201.141915 
L 303.279176 201.696483 
L 309.366449 200.948686 
L 315.453722 197.845559 
L 321.540994 198.540021 
L 327.628267 198.459524 
L 333.71554 198.495571 
L 339.802812 198.746135 
L 345.890085 198.670476 
L 351.977358 198.504556 
L 358.064631 198.436128 
" style="fill:none;stroke:#2ca02c;stroke-linecap:square;stroke-width:1.5;"/>
   </g>
   <g id="line2d_39">
    <path clip-path="url(#p9bcdac9180)" d="M 53.700994 148.275731 
L 59.788267 148.382308 
L 65.87554 148.334685 
L 71.962812 148.478433 
L 78.050085 148.468418 
L 84.137358 148.612897 
L 90.224631 148.595607 
L 96.311903 146.396282 
L 102.399176 150.575431 
L 108.486449 151.106604 
L 114.573722 150.172863 
L 120.660994 146.219223 
L 126.748267 143.771284 
L 132.83554 140.039296 
L 138.922812 136.456917 
L 145.010085 136.429956 
L 151.097358 134.071253 
L 157.184631 132.61259 
L 163.271903 132.194489 
L 169.359176 132.357529 
L 175.446449 134.015034 
L 181.533722 134.297593 
L 187.620994 136.493355 
L 193.708267 136.482804 
L 199.79554 134.811868 
L 205.882812 136.002038 
L 211.970085 137.975267 
L 218.057358 140.412413 
L 224.144631 148.615095 
L 230.231903 137.980737 
L 236.319176 140.147485 
L 242.406449 148.63185 
L 248.493722 151.848048 
L 254.580994 151.822016 
L 260.668267 151.51899 
L 266.75554 150.9167 
L 272.842812 150.929303 
L 278.930085 151.438495 
L 285.017358 150.168076 
L 291.104631 151.529101 
L 297.191903 152.195326 
L 303.279176 152.459131 
L 309.366449 152.109999 
L 315.453722 150.85882 
L 321.540994 151.132882 
L 327.628267 151.165267 
L 333.71554 150.841923 
L 339.802812 150.958119 
L 345.890085 150.922808 
L 351.977358 150.826732 
L 358.064631 150.87025 
" style="fill:none;stroke:#d62728;stroke-linecap:square;stroke-width:1.5;"/>
   </g>
   <g id="patch_3">
    <path d="M 38.482813 224.64 
L 38.482813 7.2 
" style="fill:none;stroke:#000000;stroke-linecap:square;stroke-linejoin:miter;stroke-width:0.8;"/>
   </g>
   <g id="patch_4">
    <path d="M 373.282813 224.64 
L 373.282813 7.2 
" style="fill:none;stroke:#000000;stroke-linecap:square;stroke-linejoin:miter;stroke-width:0.8;"/>
   </g>
   <g id="patch_5">
    <path d="M 38.482813 224.64 
L 373.282812 224.64 
" style="fill:none;stroke:#000000;stroke-linecap:square;stroke-linejoin:miter;stroke-width:0.8;"/>
   </g>
   <g id="patch_6">
    <path d="M 38.482813 7.2 
L 373.282812 7.2 
" style="fill:none;stroke:#000000;stroke-linecap:square;stroke-linejoin:miter;stroke-width:0.8;"/>
   </g>
   <g id="legend_1">
    <g id="patch_7">
     <path d="M 237.160938 191.3375 
L 366.282812 191.3375 
Q 368.282812 191.3375 368.282812 189.3375 
L 368.282812 14.2 
Q 368.282812 12.2 366.282812 12.2 
L 237.160938 12.2 
Q 235.160938 12.2 235.160938 14.2 
L 235.160938 189.3375 
Q 235.160938 191.3375 237.160938 191.3375 
z
" style="fill:#ffffff;opacity:0.5;stroke:#cccccc;stroke-linejoin:miter;"/>
    </g>
    <g id="line2d_40">
     <path d="M 239.160938 20.298437 
L 259.160938 20.298437 
" style="fill:none;stroke:#1f77b4;stroke-linecap:square;stroke-width:1.5;"/>
    </g>
    <g id="line2d_41"/>
    <g id="text_16">
     <!-- ch0 -->
     <defs>
      <path d="M 48.78125 52.59375 
L 48.78125 44.1875 
Q 44.96875 46.296875 41.140625 47.34375 
Q 37.3125 48.390625 33.40625 48.390625 
Q 24.65625 48.390625 19.8125 42.84375 
Q 14.984375 37.3125 14.984375 27.296875 
Q 14.984375 17.28125 19.8125 11.734375 
Q 24.65625 6.203125 33.40625 6.203125 
Q 37.3125 6.203125 41.140625 7.25 
Q 44.96875 8.296875 48.78125 10.40625 
L 48.78125 2.09375 
Q 45.015625 0.34375 40.984375 -0.53125 
Q 36.96875 -1.421875 32.421875 -1.421875 
Q 20.0625 -1.421875 12.78125 6.34375 
Q 5.515625 14.109375 5.515625 27.296875 
Q 5.515625 40.671875 12.859375 48.328125 
Q 20.21875 56 33.015625 56 
Q 37.15625 56 41.109375 55.140625 
Q 45.0625 54.296875 48.78125 52.59375 
z
" id="DejaVuSans-99"/>
      <path d="M 54.890625 33.015625 
L 54.890625 0 
L 45.90625 0 
L 45.90625 32.71875 
Q 45.90625 40.484375 42.875 44.328125 
Q 39.84375 48.1875 33.796875 48.1875 
Q 26.515625 48.1875 22.3125 43.546875 
Q 18.109375 38.921875 18.109375 30.90625 
L 18.109375 0 
L 9.078125 0 
L 9.078125 75.984375 
L 18.109375 75.984375 
L 18.109375 46.1875 
Q 21.34375 51.125 25.703125 53.5625 
Q 30.078125 56 35.796875 56 
Q 45.21875 56 50.046875 50.171875 
Q 54.890625 44.34375 54.890625 33.015625 
z
" id="DejaVuSans-104"/>
     </defs>
     <g transform="translate(267.160938 23.798437)scale(0.1 -0.1)">
      <use xlink:href="#DejaVuSans-99"/>
      <use x="54.980469" xlink:href="#DejaVuSans-104"/>
      <use x="118.359375" xlink:href="#DejaVuSans-48"/>
     </g>
    </g>
    <g id="line2d_42">
     <path d="M 239.160938 34.976562 
L 259.160938 34.976562 
" style="fill:none;stroke:#ff7f0e;stroke-linecap:square;stroke-width:1.5;"/>
    </g>
    <g id="line2d_43"/>
    <g id="text_17">
     <!-- ch1 -->
     <g transform="translate(267.160938 38.476562)scale(0.1 -0.1)">
      <use xlink:href="#DejaVuSans-99"/>
      <use x="54.980469" xlink:href="#DejaVuSans-104"/>
      <use x="118.359375" xlink:href="#DejaVuSans-49"/>
     </g>
    </g>
    <g id="line2d_44">
     <path d="M 239.160938 49.654687 
L 259.160938 49.654687 
" style="fill:none;stroke:#2ca02c;stroke-linecap:square;stroke-width:1.5;"/>
    </g>
    <g id="line2d_45"/>
    <g id="text_18">
     <!-- ch2 -->
     <g transform="translate(267.160938 53.154687)scale(0.1 -0.1)">
      <use xlink:href="#DejaVuSans-99"/>
      <use x="54.980469" xlink:href="#DejaVuSans-104"/>
      <use x="118.359375" xlink:href="#DejaVuSans-50"/>
     </g>
    </g>
    <g id="line2d_46">
     <path d="M 239.160938 64.332812 
L 259.160938 64.332812 
" style="fill:none;stroke:#d62728;stroke-linecap:square;stroke-width:1.5;"/>
    </g>
    <g id="line2d_47"/>
    <g id="text_19">
     <!-- ch3 -->
     <g transform="translate(267.160938 67.832812)scale(0.1 -0.1)">
      <use xlink:href="#DejaVuSans-99"/>
      <use x="54.980469" xlink:href="#DejaVuSans-104"/>
      <use x="118.359375" xlink:href="#DejaVuSans-51"/>
     </g>
    </g>
    <g id="line2d_48">
     <path d="M 239.160938 79.010937 
L 259.160938 79.010937 
" style="fill:none;stroke:#9467bd;stroke-linecap:square;stroke-width:1.5;"/>
    </g>
    <g id="line2d_49"/>
    <g id="text_20">
     <!-- ch4 -->
     <g transform="translate(267.160938 82.510937)scale(0.1 -0.1)">
      <use xlink:href="#DejaVuSans-99"/>
      <use x="54.980469" xlink:href="#DejaVuSans-104"/>
      <use x="118.359375" xlink:href="#DejaVuSans-52"/>
     </g>
    </g>
    <g id="line2d_50">
     <path d="M 239.160938 93.689062 
L 259.160938 93.689062 
" style="fill:none;stroke:#8c564b;stroke-linecap:square;stroke-width:1.5;"/>
    </g>
    <g id="line2d_51"/>
    <g id="text_21">
     <!-- ch5 -->
     <g transform="translate(267.160938 97.189062)scale(0.1 -0.1)">
      <use xlink:href="#DejaVuSans-99"/>
      <use x="54.980469" xlink:href="#DejaVuSans-104"/>
      <use x="118.359375" xlink:href="#DejaVuSans-53"/>
     </g>
    </g>
    <g id="line2d_52">
     <path d="M 239.160938 108.367187 
L 259.160938 108.367187 
" style="fill:none;stroke:#e377c2;stroke-linecap:square;stroke-width:1.5;"/>
    </g>
    <g id="line2d_53"/>
    <g id="text_22">
     <!-- ch6 -->
     <defs>
      <path d="M 33.015625 40.375 
Q 26.375 40.375 22.484375 35.828125 
Q 18.609375 31.296875 18.609375 23.390625 
Q 18.609375 15.53125 22.484375 10.953125 
Q 26.375 6.390625 33.015625 6.390625 
Q 39.65625 6.390625 43.53125 10.953125 
Q 47.40625 15.53125 47.40625 23.390625 
Q 47.40625 31.296875 43.53125 35.828125 
Q 39.65625 40.375 33.015625 40.375 
z
M 52.59375 71.296875 
L 52.59375 62.3125 
Q 48.875 64.0625 45.09375 64.984375 
Q 41.3125 65.921875 37.59375 65.921875 
Q 27.828125 65.921875 22.671875 59.328125 
Q 17.53125 52.734375 16.796875 39.40625 
Q 19.671875 43.65625 24.015625 45.921875 
Q 28.375 48.1875 33.59375 48.1875 
Q 44.578125 48.1875 50.953125 41.515625 
Q 57.328125 34.859375 57.328125 23.390625 
Q 57.328125 12.15625 50.6875 5.359375 
Q 44.046875 -1.421875 33.015625 -1.421875 
Q 20.359375 -1.421875 13.671875 8.265625 
Q 6.984375 17.96875 6.984375 36.375 
Q 6.984375 53.65625 15.1875 63.9375 
Q 23.390625 74.21875 37.203125 74.21875 
Q 40.921875 74.21875 44.703125 73.484375 
Q 48.484375 72.75 52.59375 71.296875 
z
" id="DejaVuSans-54"/>
     </defs>
     <g transform="translate(267.160938 111.867187)scale(0.1 -0.1)">
      <use xlink:href="#DejaVuSans-99"/>
      <use x="54.980469" xlink:href="#DejaVuSans-104"/>
      <use x="118.359375" xlink:href="#DejaVuSans-54"/>
     </g>
    </g>
    <g id="line2d_54">
     <path d="M 239.160938 123.045312 
L 259.160938 123.045312 
" style="fill:none;stroke:#7f7f7f;stroke-linecap:square;stroke-width:1.5;"/>
    </g>
    <g id="line2d_55"/>
    <g id="text_23">
     <!-- ch7 -->
     <defs>
      <path d="M 8.203125 72.90625 
L 55.078125 72.90625 
L 55.078125 68.703125 
L 28.609375 0 
L 18.3125 0 
L 43.21875 64.59375 
L 8.203125 64.59375 
z
" id="DejaVuSans-55"/>
     </defs>
     <g transform="translate(267.160938 126.545312)scale(0.1 -0.1)">
      <use xlink:href="#DejaVuSans-99"/>
      <use x="54.980469" xlink:href="#DejaVuSans-104"/>
      <use x="118.359375" xlink:href="#DejaVuSans-55"/>
     </g>
    </g>
    <g id="line2d_56">
     <path d="M 239.160938 137.723437 
L 259.160938 137.723437 
" style="fill:none;stroke:#bcbd22;stroke-linecap:square;stroke-width:1.5;"/>
    </g>
    <g id="line2d_57"/>
    <g id="text_24">
     <!-- ch8 -->
     <defs>
      <path d="M 31.78125 34.625 
Q 24.75 34.625 20.71875 30.859375 
Q 16.703125 27.09375 16.703125 20.515625 
Q 16.703125 13.921875 20.71875 10.15625 
Q 24.75 6.390625 31.78125 6.390625 
Q 38.8125 6.390625 42.859375 10.171875 
Q 46.921875 13.96875 46.921875 20.515625 
Q 46.921875 27.09375 42.890625 30.859375 
Q 38.875 34.625 31.78125 34.625 
z
M 21.921875 38.8125 
Q 15.578125 40.375 12.03125 44.71875 
Q 8.5 49.078125 8.5 55.328125 
Q 8.5 64.0625 14.71875 69.140625 
Q 20.953125 74.21875 31.78125 74.21875 
Q 42.671875 74.21875 48.875 69.140625 
Q 55.078125 64.0625 55.078125 55.328125 
Q 55.078125 49.078125 51.53125 44.71875 
Q 48 40.375 41.703125 38.8125 
Q 48.828125 37.15625 52.796875 32.3125 
Q 56.78125 27.484375 56.78125 20.515625 
Q 56.78125 9.90625 50.3125 4.234375 
Q 43.84375 -1.421875 31.78125 -1.421875 
Q 19.734375 -1.421875 13.25 4.234375 
Q 6.78125 9.90625 6.78125 20.515625 
Q 6.78125 27.484375 10.78125 32.3125 
Q 14.796875 37.15625 21.921875 38.8125 
z
M 18.3125 54.390625 
Q 18.3125 48.734375 21.84375 45.5625 
Q 25.390625 42.390625 31.78125 42.390625 
Q 38.140625 42.390625 41.71875 45.5625 
Q 45.3125 48.734375 45.3125 54.390625 
Q 45.3125 60.0625 41.71875 63.234375 
Q 38.140625 66.40625 31.78125 66.40625 
Q 25.390625 66.40625 21.84375 63.234375 
Q 18.3125 60.0625 18.3125 54.390625 
z
" id="DejaVuSans-56"/>
     </defs>
     <g transform="translate(267.160938 141.223437)scale(0.1 -0.1)">
      <use xlink:href="#DejaVuSans-99"/>
      <use x="54.980469" xlink:href="#DejaVuSans-104"/>
      <use x="118.359375" xlink:href="#DejaVuSans-56"/>
     </g>
    </g>
    <g id="line2d_58">
     <path d="M 239.160938 152.401562 
L 259.160938 152.401562 
" style="fill:none;stroke:#17becf;stroke-linecap:square;stroke-width:1.5;"/>
    </g>
    <g id="line2d_59"/>
    <g id="text_25">
     <!-- ch9 -->
     <defs>
      <path d="M 10.984375 1.515625 
L 10.984375 10.5 
Q 14.703125 8.734375 18.5 7.8125 
Q 22.3125 6.890625 25.984375 6.890625 
Q 35.75 6.890625 40.890625 13.453125 
Q 46.046875 20.015625 46.78125 33.40625 
Q 43.953125 29.203125 39.59375 26.953125 
Q 35.25 24.703125 29.984375 24.703125 
Q 19.046875 24.703125 12.671875 31.3125 
Q 6.296875 37.9375 6.296875 49.421875 
Q 6.296875 60.640625 12.9375 67.421875 
Q 19.578125 74.21875 30.609375 74.21875 
Q 43.265625 74.21875 49.921875 64.515625 
Q 56.59375 54.828125 56.59375 36.375 
Q 56.59375 19.140625 48.40625 8.859375 
Q 40.234375 -1.421875 26.421875 -1.421875 
Q 22.703125 -1.421875 18.890625 -0.6875 
Q 15.09375 0.046875 10.984375 1.515625 
z
M 30.609375 32.421875 
Q 37.25 32.421875 41.125 36.953125 
Q 45.015625 41.5 45.015625 49.421875 
Q 45.015625 57.28125 41.125 61.84375 
Q 37.25 66.40625 30.609375 66.40625 
Q 23.96875 66.40625 20.09375 61.84375 
Q 16.21875 57.28125 16.21875 49.421875 
Q 16.21875 41.5 20.09375 36.953125 
Q 23.96875 32.421875 30.609375 32.421875 
z
" id="DejaVuSans-57"/>
     </defs>
     <g transform="translate(267.160938 155.901562)scale(0.1 -0.1)">
      <use xlink:href="#DejaVuSans-99"/>
      <use x="54.980469" xlink:href="#DejaVuSans-104"/>
      <use x="118.359375" xlink:href="#DejaVuSans-57"/>
     </g>
    </g>
    <g id="line2d_60">
     <path d="M 239.160938 167.079687 
L 259.160938 167.079687 
" style="fill:none;stroke:#1f77b4;stroke-linecap:square;stroke-width:1.5;"/>
    </g>
    <g id="line2d_61"/>
    <g id="text_26">
     <!-- ch10 -->
     <g transform="translate(267.160938 170.579687)scale(0.1 -0.1)">
      <use xlink:href="#DejaVuSans-99"/>
      <use x="54.980469" xlink:href="#DejaVuSans-104"/>
      <use x="118.359375" xlink:href="#DejaVuSans-49"/>
      <use x="181.982422" xlink:href="#DejaVuSans-48"/>
     </g>
    </g>
    <g id="line2d_62">
     <path d="M 239.160938 181.757812 
L 259.160938 181.757812 
" style="fill:none;stroke:#ff7f0e;stroke-linecap:square;stroke-width:1.5;"/>
    </g>
    <g id="line2d_63"/>
    <g id="text_27">
     <!-- ch11 -->
     <g transform="translate(267.160938 185.257812)scale(0.1 -0.1)">
      <use xlink:href="#DejaVuSans-99"/>
      <use x="54.980469" xlink:href="#DejaVuSans-104"/>
      <use x="118.359375" xlink:href="#DejaVuSans-49"/>
      <use x="181.982422" xlink:href="#DejaVuSans-49"/>
     </g>
    </g>
    <g id="line2d_64">
     <path d="M 311.721875 20.298437 
L 331.721875 20.298437 
" style="fill:none;stroke:#2ca02c;stroke-linecap:square;stroke-width:1.5;"/>
    </g>
    <g id="line2d_65"/>
    <g id="text_28">
     <!-- ch12 -->
     <g transform="translate(339.721875 23.798437)scale(0.1 -0.1)">
      <use xlink:href="#DejaVuSans-99"/>
      <use x="54.980469" xlink:href="#DejaVuSans-104"/>
      <use x="118.359375" xlink:href="#DejaVuSans-49"/>
      <use x="181.982422" xlink:href="#DejaVuSans-50"/>
     </g>
    </g>
    <g id="line2d_66">
     <path d="M 311.721875 34.976562 
L 331.721875 34.976562 
" style="fill:none;stroke:#d62728;stroke-linecap:square;stroke-width:1.5;"/>
    </g>
    <g id="line2d_67"/>
    <g id="text_29">
     <!-- ch13 -->
     <g transform="translate(339.721875 38.476562)scale(0.1 -0.1)">
      <use xlink:href="#DejaVuSans-99"/>
      <use x="54.980469" xlink:href="#DejaVuSans-104"/>
      <use x="118.359375" xlink:href="#DejaVuSans-49"/>
      <use x="181.982422" xlink:href="#DejaVuSans-51"/>
     </g>
    </g>
    <g id="line2d_68">
     <path d="M 311.721875 49.654687 
L 331.721875 49.654687 
" style="fill:none;stroke:#9467bd;stroke-linecap:square;stroke-width:1.5;"/>
    </g>
    <g id="line2d_69"/>
    <g id="text_30">
     <!-- ch14 -->
     <g transform="translate(339.721875 53.154687)scale(0.1 -0.1)">
      <use xlink:href="#DejaVuSans-99"/>
      <use x="54.980469" xlink:href="#DejaVuSans-104"/>
      <use x="118.359375" xlink:href="#DejaVuSans-49"/>
      <use x="181.982422" xlink:href="#DejaVuSans-52"/>
     </g>
    </g>
    <g id="line2d_70">
     <path d="M 311.721875 64.332812 
L 331.721875 64.332812 
" style="fill:none;stroke:#8c564b;stroke-linecap:square;stroke-width:1.5;"/>
    </g>
    <g id="line2d_71"/>
    <g id="text_31">
     <!-- ch15 -->
     <g transform="translate(339.721875 67.832812)scale(0.1 -0.1)">
      <use xlink:href="#DejaVuSans-99"/>
      <use x="54.980469" xlink:href="#DejaVuSans-104"/>
      <use x="118.359375" xlink:href="#DejaVuSans-49"/>
      <use x="181.982422" xlink:href="#DejaVuSans-53"/>
     </g>
    </g>
    <g id="line2d_72">
     <path d="M 311.721875 79.010937 
L 331.721875 79.010937 
" style="fill:none;stroke:#e377c2;stroke-linecap:square;stroke-width:1.5;"/>
    </g>
    <g id="line2d_73"/>
    <g id="text_32">
     <!-- ch16 -->
     <g transform="translate(339.721875 82.510937)scale(0.1 -0.1)">
      <use xlink:href="#DejaVuSans-99"/>
      <use x="54.980469" xlink:href="#DejaVuSans-104"/>
      <use x="118.359375" xlink:href="#DejaVuSans-49"/>
      <use x="181.982422" xlink:href="#DejaVuSans-54"/>
     </g>
    </g>
    <g id="line2d_74">
     <path d="M 311.721875 93.689062 
L 331.721875 93.689062 
" style="fill:none;stroke:#7f7f7f;stroke-linecap:square;stroke-width:1.5;"/>
    </g>
    <g id="line2d_75"/>
    <g id="text_33">
     <!-- ch17 -->
     <g transform="translate(339.721875 97.189062)scale(0.1 -0.1)">
      <use xlink:href="#DejaVuSans-99"/>
      <use x="54.980469" xlink:href="#DejaVuSans-104"/>
      <use x="118.359375" xlink:href="#DejaVuSans-49"/>
      <use x="181.982422" xlink:href="#DejaVuSans-55"/>
     </g>
    </g>
    <g id="line2d_76">
     <path d="M 311.721875 108.367187 
L 331.721875 108.367187 
" style="fill:none;stroke:#bcbd22;stroke-linecap:square;stroke-width:1.5;"/>
    </g>
    <g id="line2d_77"/>
    <g id="text_34">
     <!-- ch18 -->
     <g transform="translate(339.721875 111.867187)scale(0.1 -0.1)">
      <use xlink:href="#DejaVuSans-99"/>
      <use x="54.980469" xlink:href="#DejaVuSans-104"/>
      <use x="118.359375" xlink:href="#DejaVuSans-49"/>
      <use x="181.982422" xlink:href="#DejaVuSans-56"/>
     </g>
    </g>
    <g id="line2d_78">
     <path d="M 311.721875 123.045312 
L 331.721875 123.045312 
" style="fill:none;stroke:#17becf;stroke-linecap:square;stroke-width:1.5;"/>
    </g>
    <g id="line2d_79"/>
    <g id="text_35">
     <!-- ch19 -->
     <g transform="translate(339.721875 126.545312)scale(0.1 -0.1)">
      <use xlink:href="#DejaVuSans-99"/>
      <use x="54.980469" xlink:href="#DejaVuSans-104"/>
      <use x="118.359375" xlink:href="#DejaVuSans-49"/>
      <use x="181.982422" xlink:href="#DejaVuSans-57"/>
     </g>
    </g>
    <g id="line2d_80">
     <path d="M 311.721875 137.723437 
L 331.721875 137.723437 
" style="fill:none;stroke:#1f77b4;stroke-linecap:square;stroke-width:1.5;"/>
    </g>
    <g id="line2d_81"/>
    <g id="text_36">
     <!-- ch20 -->
     <g transform="translate(339.721875 141.223437)scale(0.1 -0.1)">
      <use xlink:href="#DejaVuSans-99"/>
      <use x="54.980469" xlink:href="#DejaVuSans-104"/>
      <use x="118.359375" xlink:href="#DejaVuSans-50"/>
      <use x="181.982422" xlink:href="#DejaVuSans-48"/>
     </g>
    </g>
    <g id="line2d_82">
     <path d="M 311.721875 152.401562 
L 331.721875 152.401562 
" style="fill:none;stroke:#ff7f0e;stroke-linecap:square;stroke-width:1.5;"/>
    </g>
    <g id="line2d_83"/>
    <g id="text_37">
     <!-- ch21 -->
     <g transform="translate(339.721875 155.901562)scale(0.1 -0.1)">
      <use xlink:href="#DejaVuSans-99"/>
      <use x="54.980469" xlink:href="#DejaVuSans-104"/>
      <use x="118.359375" xlink:href="#DejaVuSans-50"/>
      <use x="181.982422" xlink:href="#DejaVuSans-49"/>
     </g>
    </g>
    <g id="line2d_84">
     <path d="M 311.721875 167.079687 
L 331.721875 167.079687 
" style="fill:none;stroke:#2ca02c;stroke-linecap:square;stroke-width:1.5;"/>
    </g>
    <g id="line2d_85"/>
    <g id="text_38">
     <!-- ch22 -->
     <g transform="translate(339.721875 170.579687)scale(0.1 -0.1)">
      <use xlink:href="#DejaVuSans-99"/>
      <use x="54.980469" xlink:href="#DejaVuSans-104"/>
      <use x="118.359375" xlink:href="#DejaVuSans-50"/>
      <use x="181.982422" xlink:href="#DejaVuSans-50"/>
     </g>
    </g>
    <g id="line2d_86">
     <path d="M 311.721875 181.757812 
L 331.721875 181.757812 
" style="fill:none;stroke:#d62728;stroke-linecap:square;stroke-width:1.5;"/>
    </g>
    <g id="line2d_87"/>
    <g id="text_39">
     <!-- ch23 -->
     <g transform="translate(339.721875 185.257812)scale(0.1 -0.1)">
      <use xlink:href="#DejaVuSans-99"/>
      <use x="54.980469" xlink:href="#DejaVuSans-104"/>
      <use x="118.359375" xlink:href="#DejaVuSans-50"/>
      <use x="181.982422" xlink:href="#DejaVuSans-51"/>
     </g>
    </g>
   </g>
  </g>
 </g>
 <defs>
  <clipPath id="p9bcdac9180">
   <rect height="217.44" width="334.8" x="38.482813" y="7.2"/>
  </clipPath>
 </defs>
</svg>
