<?xml version="1.0" encoding="utf-8" standalone="no"?>
<!DOCTYPE svg PUBLIC "-//W3C//DTD SVG 1.1//EN"
  "http://www.w3.org/Graphics/SVG/1.1/DTD/svg11.dtd">
<!-- Created with matplotlib (https://matplotlib.org/) -->
<svg height="263.63625pt" version="1.1" viewBox="0 0 380.482812 263.63625" width="380.482812pt" xmlns="http://www.w3.org/2000/svg" xmlns:xlink="http://www.w3.org/1999/xlink">
 <defs>
  <style type="text/css">
*{stroke-linecap:butt;stroke-linejoin:round;}
  </style>
 </defs>
 <g id="figure_1">
  <g id="patch_1">
   <path d="M -0 263.63625 
L 380.482812 263.63625 
L 380.482812 0 
L -0 0 
z
" style="fill:none;"/>
  </g>
  <g id="axes_1">
   <g id="patch_2">
    <path d="M 38.482813 239.758125 
L 373.282813 239.758125 
L 373.282813 22.318125 
L 38.482813 22.318125 
z
" style="fill:#ffffff;"/>
   </g>
   <g id="matplotlib.axis_1">
    <g id="xtick_1">
     <g id="line2d_1">
      <defs>
       <path d="M 0 0 
L 0 3.5 
" id="mb81a5b8928" style="stroke:#000000;stroke-width:0.8;"/>
      </defs>
      <g>
       <use style="stroke:#000000;stroke-width:0.8;" x="53.700994" xlink:href="#mb81a5b8928" y="239.758125"/>
      </g>
     </g>
     <g id="text_1">
      <!-- 0 -->
      <defs>
       <path d="M 31.78125 66.40625 
Q 24.171875 66.40625 20.328125 58.90625 
Q 16.5 51.421875 16.5 36.375 
Q 16.5 21.390625 20.328125 13.890625 
Q 24.171875 6.390625 31.78125 6.390625 
Q 39.453125 6.390625 43.28125 13.890625 
Q 47.125 21.390625 47.125 36.375 
Q 47.125 51.421875 43.28125 58.90625 
Q 39.453125 66.40625 31.78125 66.40625 
z
M 31.78125 74.21875 
Q 44.046875 74.21875 50.515625 64.515625 
Q 56.984375 54.828125 56.984375 36.375 
Q 56.984375 17.96875 50.515625 8.265625 
Q 44.046875 -1.421875 31.78125 -1.421875 
Q 19.53125 -1.421875 13.0625 8.265625 
Q 6.59375 17.96875 6.59375 36.375 
Q 6.59375 54.828125 13.0625 64.515625 
Q 19.53125 74.21875 31.78125 74.21875 
z
" id="DejaVuSans-48"/>
      </defs>
      <g transform="translate(50.519744 254.356563)scale(0.1 -0.1)">
       <use xlink:href="#DejaVuSans-48"/>
      </g>
     </g>
    </g>
    <g id="xtick_2">
     <g id="line2d_2">
      <g>
       <use style="stroke:#000000;stroke-width:0.8;" x="114.573722" xlink:href="#mb81a5b8928" y="239.758125"/>
      </g>
     </g>
     <g id="text_2">
      <!-- 10 -->
      <defs>
       <path d="M 12.40625 8.296875 
L 28.515625 8.296875 
L 28.515625 63.921875 
L 10.984375 60.40625 
L 10.984375 69.390625 
L 28.421875 72.90625 
L 38.28125 72.90625 
L 38.28125 8.296875 
L 54.390625 8.296875 
L 54.390625 0 
L 12.40625 0 
z
" id="DejaVuSans-49"/>
      </defs>
      <g transform="translate(108.211222 254.356563)scale(0.1 -0.1)">
       <use xlink:href="#DejaVuSans-49"/>
       <use x="63.623047" xlink:href="#DejaVuSans-48"/>
      </g>
     </g>
    </g>
    <g id="xtick_3">
     <g id="line2d_3">
      <g>
       <use style="stroke:#000000;stroke-width:0.8;" x="175.446449" xlink:href="#mb81a5b8928" y="239.758125"/>
      </g>
     </g>
     <g id="text_3">
      <!-- 20 -->
      <defs>
       <path d="M 19.1875 8.296875 
L 53.609375 8.296875 
L 53.609375 0 
L 7.328125 0 
L 7.328125 8.296875 
Q 12.9375 14.109375 22.625 23.890625 
Q 32.328125 33.6875 34.8125 36.53125 
Q 39.546875 41.84375 41.421875 45.53125 
Q 43.3125 49.21875 43.3125 52.78125 
Q 43.3125 58.59375 39.234375 62.25 
Q 35.15625 65.921875 28.609375 65.921875 
Q 23.96875 65.921875 18.8125 64.3125 
Q 13.671875 62.703125 7.8125 59.421875 
L 7.8125 69.390625 
Q 13.765625 71.78125 18.9375 73 
Q 24.125 74.21875 28.421875 74.21875 
Q 39.75 74.21875 46.484375 68.546875 
Q 53.21875 62.890625 53.21875 53.421875 
Q 53.21875 48.921875 51.53125 44.890625 
Q 49.859375 40.875 45.40625 35.40625 
Q 44.1875 33.984375 37.640625 27.21875 
Q 31.109375 20.453125 19.1875 8.296875 
z
" id="DejaVuSans-50"/>
      </defs>
      <g transform="translate(169.083949 254.356563)scale(0.1 -0.1)">
       <use xlink:href="#DejaVuSans-50"/>
       <use x="63.623047" xlink:href="#DejaVuSans-48"/>
      </g>
     </g>
    </g>
    <g id="xtick_4">
     <g id="line2d_4">
      <g>
       <use style="stroke:#000000;stroke-width:0.8;" x="236.319176" xlink:href="#mb81a5b8928" y="239.758125"/>
      </g>
     </g>
     <g id="text_4">
      <!-- 30 -->
      <defs>
       <path d="M 40.578125 39.3125 
Q 47.65625 37.796875 51.625 33 
Q 55.609375 28.21875 55.609375 21.1875 
Q 55.609375 10.40625 48.1875 4.484375 
Q 40.765625 -1.421875 27.09375 -1.421875 
Q 22.515625 -1.421875 17.65625 -0.515625 
Q 12.796875 0.390625 7.625 2.203125 
L 7.625 11.71875 
Q 11.71875 9.328125 16.59375 8.109375 
Q 21.484375 6.890625 26.8125 6.890625 
Q 36.078125 6.890625 40.9375 10.546875 
Q 45.796875 14.203125 45.796875 21.1875 
Q 45.796875 27.640625 41.28125 31.265625 
Q 36.765625 34.90625 28.71875 34.90625 
L 20.21875 34.90625 
L 20.21875 43.015625 
L 29.109375 43.015625 
Q 36.375 43.015625 40.234375 45.921875 
Q 44.09375 48.828125 44.09375 54.296875 
Q 44.09375 59.90625 40.109375 62.90625 
Q 36.140625 65.921875 28.71875 65.921875 
Q 24.65625 65.921875 20.015625 65.03125 
Q 15.375 64.15625 9.8125 62.3125 
L 9.8125 71.09375 
Q 15.4375 72.65625 20.34375 73.4375 
Q 25.25 74.21875 29.59375 74.21875 
Q 40.828125 74.21875 47.359375 69.109375 
Q 53.90625 64.015625 53.90625 55.328125 
Q 53.90625 49.265625 50.4375 45.09375 
Q 46.96875 40.921875 40.578125 39.3125 
z
" id="DejaVuSans-51"/>
      </defs>
      <g transform="translate(229.956676 254.356563)scale(0.1 -0.1)">
       <use xlink:href="#DejaVuSans-51"/>
       <use x="63.623047" xlink:href="#DejaVuSans-48"/>
      </g>
     </g>
    </g>
    <g id="xtick_5">
     <g id="line2d_5">
      <g>
       <use style="stroke:#000000;stroke-width:0.8;" x="297.191903" xlink:href="#mb81a5b8928" y="239.758125"/>
      </g>
     </g>
     <g id="text_5">
      <!-- 40 -->
      <defs>
       <path d="M 37.796875 64.3125 
L 12.890625 25.390625 
L 37.796875 25.390625 
z
M 35.203125 72.90625 
L 47.609375 72.90625 
L 47.609375 25.390625 
L 58.015625 25.390625 
L 58.015625 17.1875 
L 47.609375 17.1875 
L 47.609375 0 
L 37.796875 0 
L 37.796875 17.1875 
L 4.890625 17.1875 
L 4.890625 26.703125 
z
" id="DejaVuSans-52"/>
      </defs>
      <g transform="translate(290.829403 254.356563)scale(0.1 -0.1)">
       <use xlink:href="#DejaVuSans-52"/>
       <use x="63.623047" xlink:href="#DejaVuSans-48"/>
      </g>
     </g>
    </g>
    <g id="xtick_6">
     <g id="line2d_6">
      <g>
       <use style="stroke:#000000;stroke-width:0.8;" x="358.064631" xlink:href="#mb81a5b8928" y="239.758125"/>
      </g>
     </g>
     <g id="text_6">
      <!-- 50 -->
      <defs>
       <path d="M 10.796875 72.90625 
L 49.515625 72.90625 
L 49.515625 64.59375 
L 19.828125 64.59375 
L 19.828125 46.734375 
Q 21.96875 47.46875 24.109375 47.828125 
Q 26.265625 48.1875 28.421875 48.1875 
Q 40.625 48.1875 47.75 41.5 
Q 54.890625 34.8125 54.890625 23.390625 
Q 54.890625 11.625 47.5625 5.09375 
Q 40.234375 -1.421875 26.90625 -1.421875 
Q 22.3125 -1.421875 17.546875 -0.640625 
Q 12.796875 0.140625 7.71875 1.703125 
L 7.71875 11.625 
Q 12.109375 9.234375 16.796875 8.0625 
Q 21.484375 6.890625 26.703125 6.890625 
Q 35.15625 6.890625 40.078125 11.328125 
Q 45.015625 15.765625 45.015625 23.390625 
Q 45.015625 31 40.078125 35.4375 
Q 35.15625 39.890625 26.703125 39.890625 
Q 22.75 39.890625 18.8125 39.015625 
Q 14.890625 38.140625 10.796875 36.28125 
z
" id="DejaVuSans-53"/>
      </defs>
      <g transform="translate(351.702131 254.356563)scale(0.1 -0.1)">
       <use xlink:href="#DejaVuSans-53"/>
       <use x="63.623047" xlink:href="#DejaVuSans-48"/>
      </g>
     </g>
    </g>
   </g>
   <g id="matplotlib.axis_2">
    <g id="ytick_1">
     <g id="line2d_7">
      <defs>
       <path d="M 0 0 
L -3.5 0 
" id="mb0b659a6e3" style="stroke:#000000;stroke-width:0.8;"/>
      </defs>
      <g>
       <use style="stroke:#000000;stroke-width:0.8;" x="38.482813" xlink:href="#mb0b659a6e3" y="229.374607"/>
      </g>
     </g>
     <g id="text_7">
      <!-- −1.6 -->
      <defs>
       <path d="M 10.59375 35.5 
L 73.1875 35.5 
L 73.1875 27.203125 
L 10.59375 27.203125 
z
" id="DejaVuSans-8722"/>
       <path d="M 10.6875 12.40625 
L 21 12.40625 
L 21 0 
L 10.6875 0 
z
" id="DejaVuSans-46"/>
       <path d="M 33.015625 40.375 
Q 26.375 40.375 22.484375 35.828125 
Q 18.609375 31.296875 18.609375 23.390625 
Q 18.609375 15.53125 22.484375 10.953125 
Q 26.375 6.390625 33.015625 6.390625 
Q 39.65625 6.390625 43.53125 10.953125 
Q 47.40625 15.53125 47.40625 23.390625 
Q 47.40625 31.296875 43.53125 35.828125 
Q 39.65625 40.375 33.015625 40.375 
z
M 52.59375 71.296875 
L 52.59375 62.3125 
Q 48.875 64.0625 45.09375 64.984375 
Q 41.3125 65.921875 37.59375 65.921875 
Q 27.828125 65.921875 22.671875 59.328125 
Q 17.53125 52.734375 16.796875 39.40625 
Q 19.671875 43.65625 24.015625 45.921875 
Q 28.375 48.1875 33.59375 48.1875 
Q 44.578125 48.1875 50.953125 41.515625 
Q 57.328125 34.859375 57.328125 23.390625 
Q 57.328125 12.15625 50.6875 5.359375 
Q 44.046875 -1.421875 33.015625 -1.421875 
Q 20.359375 -1.421875 13.671875 8.265625 
Q 6.984375 17.96875 6.984375 36.375 
Q 6.984375 53.65625 15.1875 63.9375 
Q 23.390625 74.21875 37.203125 74.21875 
Q 40.921875 74.21875 44.703125 73.484375 
Q 48.484375 72.75 52.59375 71.296875 
z
" id="DejaVuSans-54"/>
      </defs>
      <g transform="translate(7.2 233.173825)scale(0.1 -0.1)">
       <use xlink:href="#DejaVuSans-8722"/>
       <use x="83.789062" xlink:href="#DejaVuSans-49"/>
       <use x="147.412109" xlink:href="#DejaVuSans-46"/>
       <use x="179.199219" xlink:href="#DejaVuSans-54"/>
      </g>
     </g>
    </g>
    <g id="ytick_2">
     <g id="line2d_8">
      <g>
       <use style="stroke:#000000;stroke-width:0.8;" x="38.482813" xlink:href="#mb0b659a6e3" y="202.177264"/>
      </g>
     </g>
     <g id="text_8">
      <!-- −1.4 -->
      <g transform="translate(7.2 205.976483)scale(0.1 -0.1)">
       <use xlink:href="#DejaVuSans-8722"/>
       <use x="83.789062" xlink:href="#DejaVuSans-49"/>
       <use x="147.412109" xlink:href="#DejaVuSans-46"/>
       <use x="179.199219" xlink:href="#DejaVuSans-52"/>
      </g>
     </g>
    </g>
    <g id="ytick_3">
     <g id="line2d_9">
      <g>
       <use style="stroke:#000000;stroke-width:0.8;" x="38.482813" xlink:href="#mb0b659a6e3" y="174.979922"/>
      </g>
     </g>
     <g id="text_9">
      <!-- −1.2 -->
      <g transform="translate(7.2 178.779141)scale(0.1 -0.1)">
       <use xlink:href="#DejaVuSans-8722"/>
       <use x="83.789062" xlink:href="#DejaVuSans-49"/>
       <use x="147.412109" xlink:href="#DejaVuSans-46"/>
       <use x="179.199219" xlink:href="#DejaVuSans-50"/>
      </g>
     </g>
    </g>
    <g id="ytick_4">
     <g id="line2d_10">
      <g>
       <use style="stroke:#000000;stroke-width:0.8;" x="38.482813" xlink:href="#mb0b659a6e3" y="147.782579"/>
      </g>
     </g>
     <g id="text_10">
      <!-- −1.0 -->
      <g transform="translate(7.2 151.581798)scale(0.1 -0.1)">
       <use xlink:href="#DejaVuSans-8722"/>
       <use x="83.789062" xlink:href="#DejaVuSans-49"/>
       <use x="147.412109" xlink:href="#DejaVuSans-46"/>
       <use x="179.199219" xlink:href="#DejaVuSans-48"/>
      </g>
     </g>
    </g>
    <g id="ytick_5">
     <g id="line2d_11">
      <g>
       <use style="stroke:#000000;stroke-width:0.8;" x="38.482813" xlink:href="#mb0b659a6e3" y="120.585237"/>
      </g>
     </g>
     <g id="text_11">
      <!-- −0.8 -->
      <defs>
       <path d="M 31.78125 34.625 
Q 24.75 34.625 20.71875 30.859375 
Q 16.703125 27.09375 16.703125 20.515625 
Q 16.703125 13.921875 20.71875 10.15625 
Q 24.75 6.390625 31.78125 6.390625 
Q 38.8125 6.390625 42.859375 10.171875 
Q 46.921875 13.96875 46.921875 20.515625 
Q 46.921875 27.09375 42.890625 30.859375 
Q 38.875 34.625 31.78125 34.625 
z
M 21.921875 38.8125 
Q 15.578125 40.375 12.03125 44.71875 
Q 8.5 49.078125 8.5 55.328125 
Q 8.5 64.0625 14.71875 69.140625 
Q 20.953125 74.21875 31.78125 74.21875 
Q 42.671875 74.21875 48.875 69.140625 
Q 55.078125 64.0625 55.078125 55.328125 
Q 55.078125 49.078125 51.53125 44.71875 
Q 48 40.375 41.703125 38.8125 
Q 48.828125 37.15625 52.796875 32.3125 
Q 56.78125 27.484375 56.78125 20.515625 
Q 56.78125 9.90625 50.3125 4.234375 
Q 43.84375 -1.421875 31.78125 -1.421875 
Q 19.734375 -1.421875 13.25 4.234375 
Q 6.78125 9.90625 6.78125 20.515625 
Q 6.78125 27.484375 10.78125 32.3125 
Q 14.796875 37.15625 21.921875 38.8125 
z
M 18.3125 54.390625 
Q 18.3125 48.734375 21.84375 45.5625 
Q 25.390625 42.390625 31.78125 42.390625 
Q 38.140625 42.390625 41.71875 45.5625 
Q 45.3125 48.734375 45.3125 54.390625 
Q 45.3125 60.0625 41.71875 63.234375 
Q 38.140625 66.40625 31.78125 66.40625 
Q 25.390625 66.40625 21.84375 63.234375 
Q 18.3125 60.0625 18.3125 54.390625 
z
" id="DejaVuSans-56"/>
      </defs>
      <g transform="translate(7.2 124.384456)scale(0.1 -0.1)">
       <use xlink:href="#DejaVuSans-8722"/>
       <use x="83.789062" xlink:href="#DejaVuSans-48"/>
       <use x="147.412109" xlink:href="#DejaVuSans-46"/>
       <use x="179.199219" xlink:href="#DejaVuSans-56"/>
      </g>
     </g>
    </g>
    <g id="ytick_6">
     <g id="line2d_12">
      <g>
       <use style="stroke:#000000;stroke-width:0.8;" x="38.482813" xlink:href="#mb0b659a6e3" y="93.387894"/>
      </g>
     </g>
     <g id="text_12">
      <!-- −0.6 -->
      <g transform="translate(7.2 97.187113)scale(0.1 -0.1)">
       <use xlink:href="#DejaVuSans-8722"/>
       <use x="83.789062" xlink:href="#DejaVuSans-48"/>
       <use x="147.412109" xlink:href="#DejaVuSans-46"/>
       <use x="179.199219" xlink:href="#DejaVuSans-54"/>
      </g>
     </g>
    </g>
    <g id="ytick_7">
     <g id="line2d_13">
      <g>
       <use style="stroke:#000000;stroke-width:0.8;" x="38.482813" xlink:href="#mb0b659a6e3" y="66.190552"/>
      </g>
     </g>
     <g id="text_13">
      <!-- −0.4 -->
      <g transform="translate(7.2 69.989771)scale(0.1 -0.1)">
       <use xlink:href="#DejaVuSans-8722"/>
       <use x="83.789062" xlink:href="#DejaVuSans-48"/>
       <use x="147.412109" xlink:href="#DejaVuSans-46"/>
       <use x="179.199219" xlink:href="#DejaVuSans-52"/>
      </g>
     </g>
    </g>
    <g id="ytick_8">
     <g id="line2d_14">
      <g>
       <use style="stroke:#000000;stroke-width:0.8;" x="38.482813" xlink:href="#mb0b659a6e3" y="38.99321"/>
      </g>
     </g>
     <g id="text_14">
      <!-- −0.2 -->
      <g transform="translate(7.2 42.792428)scale(0.1 -0.1)">
       <use xlink:href="#DejaVuSans-8722"/>
       <use x="83.789062" xlink:href="#DejaVuSans-48"/>
       <use x="147.412109" xlink:href="#DejaVuSans-46"/>
       <use x="179.199219" xlink:href="#DejaVuSans-50"/>
      </g>
     </g>
    </g>
   </g>
   <g id="line2d_15">
    <path clip-path="url(#p9de7522332)" d="M 53.700994 86.230916 
L 59.788267 86.090035 
L 65.87554 86.554291 
L 71.962812 86.165773 
L 78.050085 86.62296 
L 84.137358 86.374925 
L 90.224631 86.466039 
L 96.311903 87.414545 
L 102.399176 87.364632 
L 108.486449 87.670742 
L 114.573722 87.028337 
L 120.660994 86.572512 
L 126.748267 86.190664 
L 132.83554 86.244784 
L 138.922812 86.311962 
L 145.010085 86.713125 
L 151.097358 85.513309 
L 157.184631 82.67758 
L 163.271903 80.444953 
L 169.359176 79.236436 
L 175.446449 80.003677 
L 181.533722 78.108021 
L 187.620994 78.744165 
L 193.708267 77.555915 
L 199.79554 77.703187 
L 205.882812 77.256606 
L 211.970085 79.195232 
L 218.057358 79.225287 
L 224.144631 81.291331 
L 230.231903 83.334397 
L 236.319176 82.096647 
L 242.406449 79.386022 
L 248.493722 79.342913 
L 254.580994 78.442821 
L 260.668267 79.863339 
L 266.75554 81.656319 
L 272.842812 83.110565 
L 278.930085 84.513811 
L 285.017358 84.234084 
L 291.104631 83.750514 
L 297.191903 83.640369 
L 303.279176 84.980109 
L 309.366449 83.935731 
L 315.453722 84.825084 
L 321.540994 83.726992 
L 327.628267 82.559679 
L 333.71554 83.889765 
L 339.802812 83.622278 
L 345.890085 84.375508 
L 351.977358 83.642817 
L 358.064631 82.321022 
" style="fill:none;stroke:#1f77b4;stroke-linecap:square;stroke-width:1.5;"/>
   </g>
   <g id="line2d_16">
    <path clip-path="url(#p9de7522332)" d="M 53.700994 229.388892 
L 59.788267 229.295598 
L 65.87554 228.794487 
L 71.962812 229.341151 
L 78.050085 228.794358 
L 84.137358 229.647536 
L 90.224631 229.377333 
L 96.311903 229.196744 
L 102.399176 229.474696 
L 108.486449 228.261004 
L 114.573722 228.166089 
L 120.660994 228.095782 
L 126.748267 228.299764 
L 132.83554 229.694986 
L 138.922812 229.269353 
L 145.010085 229.234402 
L 151.097358 229.874489 
L 157.184631 223.486105 
L 163.271903 224.717192 
L 169.359176 225.269707 
L 175.446449 217.910649 
L 181.533722 218.717059 
L 187.620994 219.373875 
L 193.708267 219.27922 
L 199.79554 219.304104 
L 205.882812 218.870998 
L 211.970085 218.296987 
L 218.057358 218.928789 
L 224.144631 219.194502 
L 230.231903 220.135268 
L 236.319176 220.18463 
L 242.406449 221.830342 
L 248.493722 221.60433 
L 254.580994 223.111472 
L 260.668267 225.773671 
L 266.75554 226.257388 
L 272.842812 224.918726 
L 278.930085 225.904493 
L 285.017358 223.973761 
L 291.104631 223.225013 
L 297.191903 221.55727 
L 303.279176 224.867061 
L 309.366449 227.401568 
L 315.453722 226.915695 
L 321.540994 229.275886 
L 327.628267 227.492543 
L 333.71554 228.773689 
L 339.802812 226.966549 
L 345.890085 226.119498 
L 351.977358 225.600425 
L 358.064631 224.744945 
" style="fill:none;stroke:#ff7f0e;stroke-linecap:square;stroke-width:1.5;"/>
   </g>
   <g id="line2d_17">
    <path clip-path="url(#p9de7522332)" d="M 53.700994 121.869764 
L 59.788267 121.86623 
L 65.87554 122.271202 
L 71.962812 121.559585 
L 78.050085 121.990795 
L 84.137358 121.753767 
L 90.224631 122.082451 
L 96.311903 122.041381 
L 102.399176 122.05593 
L 108.486449 122.465117 
L 114.573722 122.682829 
L 120.660994 123.116089 
L 126.748267 123.556685 
L 132.83554 123.534654 
L 138.922812 123.942747 
L 145.010085 123.69498 
L 151.097358 124.137755 
L 157.184631 121.364982 
L 163.271903 121.890709 
L 169.359176 121.037798 
L 175.446449 122.066816 
L 181.533722 122.190018 
L 187.620994 121.391641 
L 193.708267 120.853399 
L 199.79554 121.040521 
L 205.882812 121.399795 
L 211.970085 121.411086 
L 218.057358 121.113543 
L 224.144631 119.918226 
L 230.231903 119.12583 
L 236.319176 120.62331 
L 242.406449 120.702184 
L 248.493722 120.284981 
L 254.580994 120.739988 
L 260.668267 120.865638 
L 266.75554 119.965951 
L 272.842812 119.986214 
L 278.930085 121.766825 
L 285.017358 121.825711 
L 291.104631 122.580709 
L 297.191903 121.092469 
L 303.279176 123.2639 
L 309.366449 123.005393 
L 315.453722 120.02375 
L 321.540994 120.296539 
L 327.628267 117.78459 
L 333.71554 118.451473 
L 339.802812 116.723353 
L 345.890085 115.990111 
L 351.977358 115.812375 
L 358.064631 115.939249 
" style="fill:none;stroke:#2ca02c;stroke-linecap:square;stroke-width:1.5;"/>
   </g>
   <g id="line2d_18">
    <path clip-path="url(#p9de7522332)" d="M 53.700994 102.76962 
L 59.788267 102.760777 
L 65.87554 102.744866 
L 71.962812 102.7057 
L 78.050085 102.72393 
L 84.137358 102.749624 
L 90.224631 102.795322 
L 96.311903 102.852571 
L 102.399176 102.83285 
L 108.486449 102.825102 
L 114.573722 102.863311 
L 120.660994 103.015887 
L 126.748267 103.795777 
L 132.83554 104.630053 
L 138.922812 104.712048 
L 145.010085 105.078941 
L 151.097358 105.145989 
L 157.184631 103.482056 
L 163.271903 102.307942 
L 169.359176 101.329113 
L 175.446449 100.574116 
L 181.533722 100.382236 
L 187.620994 100.216058 
L 193.708267 100.104276 
L 199.79554 100.027582 
L 205.882812 99.967342 
L 211.970085 100.050699 
L 218.057358 100.274401 
L 224.144631 100.459343 
L 230.231903 100.570444 
L 236.319176 100.738381 
L 242.406449 100.893138 
L 248.493722 101.106635 
L 254.580994 101.794868 
L 260.668267 101.846816 
L 266.75554 102.457252 
L 272.842812 102.703666 
L 278.930085 104.214885 
L 285.017358 103.270317 
L 291.104631 101.342844 
L 297.191903 99.707879 
L 303.279176 101.017021 
L 309.366449 100.561601 
L 315.453722 100.456481 
L 321.540994 101.266288 
L 327.628267 99.491926 
L 333.71554 99.550269 
L 339.802812 97.865124 
L 345.890085 97.363057 
L 351.977358 97.281605 
L 358.064631 97.021048 
" style="fill:none;stroke:#d62728;stroke-linecap:square;stroke-width:1.5;"/>
   </g>
   <g id="line2d_19">
    <path clip-path="url(#p9de7522332)" d="M 53.700994 103.37136 
L 59.788267 103.225583 
L 65.87554 103.098433 
L 71.962812 103.253734 
L 78.050085 103.216197 
L 84.137358 103.172679 
L 90.224631 103.256854 
L 96.311903 103.117878 
L 102.399176 102.852166 
L 108.486449 102.859096 
L 114.573722 102.538712 
L 120.660994 102.318682 
L 126.748267 102.813681 
L 132.83554 103.163301 
L 138.922812 103.323765 
L 145.010085 102.939194 
L 151.097358 103.215516 
L 157.184631 100.840785 
L 163.271903 103.304182 
L 169.359176 104.059722 
L 175.446449 105.106686 
L 181.533722 105.224044 
L 187.620994 105.274898 
L 193.708267 105.41021 
L 199.79554 105.628741 
L 205.882812 105.618536 
L 211.970085 105.630913 
L 218.057358 105.552315 
L 224.144631 105.48106 
L 230.231903 104.988516 
L 236.319176 104.977631 
L 242.406449 105.245937 
L 248.493722 105.241309 
L 254.580994 103.401139 
L 260.668267 102.799942 
L 266.75554 102.13755 
L 272.842812 101.397782 
L 278.930085 101.944454 
L 285.017358 101.715037 
L 291.104631 101.513512 
L 297.191903 100.744638 
L 303.279176 102.467182 
L 309.366449 101.834439 
L 315.453722 101.990955 
L 321.540994 102.652261 
L 327.628267 101.476656 
L 333.71554 100.721797 
L 339.802812 99.652122 
L 345.890085 99.431549 
L 351.977358 99.649269 
L 358.064631 99.676463 
" style="fill:none;stroke:#9467bd;stroke-linecap:square;stroke-width:1.5;"/>
   </g>
   <g id="line2d_20">
    <path clip-path="url(#p9de7522332)" d="M 53.700994 33.82857 
L 59.788267 33.849919 
L 65.87554 33.766152 
L 71.962812 33.773495 
L 78.050085 33.775672 
L 84.137358 33.674769 
L 90.224631 33.651243 
L 96.311903 32.854361 
L 102.399176 32.569878 
L 108.486449 32.447354 
L 114.573722 32.201761 
L 120.660994 32.569469 
L 126.748267 33.794438 
L 132.83554 34.335528 
L 138.922812 34.694261 
L 145.010085 34.096329 
L 151.097358 36.069223 
L 157.184631 37.476277 
L 163.271903 39.476507 
L 169.359176 39.822457 
L 175.446449 40.359876 
L 181.533722 40.486208 
L 187.620994 40.477504 
L 193.708267 40.493687 
L 199.79554 40.616211 
L 205.882812 40.604245 
L 211.970085 40.454388 
L 218.057358 39.985368 
L 224.144631 40.084502 
L 230.231903 39.83388 
L 236.319176 39.956947 
L 242.406449 39.907175 
L 248.493722 38.929297 
L 254.580994 37.470295 
L 260.668267 34.147051 
L 266.75554 34.586967 
L 272.842812 34.952772 
L 278.930085 35.733607 
L 285.017358 36.008165 
L 291.104631 36.378049 
L 297.191903 35.384259 
L 303.279176 35.96261 
L 309.366449 36.217449 
L 315.453722 36.239071 
L 321.540994 36.51118 
L 327.628267 35.395546 
L 333.71554 34.620828 
L 339.802812 33.429993 
L 345.890085 33.062014 
L 351.977358 32.863745 
L 358.064631 32.69349 
" style="fill:none;stroke:#8c564b;stroke-linecap:square;stroke-width:1.5;"/>
   </g>
   <g id="line2d_21">
    <path clip-path="url(#p9de7522332)" d="M 53.700994 100.104551 
L 59.788267 100.102241 
L 65.87554 100.11842 
L 71.962812 100.134331 
L 78.050085 100.155413 
L 84.137358 100.16411 
L 90.224631 100.192803 
L 96.311903 100.235503 
L 102.399176 100.282968 
L 108.486449 100.302413 
L 114.573722 100.241079 
L 120.660994 100.199742 
L 126.748267 100.177573 
L 132.83554 99.902337 
L 138.922812 99.449778 
L 145.010085 99.124628 
L 151.097358 98.355357 
L 157.184631 96.190175 
L 163.271903 94.681396 
L 169.359176 93.593371 
L 175.446449 92.531858 
L 181.533722 92.212423 
L 187.620994 91.977713 
L 193.708267 91.558468 
L 199.79554 91.362916 
L 205.882812 91.255486 
L 211.970085 91.203676 
L 218.057358 91.580628 
L 224.144631 92.301631 
L 230.231903 92.862438 
L 236.319176 93.14638 
L 242.406449 93.347914 
L 248.493722 93.500353 
L 254.580994 94.18818 
L 260.668267 94.778362 
L 266.75554 95.850071 
L 272.842812 96.741467 
L 278.930085 98.574836 
L 285.017358 98.296609 
L 291.104631 97.959495 
L 297.191903 97.2219 
L 303.279176 98.794048 
L 309.366449 98.064882 
L 315.453722 97.437173 
L 321.540994 97.849756 
L 327.628267 96.060172 
L 333.71554 96.466635 
L 339.802812 95.452037 
L 345.890085 95.376973 
L 351.977358 95.266147 
L 358.064631 95.089764 
" style="fill:none;stroke:#e377c2;stroke-linecap:square;stroke-width:1.5;"/>
   </g>
   <g id="line2d_22">
    <path clip-path="url(#p9de7522332)" d="M 53.700994 181.868061 
L 59.788267 181.858399 
L 65.87554 181.894711 
L 71.962812 181.881516 
L 78.050085 181.914424 
L 84.137358 182.002822 
L 90.224631 182.011381 
L 96.311903 181.872 
L 102.399176 181.715079 
L 108.486449 181.573509 
L 114.573722 181.351306 
L 120.660994 181.338257 
L 126.748267 181.614036 
L 132.83554 181.545902 
L 138.922812 180.576994 
L 145.010085 180.644853 
L 151.097358 180.48725 
L 157.184631 175.027248 
L 163.271903 176.463126 
L 169.359176 176.609316 
L 175.446449 176.678796 
L 181.533722 176.636372 
L 187.620994 176.66453 
L 193.708267 176.424917 
L 199.79554 176.424788 
L 205.882812 176.461911 
L 211.970085 176.431175 
L 218.057358 176.785966 
L 224.144631 177.252661 
L 230.231903 177.477587 
L 236.319176 177.743316 
L 242.406449 177.453935 
L 248.493722 177.307065 
L 254.580994 177.153126 
L 260.668267 177.668794 
L 266.75554 177.594808 
L 272.842812 177.084716 
L 278.930085 178.527128 
L 285.017358 177.722225 
L 291.104631 177.187396 
L 297.191903 176.491285 
L 303.279176 179.408465 
L 309.366449 180.697895 
L 315.453722 180.561366 
L 321.540994 181.662717 
L 327.628267 179.857895 
L 333.71554 180.683207 
L 339.802812 179.380047 
L 345.890085 178.916059 
L 351.977358 178.578273 
L 358.064631 178.469482 
" style="fill:none;stroke:#7f7f7f;stroke-linecap:square;stroke-width:1.5;"/>
   </g>
   <g id="line2d_23">
    <path clip-path="url(#p9de7522332)" d="M 53.700994 96.637158 
L 59.788267 96.64382 
L 65.87554 96.626142 
L 71.962812 96.606973 
L 78.050085 96.574332 
L 84.137358 96.562912 
L 90.224631 96.548768 
L 96.311903 96.525927 
L 102.399176 96.410473 
L 108.486449 96.378375 
L 114.573722 96.251777 
L 120.660994 96.247562 
L 126.748267 96.493286 
L 132.83554 96.858007 
L 138.922812 97.454713 
L 145.010085 97.607152 
L 151.097358 97.974182 
L 157.184631 96.061526 
L 163.271903 97.032476 
L 169.359176 96.847802 
L 175.446449 96.868884 
L 181.533722 96.886967 
L 187.620994 96.859774 
L 193.708267 96.307939 
L 199.79554 96.227979 
L 205.882812 96.165283 
L 211.970085 96.066421 
L 218.057358 95.701166 
L 224.144631 95.535669 
L 230.231903 95.44116 
L 236.319176 95.761268 
L 242.406449 96.011077 
L 248.493722 96.416049 
L 254.580994 96.695906 
L 260.668267 97.054774 
L 266.75554 97.289492 
L 272.842812 97.028804 
L 278.930085 97.916796 
L 285.017358 97.470624 
L 291.104631 97.509789 
L 297.191903 97.123719 
L 303.279176 98.722112 
L 309.366449 100.080211 
L 315.453722 99.38341 
L 321.540994 99.132652 
L 327.628267 97.349456 
L 333.71554 97.481501 
L 339.802812 95.332231 
L 345.890085 94.009901 
L 351.977358 93.281554 
L 358.064631 92.813076 
" style="fill:none;stroke:#bcbd22;stroke-linecap:square;stroke-width:1.5;"/>
   </g>
   <g id="line2d_24">
    <path clip-path="url(#p9de7522332)" d="M 53.700994 87.643135 
L 59.788267 88.498632 
L 65.87554 89.418713 
L 71.962812 88.994166 
L 78.050085 88.70682 
L 84.137358 89.30625 
L 90.224631 88.273163 
L 96.311903 89.337123 
L 102.399176 89.208749 
L 108.486449 88.703286 
L 114.573722 96.981347 
L 120.660994 96.65824 
L 126.748267 88.457967 
L 132.83554 89.381314 
L 138.922812 88.595451 
L 145.010085 88.018733 
L 151.097358 86.954229 
L 157.184631 78.14433 
L 163.271903 75.679295 
L 169.359176 100.088365 
L 175.446449 95.744684 
L 181.533722 94.508969 
L 187.620994 94.932705 
L 193.708267 94.678405 
L 199.79554 94.890144 
L 205.882812 94.689421 
L 211.970085 95.697356 
L 218.057358 95.990271 
L 224.144631 97.573701 
L 230.231903 98.18156 
L 236.319176 97.548274 
L 242.406449 96.627918 
L 248.493722 96.009448 
L 254.580994 96.708826 
L 260.668267 99.089677 
L 266.75554 102.462018 
L 272.842812 104.594284 
L 278.930085 106.522447 
L 285.017358 104.772563 
L 291.104631 104.231476 
L 297.191903 103.466826 
L 303.279176 103.649725 
L 309.366449 103.208173 
L 315.453722 102.965577 
L 321.540994 104.183606 
L 327.628267 104.988784 
L 333.71554 106.79102 
L 339.802812 77.84842 
L 345.890085 106.019431 
L 351.977358 76.957029 
L 358.064631 104.506713 
" style="fill:none;stroke:#17becf;stroke-linecap:square;stroke-width:1.5;"/>
   </g>
   <g id="line2d_25">
    <path clip-path="url(#p9de7522332)" d="M 53.700994 204.434918 
L 59.788267 203.667414 
L 65.87554 204.239642 
L 71.962812 204.116293 
L 78.050085 203.973913 
L 84.137358 204.255285 
L 90.224631 204.131126 
L 96.311903 204.559758 
L 102.399176 205.378667 
L 108.486449 203.938703 
L 114.573722 205.54593 
L 120.660994 205.427753 
L 126.748267 202.968709 
L 132.83554 204.515956 
L 138.922812 203.43187 
L 145.010085 205.343991 
L 151.097358 205.577071 
L 157.184631 201.571444 
L 163.271903 202.982715 
L 169.359176 212.761522 
L 175.446449 204.389625 
L 181.533722 206.404134 
L 187.620994 205.659617 
L 193.708267 208.861007 
L 199.79554 207.999674 
L 205.882812 207.814465 
L 211.970085 207.511889 
L 218.057358 202.210574 
L 224.144631 206.126183 
L 230.231903 202.581285 
L 236.319176 204.386237 
L 242.406449 207.464569 
L 248.493722 208.013956 
L 254.580994 209.662521 
L 260.668267 219.618384 
L 266.75554 213.116443 
L 272.842812 212.432977 
L 278.930085 211.997812 
L 285.017358 216.460634 
L 291.104631 214.825929 
L 297.191903 213.89442 
L 303.279176 215.1198 
L 309.366449 214.604002 
L 315.453722 213.619321 
L 321.540994 214.241462 
L 327.628267 210.06327 
L 333.71554 212.443724 
L 339.802812 203.372311 
L 345.890085 208.475496 
L 351.977358 205.517513 
L 358.064631 208.847827 
" style="fill:none;stroke:#1f77b4;stroke-linecap:square;stroke-width:1.5;"/>
   </g>
   <g id="line2d_26">
    <path clip-path="url(#p9de7522332)" d="M 53.700994 127.335076 
L 59.788267 127.057659 
L 65.87554 127.297953 
L 71.962812 126.950092 
L 78.050085 126.788404 
L 84.137358 126.96995 
L 90.224631 127.467932 
L 96.311903 127.602831 
L 102.399176 127.997598 
L 108.486449 127.844341 
L 114.573722 128.587107 
L 120.660994 127.94334 
L 126.748267 128.285212 
L 132.83554 128.809301 
L 138.922812 129.414583 
L 145.010085 129.703145 
L 151.097358 130.089758 
L 157.184631 103.58159 
L 163.271903 104.652222 
L 169.359176 109.059141 
L 175.446449 117.694701 
L 181.533722 118.800413 
L 187.620994 117.077731 
L 193.708267 115.446438 
L 199.79554 115.763961 
L 205.882812 116.279353 
L 211.970085 114.860739 
L 218.057358 115.550326 
L 224.144631 114.248803 
L 230.231903 114.490175 
L 236.319176 115.516332 
L 242.406449 116.459943 
L 248.493722 116.826835 
L 254.580994 116.475854 
L 260.668267 109.391489 
L 266.75554 107.537312 
L 272.842812 105.568363 
L 278.930085 105.704616 
L 285.017358 107.818393 
L 291.104631 106.692831 
L 297.191903 106.271551 
L 303.279176 108.633362 
L 309.366449 107.085564 
L 315.453722 105.12164 
L 321.540994 104.380787 
L 327.628267 98.9866 
L 333.71554 100.663867 
L 339.802812 99.32467 
L 345.890085 101.752841 
L 351.977358 99.012165 
L 358.064631 100.553852 
" style="fill:none;stroke:#ff7f0e;stroke-linecap:square;stroke-width:1.5;"/>
   </g>
   <g id="patch_3">
    <path d="M 38.482813 239.758125 
L 38.482813 22.318125 
" style="fill:none;stroke:#000000;stroke-linecap:square;stroke-linejoin:miter;stroke-width:0.8;"/>
   </g>
   <g id="patch_4">
    <path d="M 373.282813 239.758125 
L 373.282813 22.318125 
" style="fill:none;stroke:#000000;stroke-linecap:square;stroke-linejoin:miter;stroke-width:0.8;"/>
   </g>
   <g id="patch_5">
    <path d="M 38.482813 239.758125 
L 373.282812 239.758125 
" style="fill:none;stroke:#000000;stroke-linecap:square;stroke-linejoin:miter;stroke-width:0.8;"/>
   </g>
   <g id="patch_6">
    <path d="M 38.482813 22.318125 
L 373.282812 22.318125 
" style="fill:none;stroke:#000000;stroke-linecap:square;stroke-linejoin:miter;stroke-width:0.8;"/>
   </g>
   <g id="text_15">
    <!-- 3.0 -->
    <g transform="translate(196.340937 16.318125)scale(0.12 -0.12)">
     <use xlink:href="#DejaVuSans-51"/>
     <use x="63.623047" xlink:href="#DejaVuSans-46"/>
     <use x="95.410156" xlink:href="#DejaVuSans-48"/>
    </g>
   </g>
   <g id="legend_1">
    <g id="patch_7">
     <path d="M 243.523438 118.386875 
L 366.282812 118.386875 
Q 368.282812 118.386875 368.282812 116.386875 
L 368.282812 29.318125 
Q 368.282812 27.318125 366.282812 27.318125 
L 243.523438 27.318125 
Q 241.523438 27.318125 241.523438 29.318125 
L 241.523438 116.386875 
Q 241.523438 118.386875 243.523438 118.386875 
z
" style="fill:#ffffff;opacity:0.5;stroke:#cccccc;stroke-linejoin:miter;"/>
    </g>
    <g id="line2d_27">
     <path d="M 245.523438 35.416562 
L 265.523438 35.416562 
" style="fill:none;stroke:#1f77b4;stroke-linecap:square;stroke-width:1.5;"/>
    </g>
    <g id="line2d_28"/>
    <g id="text_16">
     <!-- ch0 -->
     <defs>
      <path d="M 48.78125 52.59375 
L 48.78125 44.1875 
Q 44.96875 46.296875 41.140625 47.34375 
Q 37.3125 48.390625 33.40625 48.390625 
Q 24.65625 48.390625 19.8125 42.84375 
Q 14.984375 37.3125 14.984375 27.296875 
Q 14.984375 17.28125 19.8125 11.734375 
Q 24.65625 6.203125 33.40625 6.203125 
Q 37.3125 6.203125 41.140625 7.25 
Q 44.96875 8.296875 48.78125 10.40625 
L 48.78125 2.09375 
Q 45.015625 0.34375 40.984375 -0.53125 
Q 36.96875 -1.421875 32.421875 -1.421875 
Q 20.0625 -1.421875 12.78125 6.34375 
Q 5.515625 14.109375 5.515625 27.296875 
Q 5.515625 40.671875 12.859375 48.328125 
Q 20.21875 56 33.015625 56 
Q 37.15625 56 41.109375 55.140625 
Q 45.0625 54.296875 48.78125 52.59375 
z
" id="DejaVuSans-99"/>
      <path d="M 54.890625 33.015625 
L 54.890625 0 
L 45.90625 0 
L 45.90625 32.71875 
Q 45.90625 40.484375 42.875 44.328125 
Q 39.84375 48.1875 33.796875 48.1875 
Q 26.515625 48.1875 22.3125 43.546875 
Q 18.109375 38.921875 18.109375 30.90625 
L 18.109375 0 
L 9.078125 0 
L 9.078125 75.984375 
L 18.109375 75.984375 
L 18.109375 46.1875 
Q 21.34375 51.125 25.703125 53.5625 
Q 30.078125 56 35.796875 56 
Q 45.21875 56 50.046875 50.171875 
Q 54.890625 44.34375 54.890625 33.015625 
z
" id="DejaVuSans-104"/>
     </defs>
     <g transform="translate(273.523438 38.916562)scale(0.1 -0.1)">
      <use xlink:href="#DejaVuSans-99"/>
      <use x="54.980469" xlink:href="#DejaVuSans-104"/>
      <use x="118.359375" xlink:href="#DejaVuSans-48"/>
     </g>
    </g>
    <g id="line2d_29">
     <path d="M 245.523438 50.094687 
L 265.523438 50.094687 
" style="fill:none;stroke:#ff7f0e;stroke-linecap:square;stroke-width:1.5;"/>
    </g>
    <g id="line2d_30"/>
    <g id="text_17">
     <!-- ch1 -->
     <g transform="translate(273.523438 53.594687)scale(0.1 -0.1)">
      <use xlink:href="#DejaVuSans-99"/>
      <use x="54.980469" xlink:href="#DejaVuSans-104"/>
      <use x="118.359375" xlink:href="#DejaVuSans-49"/>
     </g>
    </g>
    <g id="line2d_31">
     <path d="M 245.523438 64.772812 
L 265.523438 64.772812 
" style="fill:none;stroke:#2ca02c;stroke-linecap:square;stroke-width:1.5;"/>
    </g>
    <g id="line2d_32"/>
    <g id="text_18">
     <!-- ch2 -->
     <g transform="translate(273.523438 68.272812)scale(0.1 -0.1)">
      <use xlink:href="#DejaVuSans-99"/>
      <use x="54.980469" xlink:href="#DejaVuSans-104"/>
      <use x="118.359375" xlink:href="#DejaVuSans-50"/>
     </g>
    </g>
    <g id="line2d_33">
     <path d="M 245.523438 79.450938 
L 265.523438 79.450938 
" style="fill:none;stroke:#d62728;stroke-linecap:square;stroke-width:1.5;"/>
    </g>
    <g id="line2d_34"/>
    <g id="text_19">
     <!-- ch6 -->
     <g transform="translate(273.523438 82.950938)scale(0.1 -0.1)">
      <use xlink:href="#DejaVuSans-99"/>
      <use x="54.980469" xlink:href="#DejaVuSans-104"/>
      <use x="118.359375" xlink:href="#DejaVuSans-54"/>
     </g>
    </g>
    <g id="line2d_35">
     <path d="M 245.523438 94.129063 
L 265.523438 94.129063 
" style="fill:none;stroke:#9467bd;stroke-linecap:square;stroke-width:1.5;"/>
    </g>
    <g id="line2d_36"/>
    <g id="text_20">
     <!-- ch7 -->
     <defs>
      <path d="M 8.203125 72.90625 
L 55.078125 72.90625 
L 55.078125 68.703125 
L 28.609375 0 
L 18.3125 0 
L 43.21875 64.59375 
L 8.203125 64.59375 
z
" id="DejaVuSans-55"/>
     </defs>
     <g transform="translate(273.523438 97.629063)scale(0.1 -0.1)">
      <use xlink:href="#DejaVuSans-99"/>
      <use x="54.980469" xlink:href="#DejaVuSans-104"/>
      <use x="118.359375" xlink:href="#DejaVuSans-55"/>
     </g>
    </g>
    <g id="line2d_37">
     <path d="M 245.523438 108.807187 
L 265.523438 108.807187 
" style="fill:none;stroke:#8c564b;stroke-linecap:square;stroke-width:1.5;"/>
    </g>
    <g id="line2d_38"/>
    <g id="text_21">
     <!-- ch8 -->
     <g transform="translate(273.523438 112.307187)scale(0.1 -0.1)">
      <use xlink:href="#DejaVuSans-99"/>
      <use x="54.980469" xlink:href="#DejaVuSans-104"/>
      <use x="118.359375" xlink:href="#DejaVuSans-56"/>
     </g>
    </g>
    <g id="line2d_39">
     <path d="M 311.721875 35.416562 
L 331.721875 35.416562 
" style="fill:none;stroke:#e377c2;stroke-linecap:square;stroke-width:1.5;"/>
    </g>
    <g id="line2d_40"/>
    <g id="text_22">
     <!-- ch12 -->
     <g transform="translate(339.721875 38.916562)scale(0.1 -0.1)">
      <use xlink:href="#DejaVuSans-99"/>
      <use x="54.980469" xlink:href="#DejaVuSans-104"/>
      <use x="118.359375" xlink:href="#DejaVuSans-49"/>
      <use x="181.982422" xlink:href="#DejaVuSans-50"/>
     </g>
    </g>
    <g id="line2d_41">
     <path d="M 311.721875 50.094687 
L 331.721875 50.094687 
" style="fill:none;stroke:#7f7f7f;stroke-linecap:square;stroke-width:1.5;"/>
    </g>
    <g id="line2d_42"/>
    <g id="text_23">
     <!-- ch13 -->
     <g transform="translate(339.721875 53.594687)scale(0.1 -0.1)">
      <use xlink:href="#DejaVuSans-99"/>
      <use x="54.980469" xlink:href="#DejaVuSans-104"/>
      <use x="118.359375" xlink:href="#DejaVuSans-49"/>
      <use x="181.982422" xlink:href="#DejaVuSans-51"/>
     </g>
    </g>
    <g id="line2d_43">
     <path d="M 311.721875 64.772812 
L 331.721875 64.772812 
" style="fill:none;stroke:#bcbd22;stroke-linecap:square;stroke-width:1.5;"/>
    </g>
    <g id="line2d_44"/>
    <g id="text_24">
     <!-- ch14 -->
     <g transform="translate(339.721875 68.272812)scale(0.1 -0.1)">
      <use xlink:href="#DejaVuSans-99"/>
      <use x="54.980469" xlink:href="#DejaVuSans-104"/>
      <use x="118.359375" xlink:href="#DejaVuSans-49"/>
      <use x="181.982422" xlink:href="#DejaVuSans-52"/>
     </g>
    </g>
    <g id="line2d_45">
     <path d="M 311.721875 79.450938 
L 331.721875 79.450938 
" style="fill:none;stroke:#17becf;stroke-linecap:square;stroke-width:1.5;"/>
    </g>
    <g id="line2d_46"/>
    <g id="text_25">
     <!-- ch18 -->
     <g transform="translate(339.721875 82.950938)scale(0.1 -0.1)">
      <use xlink:href="#DejaVuSans-99"/>
      <use x="54.980469" xlink:href="#DejaVuSans-104"/>
      <use x="118.359375" xlink:href="#DejaVuSans-49"/>
      <use x="181.982422" xlink:href="#DejaVuSans-56"/>
     </g>
    </g>
    <g id="line2d_47">
     <path d="M 311.721875 94.129063 
L 331.721875 94.129063 
" style="fill:none;stroke:#1f77b4;stroke-linecap:square;stroke-width:1.5;"/>
    </g>
    <g id="line2d_48"/>
    <g id="text_26">
     <!-- ch19 -->
     <defs>
      <path d="M 10.984375 1.515625 
L 10.984375 10.5 
Q 14.703125 8.734375 18.5 7.8125 
Q 22.3125 6.890625 25.984375 6.890625 
Q 35.75 6.890625 40.890625 13.453125 
Q 46.046875 20.015625 46.78125 33.40625 
Q 43.953125 29.203125 39.59375 26.953125 
Q 35.25 24.703125 29.984375 24.703125 
Q 19.046875 24.703125 12.671875 31.3125 
Q 6.296875 37.9375 6.296875 49.421875 
Q 6.296875 60.640625 12.9375 67.421875 
Q 19.578125 74.21875 30.609375 74.21875 
Q 43.265625 74.21875 49.921875 64.515625 
Q 56.59375 54.828125 56.59375 36.375 
Q 56.59375 19.140625 48.40625 8.859375 
Q 40.234375 -1.421875 26.421875 -1.421875 
Q 22.703125 -1.421875 18.890625 -0.6875 
Q 15.09375 0.046875 10.984375 1.515625 
z
M 30.609375 32.421875 
Q 37.25 32.421875 41.125 36.953125 
Q 45.015625 41.5 45.015625 49.421875 
Q 45.015625 57.28125 41.125 61.84375 
Q 37.25 66.40625 30.609375 66.40625 
Q 23.96875 66.40625 20.09375 61.84375 
Q 16.21875 57.28125 16.21875 49.421875 
Q 16.21875 41.5 20.09375 36.953125 
Q 23.96875 32.421875 30.609375 32.421875 
z
" id="DejaVuSans-57"/>
     </defs>
     <g transform="translate(339.721875 97.629063)scale(0.1 -0.1)">
      <use xlink:href="#DejaVuSans-99"/>
      <use x="54.980469" xlink:href="#DejaVuSans-104"/>
      <use x="118.359375" xlink:href="#DejaVuSans-49"/>
      <use x="181.982422" xlink:href="#DejaVuSans-57"/>
     </g>
    </g>
    <g id="line2d_49">
     <path d="M 311.721875 108.807187 
L 331.721875 108.807187 
" style="fill:none;stroke:#ff7f0e;stroke-linecap:square;stroke-width:1.5;"/>
    </g>
    <g id="line2d_50"/>
    <g id="text_27">
     <!-- ch20 -->
     <g transform="translate(339.721875 112.307187)scale(0.1 -0.1)">
      <use xlink:href="#DejaVuSans-99"/>
      <use x="54.980469" xlink:href="#DejaVuSans-104"/>
      <use x="118.359375" xlink:href="#DejaVuSans-50"/>
      <use x="181.982422" xlink:href="#DejaVuSans-48"/>
     </g>
    </g>
   </g>
  </g>
 </g>
 <defs>
  <clipPath id="p9de7522332">
   <rect height="217.44" width="334.8" x="38.482813" y="22.318125"/>
  </clipPath>
 </defs>
</svg>
